<svg width="345" height="265" viewBox="0 0 345 265" fill="none" xmlns="http://www.w3.org/2000/svg">
<path d="M186.422 118.392C187.742 119.822 189.502 119.822 191.041 119.822C191.261 119.822 191.481 119.822 191.811 119.822C191.921 119.822 191.921 119.822 192.031 119.822C194.121 119.822 194.891 119.162 195.331 116.852L196.321 106.954L197.64 99.2548C197.75 98.2649 197.97 96.9451 198.19 95.4054C198.74 91.5559 199.62 86.3867 199.4 81.8774C199.4 80.8875 199.62 80.3376 200.17 79.7877C202.7 83.4171 210.508 93.5356 215.458 99.9147C217.437 102.554 219.197 104.754 219.307 104.974C220.737 107.174 225.246 105.964 227.226 104.644C229.096 103.434 229.096 102.114 228.546 101.234C228.436 101.124 228.326 100.685 228.216 100.355C228.106 100.135 228.106 99.8047 227.996 99.5847C227.556 98.4849 224.476 94.0855 219.637 87.0466C215.678 81.3275 211.278 75.0584 209.629 72.0888C210.948 70.769 214.908 64.06 227.006 42.5033C230.855 35.6843 234.705 28.6453 235.365 27.7655C237.674 25.7858 235.255 20.8365 233.715 18.6368C231.955 16.2172 230.745 16.2172 229.866 16.7671C228.656 17.647 223.597 25.8957 213.038 43.2731C208.419 50.862 203.36 59.2208 200.5 63.6201C200.61 61.6404 200.83 59.3307 200.94 56.9111C201.27 51.5219 201.71 45.3628 202.15 43.1632L202.7 37.884V37.774C202.7 37.1141 202.48 36.5641 201.93 36.2342C200.17 35.1344 195.441 36.1242 192.581 37.664C190.161 38.9838 189.612 40.4136 189.612 41.4034C189.612 45.6928 189.392 50.2021 188.952 55.7013C188.842 57.351 188.512 59.0008 188.182 60.7605C187.962 62.0803 187.742 63.4001 187.522 64.8299C187.302 66.8096 187.192 68.6793 187.192 70.659C187.192 71.9789 187.082 73.2987 186.972 74.5085C186.642 77.478 186.202 80.6676 185.982 83.7471C185.762 88.6964 185.652 94.1955 185.762 100.575C185.762 102.444 185.652 104.314 185.542 106.404C185.432 107.833 185.432 109.263 185.432 110.583C185.322 112.343 185.212 114.213 185.212 116.082V116.192V116.302C185.322 116.962 185.762 117.842 186.422 118.392Z" fill="#0055FF"/>
<path d="M232.725 71.539L232.615 72.9688C232.395 75.1685 232.285 77.3682 232.175 79.4578V80.4477C231.405 95.1855 231.625 96.3953 232.175 96.9452C232.395 97.2752 232.835 97.7151 234.155 97.7151C235.585 97.7151 237.894 97.2752 241.854 95.7354L242.404 95.5154L242.514 94.9655C242.514 94.8556 242.514 94.8555 242.514 94.7456C243.394 94.4156 244.273 93.9757 245.153 93.6457C246.033 93.3158 246.913 92.8758 247.793 92.5459C248.673 92.2159 249.443 91.776 250.323 91.4461C251.972 90.6762 253.732 89.9063 255.492 89.3564C257.032 88.9164 258.571 88.5865 260.111 88.3665C260.991 88.2565 261.761 88.1465 262.641 87.9266C262.861 87.8166 263.081 87.8166 263.301 87.7066C263.411 87.5966 263.631 87.5966 263.851 87.4866L270.23 85.067C273.089 84.1871 272.209 77.3682 271.659 75.1685C271.109 72.9688 270.23 72.0889 269.02 72.3089C267.92 72.5289 266.82 72.7488 265.94 72.7488C263.961 72.6389 262.201 72.9688 260.771 73.7387C260.551 73.8487 260.111 73.9587 259.671 74.0686C259.451 74.1786 259.231 74.1786 259.011 74.1786L258.571 74.2886C257.032 74.6186 255.602 74.9485 254.062 75.3884L242.294 78.578C242.404 77.3682 242.624 76.3783 242.844 75.3884C243.174 74.1786 243.394 72.8588 243.504 71.2091C243.944 66.4798 245.263 56.1413 245.703 53.3917L245.813 53.2817H245.923C247.243 52.5119 248.563 51.9619 249.993 51.302L250.103 51.1921C250.873 50.7521 254.392 49.3223 257.142 48.2225C259.341 47.3426 261.211 46.5727 261.981 46.2428C263.521 45.5829 263.741 43.3832 262.751 40.4137C261.981 38.324 261.101 37.3341 260.111 37.6641L246.693 41.6235C247.023 36.2343 247.903 24.3561 248.453 19.6268C248.453 19.5168 248.673 19.4068 248.673 19.2968C249.333 18.8569 250.103 18.7469 250.983 18.4169C252.302 17.977 253.622 17.6471 254.942 17.3171C256.262 16.9872 257.691 16.5472 258.901 16.2173C259.121 16.1073 259.341 16.1073 259.561 16.1073C260.551 15.8873 261.541 15.6673 262.421 15.0074C265.39 12.9178 268.8 11.8179 271.769 11.048C272.759 10.8281 273.529 9.61825 273.969 7.41858C273.969 7.41858 275.179 2.02938 273.859 0.819559C273.529 0.489608 273.089 0.489608 272.649 0.599592C271.879 0.819559 271.109 1.14951 270.45 1.47946C270.12 1.58944 269.79 1.69943 269.46 1.80941C269.02 1.9194 268.69 2.13936 268.25 2.13936C267.59 2.24935 267.04 2.24935 266.38 2.35933C265.5 2.35933 264.62 2.46931 263.741 2.68928C259.561 3.78912 255.602 4.88895 251.422 6.09877L248.233 6.97864C248.123 6.97864 247.903 6.97864 247.683 6.97864C247.573 6.97864 238.664 8.51841 238.334 11.9279C238.114 13.2477 237.125 22.8163 237.125 23.8061C237.125 24.686 237.015 25.1259 237.015 25.7858C236.905 26.5557 236.795 27.5456 236.795 29.3053L236.685 33.3747C235.915 39.9737 233.385 63.7302 233.165 65.5999C232.945 67.4696 232.835 69.5593 232.725 71.539Z" fill="#0055FF"/>
<path d="M307.734 14.0178C309.054 13.4679 313.013 13.138 316.533 12.808C320.162 12.4781 323.572 12.1481 325.111 11.7082C325.551 11.5982 325.881 11.4882 326.101 11.4882H326.211H326.321C326.981 11.4882 329.071 11.2683 329.621 8.9586V8.73864L329.511 8.07874C329.511 7.74879 329.401 7.30885 329.181 7.08888L328.521 2.90951C328.301 1.80967 327.421 1.25975 326.761 0.929803L326.211 0.489868L323.572 0.709835V1.03979C315.653 3.23946 272.209 15.1177 269.68 16.6575L269.57 16.7674C269.13 17.0974 268.8 17.3174 268.36 17.4273C264.84 18.3072 264.401 26.116 264.84 28.0957C265.17 29.6355 266.38 29.4156 266.49 29.3056L274.519 27.4358C274.959 27.3259 282.988 24.5763 284.198 24.0264L289.697 22.3766L289.917 22.2666C289.367 23.6964 289.257 25.0162 289.257 26.446C289.257 26.8859 289.367 27.4358 289.257 27.8758V27.9858C289.147 29.4156 289.037 30.8453 288.927 32.3851C288.707 34.5848 288.487 36.7845 288.487 38.9841C288.267 42.9435 287.607 46.1331 286.617 49.2126C286.287 50.3124 286.067 51.6322 286.067 52.8421C285.847 56.8015 285.077 66.1501 284.528 71.7592V71.8692C284.088 74.9488 283.758 78.1383 283.428 81.2178C283.318 81.8777 283.758 82.7576 284.967 82.9776C285.077 82.9776 285.187 82.9776 285.407 82.9776C287.387 82.9776 292.116 81.5478 292.556 79.6781C292.886 77.6983 293.216 75.8286 293.546 73.9589C293.986 71.4293 294.426 69.0096 294.866 66.48C295.196 64.9402 295.636 63.1805 296.076 61.3108C296.736 58.8912 297.286 56.3615 297.726 54.0519C297.946 52.8421 298.165 51.6322 298.495 50.4224C298.935 48.3327 299.375 46.1331 299.705 43.8234C300.145 40.9638 300.475 37.6643 300.695 34.5848C300.695 33.9249 300.805 33.265 300.805 32.6051C300.915 30.4054 301.025 28.3157 301.355 26.226C301.685 24.0264 302.015 21.7167 302.235 19.517C302.345 18.5272 302.455 17.4273 302.565 16.4375V16.3275C304.215 15.5576 305.864 14.6778 307.734 14.0178Z" fill="#0055FF"/>
<path d="M162.996 143.028C161.236 142.698 159.366 142.258 157.497 142.368C154.307 142.478 151.557 143.028 148.918 143.798C149.248 143.028 149.468 142.368 149.578 141.598C150.128 139.399 150.568 137.309 151.117 135.109C151.777 132.14 152.547 129.06 153.207 126.091C154.197 121.801 154.637 117.512 155.077 113.333C155.297 110.913 155.627 108.383 155.957 105.854C156.287 103.434 156.837 101.014 157.497 98.3748C157.606 98.1549 157.606 97.8249 157.716 97.6049C157.716 97.6049 157.826 97.6049 157.826 97.7149C158.486 98.1549 159.146 98.7048 159.586 99.1447L159.696 99.2547C160.466 99.8046 161.236 100.574 162.006 101.234C162.336 101.454 162.556 101.784 162.886 102.114C164.975 103.874 170.145 112.343 173.224 117.402C175.424 121.031 175.974 121.911 176.414 122.241C176.744 122.461 177.404 122.681 178.393 122.351C180.153 121.581 183.343 118.282 183.563 116.632V116.522V115.312L183.453 115.092C183.233 114.762 183.123 114.322 182.903 113.883C182.573 113.003 182.133 112.123 181.583 111.243C181.253 110.693 180.923 110.253 180.593 109.703C179.603 108.273 178.723 106.954 178.173 105.414C177.953 104.864 177.733 104.314 177.623 103.764C177.184 102.554 176.744 101.234 176.084 99.9146C175.534 99.1447 175.094 98.2648 174.544 97.385C173.444 95.4053 172.344 93.4256 170.475 91.7758C170.365 91.6658 170.145 91.2259 170.035 90.8959C169.265 89.3562 168.385 87.8164 166.845 86.4966C166.625 86.2766 166.295 86.0567 166.075 85.7267C166.625 85.2868 167.175 84.7369 167.615 84.2969C168.605 83.417 169.485 82.5372 170.475 81.7673L171.354 80.9974C173.334 79.3477 175.314 77.5879 176.744 75.1683C177.074 74.6184 177.514 73.9585 177.843 73.4085C179.493 70.8789 181.143 68.2393 181.803 65.0498C182.023 64.0599 182.243 63.1801 182.463 62.3002C182.683 61.6403 182.903 60.8704 183.013 60.2105C183.783 57.021 184.113 54.1614 183.893 51.1919C183.783 48.5522 182.353 46.7925 179.823 45.9126C177.733 45.0328 175.534 44.8128 173.774 44.8128C170.145 44.7028 166.625 45.1428 163.546 46.2426H163.436C162.996 45.8027 162.556 45.4727 161.896 45.1428L161.566 44.9228L161.126 45.0328C160.466 45.2527 159.806 45.3627 159.146 45.5827C158.486 45.8027 157.936 46.0226 157.387 46.1326C155.187 46.4626 154.307 48.0023 153.757 49.4321C153.647 49.5421 153.537 49.6521 153.317 49.7621C152.987 49.982 152.657 50.092 152.217 50.202C151.777 50.422 151.337 50.532 150.897 50.7519C149.688 51.5218 148.368 52.1817 147.158 52.8416C145.838 53.5015 144.628 54.2714 143.419 54.9313C142.099 55.7012 140.669 56.5811 139.459 57.5709C138.689 58.0108 138.139 58.5608 137.479 59.1107C137.15 59.4406 136.71 59.7706 136.38 59.9905C136.16 60.1005 135.94 60.2105 135.83 60.4305C135.28 60.7604 134.73 61.2004 134.29 61.7503C132.86 63.4 133.3 64.6099 133.74 65.1598C134.73 66.6995 136.16 66.1496 136.82 65.9297L137.15 65.8197C137.919 65.4897 138.689 65.0498 139.459 64.9398C143.639 64.0599 147.048 63.2901 150.128 61.7503C150.678 61.5303 151.337 61.3103 151.997 61.2004C151.447 64.6099 150.788 67.6894 150.238 70.659C150.018 71.6488 149.688 72.6387 149.358 73.6285C149.138 74.3984 148.808 75.2783 148.588 76.1581C148.258 77.5879 148.038 79.1277 147.818 80.5575C147.598 81.6573 147.488 82.7572 147.268 83.857C146.828 86.4966 146.828 89.3562 147.268 92.7657C147.708 95.7352 147.158 98.5948 146.718 101.784C146.608 102.664 146.498 103.544 146.278 104.424C145.948 106.734 145.398 109.043 144.848 111.243C144.408 113.003 143.969 114.872 143.639 116.742C142.869 121.361 142.209 125.871 141.659 130.38V130.6C141.329 134.339 141.109 138.079 140.889 141.818C139.899 139.729 138.799 137.639 137.809 135.659L134.29 128.84C134.07 128.4 133.74 127.63 133.52 127.081L130.441 115.642C130.221 114.762 129.891 113.992 129.561 113.113C129.011 111.463 128.351 109.923 128.021 108.273C127.471 105.634 127.031 102.994 126.701 100.355C126.481 99.1447 126.371 98.0449 126.151 96.945C126.151 96.2851 126.041 95.7352 126.151 95.1853C126.591 93.2056 126.041 91.4459 125.601 89.6861C124.941 87.3765 124.391 84.8468 123.952 82.3172C123.842 81.5473 123.622 80.7774 123.512 79.8976C122.962 76.818 122.302 73.5185 120.982 70.329C120.762 69.8891 120.762 69.2292 120.652 68.5693C120.652 68.1293 120.542 67.6894 120.542 67.2495C120.212 65.7097 119.882 64.1699 119.442 62.6301L119.112 61.7503C118.892 61.0904 118.232 59.9905 115.813 60.1005C114.163 60.1005 110.424 60.8704 110.094 62.9601C110.094 63.4 109.874 63.84 109.654 64.2799C109.434 64.7198 109.324 65.2698 109.104 65.9297L108.884 66.6995C108.444 68.1293 108.004 69.6691 107.674 71.2089C107.234 74.5084 106.904 78.0279 106.464 81.3274C106.244 83.747 105.914 86.1666 105.694 88.5863C105.364 90.236 105.034 91.9958 104.044 93.6455C103.385 94.8553 103.055 95.8452 102.945 96.6151C102.615 99.6946 102.285 102.774 102.065 105.744C101.955 107.174 101.515 108.493 101.075 109.593C100.195 111.133 99.9751 112.783 100.305 114.322C100.415 115.092 100.305 115.862 100.305 116.522C100.195 117.512 99.9751 118.502 99.8651 119.382C99.6451 121.031 99.3152 122.681 99.2052 124.331V124.441C99.2052 125.101 98.7653 128.84 98.4353 132.03C97.9954 135.769 97.7754 138.189 97.7754 138.519C97.4454 142.588 97.3355 146.108 97.5555 149.737C97.5555 150.067 97.5555 150.507 97.4455 150.947C97.4455 151.167 97.3355 151.387 97.3355 151.607C96.7856 150.287 96.3456 149.077 95.7957 147.757C95.0258 145.998 94.2559 143.908 93.926 142.038C92.8261 137.309 91.9463 132.58 90.9564 128.18C89.6366 122.351 88.2068 116.522 86.887 110.583C85.0173 102.664 84.3574 94.6354 83.6975 86.6066V83.417C84.2474 80.1175 83.6975 77.038 83.1476 73.6285C81.8278 67.7994 81.1679 61.7503 80.0681 55.8112C79.2982 50.7519 78.4183 45.8027 77.4284 40.6334L75.9987 32.8246C75.6687 30.185 62.6906 26.5555 62.1407 29.0852C61.2609 32.2747 60.271 35.4642 59.8311 38.5437C58.5113 48.9922 57.6314 59.3306 56.4216 69.9991C55.9817 73.2986 55.2118 76.7081 53.782 79.4576C53.0121 80.8874 52.3522 82.5372 52.2422 84.2969C51.5823 89.3562 51.1424 94.6354 50.8124 100.245C50.4825 102.994 49.8226 105.634 48.9427 108.383C48.2828 110.253 47.5129 112.453 47.8429 114.322C48.7227 120.262 46.3031 125.541 46.743 131.37L46.1931 131.48C46.0831 131.04 45.8632 130.82 45.7532 130.38C44.9833 127.301 44.2134 124.331 43.6635 121.251C41.9038 113.993 41.3538 106.514 40.6939 98.9247C40.474 97.7149 40.364 96.2851 40.584 94.9653C41.3538 91.5558 40.364 88.3663 39.7041 85.0668C38.6042 79.1277 37.9443 73.4085 36.8445 67.4694C36.0746 62.4102 35.1948 57.241 34.2049 52.0717C33.765 49.4321 33.215 46.9025 32.9951 44.2629C32.5551 42.1732 19.5771 38.4338 18.9172 41.0734C18.1473 44.2629 17.2674 47.3424 16.9375 50.9719C15.6177 59.8806 14.6278 69.0092 13.7479 78.1378C13.308 83.417 12.4282 88.3663 10.0085 92.5457C9.56858 93.6455 9.23863 94.7454 9.23863 95.7352C8.68871 101.344 8.02881 106.624 7.58888 111.903C7.47889 114.652 6.92897 117.182 5.82913 119.712C4.83928 121.911 4.39935 124.221 4.7293 126.861C5.05925 128.51 4.94927 130.49 4.7293 132.03C4.7293 134.01 4.17938 135.879 3.95942 137.639C3.51948 141.708 3.18953 145.668 1.97971 149.737C1.31981 151.827 1.20982 154.356 1.09984 156.886C0.879869 158.206 0.989856 159.636 0.879872 161.175C0.879872 163.155 0.439944 165.245 0.439944 167.225C0.439944 170.194 0.549928 173.164 0.439944 175.913C0.439944 177.893 0.109984 179.653 0 181.412L0.10999 191.971C6.71123e-06 194.72 6.71123e-06 197.69 0.10999 200.33L0.549918 205.719C0.769885 206.929 0.989852 208.358 1.64975 209.458C2.96956 212.318 11.2183 210.228 11.8782 208.798C12.0982 208.028 12.2082 207.259 12.2082 206.489C12.4282 202.199 12.4282 198.02 12.7581 194.061C12.8681 190.541 13.308 187.242 13.528 184.052C13.638 180.313 13.088 176.243 14.6278 172.394C14.7378 171.844 14.6278 171.404 14.7378 170.854L15.0678 161.615C15.1777 160.076 14.9578 158.646 15.5077 157.546C16.8275 154.027 16.9375 150.067 17.7074 146.438C18.0373 143.908 18.0373 141.708 17.3774 139.399C17.0475 138.519 17.2674 137.749 17.3774 136.979C17.8173 132.69 18.3673 128.07 18.9172 123.781C19.0272 122.241 19.5771 120.921 20.127 119.492C20.457 118.172 21.1169 117.292 21.3368 115.972C22.7666 110.473 24.0864 104.974 24.8563 99.1447L25.5162 96.0652C25.6262 95.5152 25.7362 95.2953 25.8461 94.7454C26.506 96.0652 26.726 97.275 26.726 98.4848C27.056 102.554 27.8259 106.624 29.2556 110.803C29.5856 111.683 30.0255 112.893 30.2455 113.992C31.0154 119.492 31.8952 124.991 32.9951 130.6C33.765 134.669 34.7548 138.849 35.7447 143.028C36.2946 145.118 37.6144 146.768 38.2743 148.857C40.034 154.136 43.8835 178.113 44.9833 190.651C46.0831 203.189 57.5214 190.101 57.0815 185.482C56.6415 180.863 58.0713 157.876 58.2913 154.686C58.5113 152.377 58.5113 150.177 58.8412 148.087C59.5011 145.008 60.161 142.148 60.381 138.849C60.381 135.879 60.601 132.58 60.8209 129.39C60.9309 128.84 60.8209 128.4 60.9309 127.85C60.491 124.221 61.0409 120.701 61.5908 117.072L62.2507 113.992C62.6907 111.903 63.1306 109.813 63.5705 108.053C63.7905 107.064 64.3404 105.854 64.7803 104.534C66.2101 99.0347 67.5299 93.5355 68.2998 87.7064L68.9597 84.6269C69.0697 84.077 69.3997 83.747 69.5096 83.3071L70.4995 88.6963C71.1594 92.2157 72.0393 95.7352 72.6992 99.2547C73.689 103.654 75.2288 108.273 75.6687 112.893C76.1087 117.292 76.8785 121.471 77.6484 125.761C77.9784 127.63 78.5283 129.5 79.2982 131.26C80.178 133.79 81.1679 135.989 82.0478 138.519C83.9175 144.458 85.5672 150.837 87.9869 156.446C90.0766 161.395 91.5063 166.785 93.596 171.624C94.6959 174.373 95.4658 177.123 96.3456 179.873C97.9954 184.712 100.195 188.891 103.715 192.191C105.364 193.511 112.073 187.022 111.633 185.922L104.704 167.994C104.154 166.565 103.605 165.135 103.055 163.705C103.165 163.705 103.165 163.705 103.275 163.705C103.605 163.815 104.044 163.815 104.374 163.815C106.464 163.815 108.004 162.605 108.554 160.406C108.884 158.866 108.994 157.216 108.994 155.676L109.544 146.658C109.654 145.008 109.654 143.358 109.544 141.818C109.544 141.598 109.544 141.378 109.544 141.158C109.544 140.938 109.544 140.828 109.544 140.828C110.534 138.629 110.534 136.319 110.534 134.119V133.13C110.534 131.92 110.973 131.15 112.073 130.49L114.383 128.62C115.593 127.74 116.803 126.861 117.902 125.871C119.002 124.991 120.212 124.001 121.422 123.231C121.642 123.011 121.972 122.901 122.302 122.791C122.522 123.341 122.852 123.891 123.072 124.441C123.402 125.101 123.732 125.871 124.062 126.421L124.501 127.63C125.821 131.04 127.141 134.559 129.231 137.639C129.341 137.859 129.341 138.079 129.561 138.299C130.001 139.399 130.441 140.499 130.99 141.598C131.98 143.908 132.97 146.328 134.07 148.637C134.4 149.297 134.84 150.067 135.39 150.837C135.28 151.167 135.06 151.387 134.4 151.607C133.85 151.717 133.52 152.047 133.08 152.377C132.86 152.597 132.64 152.707 132.42 152.817L132.31 152.927C131.1 153.917 129.781 154.796 128.571 155.786C127.251 156.776 126.041 157.656 124.721 158.756C124.501 158.866 124.281 158.976 124.062 159.196C123.622 159.416 123.072 159.746 122.632 160.296L121.862 161.065L122.632 161.835C123.292 162.495 128.791 167.774 132.86 165.245C133.41 164.805 134.18 164.475 134.95 164.145C134.84 167.005 134.84 169.974 134.51 172.834C134.4 174.923 134.18 176.903 133.85 178.993L133.41 184.822C133.3 185.262 133.3 185.702 133.3 186.032C133.3 186.142 133.3 186.252 133.3 186.362C133.3 187.132 133.19 187.901 133.19 188.671C133.08 190.541 132.97 192.631 133.3 194.61C133.63 197.03 133.52 198.24 131.98 199.67C130.551 200.99 129.451 202.529 128.351 203.959C127.801 204.729 127.141 205.609 126.481 206.379L125.491 208.028C124.831 209.348 125.161 212.098 126.261 212.978C127.361 213.968 129.671 213.638 130.88 212.648L131.32 212.098C132.09 211.328 132.86 210.558 133.63 209.788C134.07 209.238 134.62 208.798 135.06 208.248C135.17 210.338 135.17 212.318 135.06 214.298C134.95 216.717 134.73 219.247 134.51 221.666C134.18 225.956 133.74 230.355 133.96 234.754C133.96 236.844 134.07 239.704 134.18 242.673C134.29 245.643 134.29 248.502 134.4 250.592C134.51 252.132 134.62 253.672 134.84 255.321C134.95 256.861 135.17 258.401 135.28 259.941L135.5 261.92V262.03C135.72 263.24 136.27 264.12 137.15 264.56C137.589 264.78 138.139 265 138.689 265C139.019 265 139.459 264.89 139.899 264.78C142.099 264.23 143.639 262.69 144.298 260.271C144.738 258.291 144.958 256.311 145.178 254.662C145.618 250.262 146.168 245.203 146.498 240.364C146.608 237.724 146.608 233.765 146.608 230.245C146.608 228.045 146.608 225.956 146.608 224.306C146.608 222.546 146.498 220.787 146.388 219.027C146.168 214.847 145.948 210.888 146.828 206.819C146.938 206.269 146.828 205.719 146.828 205.279C146.828 205.169 146.828 204.949 146.828 204.839C146.828 204.509 146.828 204.069 146.828 203.739C146.828 202.749 146.828 201.869 147.048 201.209C147.488 199.78 148.258 198.35 148.918 197.03C149.248 196.48 149.468 195.82 149.798 195.38C151.227 192.741 153.427 190.871 155.737 188.781L156.617 188.011C159.256 185.482 161.456 182.732 163.216 179.653C164.425 177.453 165.305 175.033 166.295 172.834L166.845 171.294C167.615 169.424 168.275 167.335 168.715 164.805C169.045 162.935 169.485 160.626 169.595 158.206C169.595 155.236 169.595 152.267 169.375 149.297C167.615 145.998 165.965 143.908 162.996 143.028ZM145.288 166.565C145.398 165.575 145.398 164.585 145.398 163.705C145.398 163.265 145.398 162.825 145.398 162.385L145.618 158.536V158.426C145.618 158.206 145.508 157.766 146.278 157.326L147.158 156.886C149.798 155.456 152.437 153.917 155.407 153.147C155.737 153.037 156.067 153.037 156.397 153.037C156.947 153.037 157.387 153.147 157.716 153.367C158.266 153.697 158.486 154.246 158.596 155.016C158.706 156.116 158.816 157.216 158.816 158.426C158.816 158.976 158.816 159.636 158.926 160.186C158.926 160.736 158.926 161.175 158.926 161.725C158.926 162.715 159.036 163.595 158.926 164.585C158.816 167.774 157.057 170.194 155.407 172.284C153.537 174.593 151.557 176.793 149.468 178.883C148.478 179.983 147.378 181.082 146.388 182.182C145.838 182.732 145.288 183.392 144.628 184.052C144.298 177.673 144.408 171.954 145.288 166.565ZM173.224 53.9414C173.554 53.9414 173.884 54.0514 174.104 54.2714C174.544 54.6013 174.764 55.1513 174.764 55.7012C174.764 56.5811 174.654 57.5709 174.544 58.5608C174.434 59.2207 174.434 59.8806 174.324 60.5405L173.774 64.4999C173.444 66.5896 172.234 68.4593 170.255 70.439C167.505 72.8586 164.645 75.1683 161.676 77.5879C160.796 78.2478 159.916 79.0177 159.036 79.6776C159.586 74.9483 160.356 69.6691 161.896 64.4999C162.116 63.73 162.226 62.9601 162.226 62.3002C162.336 61.6403 162.336 61.0904 162.556 60.4305V60.2105C162.666 59.2207 162.776 58.2308 162.996 57.131C162.996 57.021 163.216 56.911 163.326 56.801C166.845 55.0413 169.925 54.1614 172.894 53.8315C173.114 53.9414 173.224 53.9414 173.224 53.9414ZM118.232 111.243C118.232 111.353 118.122 111.573 117.902 111.793L110.863 116.852C110.973 116.412 110.973 115.862 111.083 115.422C111.193 114.982 111.193 114.542 111.303 114.102C111.413 113.663 111.413 113.113 111.523 112.783V112.673C111.633 112.453 111.633 112.233 111.743 111.903C111.963 111.133 112.073 110.363 112.403 109.593L113.283 106.954C113.943 104.754 114.603 102.554 115.043 100.355C115.483 102.004 115.923 103.654 116.693 105.194C117.243 106.514 117.572 107.833 117.902 109.263C117.902 109.813 118.012 110.473 118.232 111.243Z" fill="#0055FF"/>
<path d="M212.598 205.829C211.828 205.389 211.169 205.609 210.839 205.719C209.299 206.599 207.759 207.368 206.329 208.358L205.779 208.688C202.59 210.668 199.62 212.428 196.101 212.098H195.441L195.331 212.208C194.341 212.318 193.241 212.428 192.251 212.538C190.492 212.758 188.842 212.868 187.192 213.088C187.082 213.088 186.862 213.088 186.642 213.088C184.883 213.088 183.453 213.088 182.463 213.308C182.353 212.538 182.243 211.878 182.243 211.108C182.023 209.238 181.803 207.368 181.473 205.499C180.483 200.769 180.593 195.6 181.693 189.881C182.243 187.241 182.463 184.602 182.463 182.512C182.463 179.543 182.573 177.013 182.903 174.703C183.123 173.164 183.123 171.624 183.123 170.084C183.123 169.314 183.123 168.654 183.123 167.884C183.123 167.004 183.123 166.235 183.123 165.465C183.123 164.695 183.123 163.925 183.123 163.155C183.123 161.725 183.233 160.185 183.343 158.646C183.453 157.106 183.563 155.566 183.563 154.026C183.563 149.627 184.003 145.338 184.882 141.048C185.212 139.509 185.542 137.969 185.652 136.209C185.652 135.659 185.432 135.109 184.992 134.889C184.223 134.449 183.123 134.559 181.363 135.549C178.723 136.869 173.884 140.498 173.774 142.918C173.554 146.657 173.444 149.517 173.444 152.157C173.444 153.476 173.444 154.686 173.444 155.896C173.444 157.436 173.554 159.086 173.444 160.735C173.114 165.245 172.564 169.864 172.124 174.373L171.904 176.133C171.355 181.192 170.695 186.362 170.915 191.421C170.915 194.5 170.915 197.69 171.684 201.099L171.904 201.869C172.234 203.189 172.674 204.619 172.564 206.049C172.454 210.338 172.894 214.297 173.334 218.147C173.224 218.477 173.224 219.027 173.224 219.467C173.114 221.116 173.224 222.656 173.444 224.306L173.554 225.516C173.664 226.396 174.324 227.165 174.874 227.495C175.644 227.935 176.414 228.375 177.404 228.595C177.624 228.595 177.844 228.705 178.173 228.705C179.163 228.925 180.043 229.145 181.033 229.145C181.253 229.145 181.583 229.145 181.803 229.145C186.972 228.705 191.921 226.616 195.991 224.636L197.091 224.086C199.4 222.986 201.6 221.886 204.02 221.226C206.219 220.566 208.529 219.797 210.839 219.027C212.488 218.367 214.028 217.707 215.788 216.937C216.228 216.717 216.778 216.167 216.888 214.847C216.778 212.538 214.578 207.038 212.598 205.829Z" fill="#0055FF"/>
<path d="M263.191 201.76C261.431 198.02 259.671 194.281 257.801 190.871L254.282 184.052C254.062 183.612 253.732 182.842 253.512 182.292L250.433 170.854C250.213 169.974 249.883 169.204 249.553 168.325C249.003 166.675 248.343 165.135 248.013 163.485C247.463 160.846 247.023 158.206 246.693 155.566C246.473 154.357 246.363 153.257 246.143 152.157C246.143 151.497 246.033 150.947 246.143 150.397C246.583 148.418 246.033 146.658 245.593 144.898C244.933 142.588 244.383 140.059 243.944 137.529C243.834 136.759 243.614 135.989 243.504 135.11C242.954 132.03 242.294 128.73 240.974 125.541C240.754 125.101 240.754 124.441 240.644 123.671C240.644 123.231 240.534 122.791 240.534 122.351C240.204 120.812 239.764 119.272 239.434 117.732L239.104 116.852C238.884 116.192 238.334 115.093 235.805 115.202C234.155 115.202 230.416 115.972 230.086 118.062C230.086 118.502 229.866 118.942 229.646 119.382C229.426 119.822 229.316 120.372 229.096 121.032L228.876 121.801C228.436 123.231 227.996 124.771 227.666 126.311C227.226 129.61 226.896 133.02 226.456 136.429C226.236 138.849 225.906 141.269 225.686 143.688C225.356 145.338 225.026 147.098 224.037 148.747C223.377 149.957 223.047 150.947 222.937 151.717C222.607 154.797 222.277 157.876 222.057 160.846C221.947 162.275 221.507 163.595 221.067 164.695C220.187 166.235 219.967 167.885 220.297 169.424C220.407 170.194 220.297 170.964 220.297 171.624C220.187 172.614 219.967 173.604 219.857 174.484C219.637 176.133 219.307 177.783 219.197 179.433V179.543C219.197 180.203 218.757 183.942 218.427 187.132C217.987 190.871 217.767 193.291 217.767 193.621C217.437 197.69 217.328 201.21 217.547 204.839C217.547 205.169 217.547 205.609 217.437 206.049C217.328 206.489 217.218 206.929 217.218 207.369C216.998 208.908 216.668 210.448 216.778 212.208C216.778 215.068 219.527 218.367 222.277 218.807C222.607 218.917 223.047 218.917 223.377 218.917C225.466 218.917 227.006 217.707 227.556 215.507C227.886 213.968 227.996 212.318 227.996 210.778L228.546 201.76C228.656 200.11 228.656 198.46 228.546 196.92C228.546 196.7 228.546 196.48 228.546 196.26C228.546 196.04 228.546 195.93 228.546 195.93C229.536 193.731 229.536 191.421 229.536 189.111V188.122C229.536 186.912 229.976 186.142 231.075 185.482L233.385 183.612C234.595 182.732 235.805 181.853 236.905 180.863C238.004 179.983 239.214 178.993 240.424 178.223C240.644 178.003 240.974 177.893 241.304 177.783C241.524 178.333 241.854 178.883 242.074 179.433C242.404 180.093 242.734 180.863 243.064 181.413L243.504 182.622C244.823 186.032 246.143 189.551 248.233 192.631C248.343 192.851 248.343 193.071 248.563 193.291C249.003 194.391 249.443 195.49 249.993 196.59C250.982 198.9 251.972 201.32 253.072 203.629C254.062 205.609 255.492 208.029 258.021 209.678C259.451 210.888 260.991 211.218 262.641 210.558C262.971 210.448 263.301 210.448 263.631 210.338C264.071 210.228 264.51 210.228 264.95 210.008C265.94 209.788 266.6 209.238 266.82 208.469C267.04 207.699 266.82 206.709 266.05 206.049C264.84 205.059 263.961 203.409 263.191 201.76ZM238.224 166.675C238.224 166.785 238.114 167.005 237.894 167.225L230.855 172.284C230.965 171.844 230.965 171.294 231.075 170.854C231.185 170.414 231.185 169.974 231.295 169.534C231.405 169.094 231.405 168.545 231.515 168.215V168.105C231.625 167.885 231.625 167.665 231.735 167.335C231.955 166.565 232.065 165.795 232.395 165.025L233.275 162.385C233.935 160.186 234.595 157.986 235.035 155.786C235.475 157.436 235.915 159.086 236.685 160.626C237.235 161.946 237.564 163.265 237.894 164.695C237.894 165.245 238.114 165.905 238.224 166.675Z" fill="#0055FF"/>
<path d="M299.705 153.587C297.836 152.597 296.296 152.487 294.756 153.257C294.316 153.477 293.986 153.697 293.766 153.917C293.546 154.027 293.436 154.136 293.326 154.246L293.216 154.356C292.996 154.576 292.666 154.796 292.337 155.016C291.567 155.566 290.797 156.226 290.357 156.996C289.367 158.426 288.597 160.186 288.157 161.725C287.167 164.475 285.847 166.675 284.308 168.434C282.768 170.194 281.778 171.844 281.228 173.714C280.898 174.923 280.348 175.913 279.798 177.013C279.578 177.453 279.358 177.893 279.138 178.443L278.919 178.663C278.919 178.773 278.809 178.883 278.699 178.993C278.589 179.213 278.369 179.543 278.259 179.873C277.269 181.852 275.729 183.502 273.419 185.042C273.089 185.262 272.979 185.262 272.869 185.262C272.869 185.262 272.649 185.152 272.539 184.932C272.32 184.492 272.1 183.832 271.99 183.172V182.842C271.77 181.412 271.55 179.873 271.55 178.333C271.55 177.013 271.77 175.583 271.88 174.263C271.99 172.834 272.1 171.404 272.21 170.084C272.429 167.115 272.429 164.145 272.539 161.285C272.539 159.856 272.649 158.426 272.649 156.776C272.649 156.556 272.649 156.336 272.649 156.116C272.649 155.896 272.649 155.566 272.649 155.346C272.759 154.576 272.869 153.697 273.089 152.927C273.859 148.747 274.629 144.348 274.739 139.839C274.849 136.649 275.289 133.46 275.729 130.27L275.839 129.06C276.279 125.871 276.829 122.681 277.599 119.052C277.819 117.842 278.039 116.632 278.259 115.532C278.479 114.322 278.699 113.113 278.919 111.903C279.028 111.463 279.029 111.023 279.138 110.583C279.468 107.833 279.908 105.194 281.558 102.994C282.328 102.004 282.878 101.124 283.318 100.245C283.868 99.3647 284.528 99.0347 285.847 99.0347C286.837 99.0347 287.497 99.3647 287.827 100.355C288.157 101.234 288.597 102.004 289.037 102.774C289.477 103.544 289.807 104.204 290.137 104.974C291.017 107.064 292.007 109.263 292.776 111.243C292.886 111.463 292.996 111.683 293.106 111.793C293.876 113.113 295.196 113.553 296.626 112.893C297.946 112.453 298.936 111.463 299.375 109.923C299.925 108.163 300.475 105.964 300.035 103.434C299.265 100.574 298.606 97.9349 297.836 95.2953C297.726 94.8553 297.396 94.4154 297.176 93.9755C297.066 93.7555 296.956 93.6455 296.846 93.4256L296.736 93.3156C296.406 92.8756 296.076 92.3257 295.746 91.7758C295.416 91.2259 295.086 90.676 294.646 90.126C294.096 89.3562 293.326 88.5863 292.556 88.0364C290.797 86.8265 288.817 86.7166 286.837 86.7166L285.188 86.8265L282.218 87.7064C281.668 87.9264 281.228 88.1463 280.898 88.3663L280.788 88.4763C280.348 88.6963 279.798 88.9162 279.248 89.1362C278.259 89.4661 277.269 89.9061 276.389 90.566C273.199 93.3156 270.67 97.165 269.24 101.564C268.69 102.994 268.25 104.534 267.81 106.074C267.26 107.943 266.71 109.923 265.94 111.793C265.061 114.102 264.291 116.852 264.401 119.822C264.401 120.262 264.401 120.811 264.401 121.251L262.971 133.9C262.751 135.989 262.421 138.079 262.201 140.059C261.761 143.028 261.211 146.218 261.211 149.407C261.211 153.587 260.881 157.876 260.551 161.615L259.451 174.044C259.451 174.703 259.341 175.253 259.341 175.913C259.341 177.123 259.231 178.333 259.011 179.433C258.572 182.952 258.132 186.582 258.572 190.211C258.901 192.741 259.891 194.72 261.761 196.15C262.421 196.7 263.191 197.25 264.181 197.36H264.291H264.401C264.841 197.36 265.281 197.47 265.72 197.47C266.16 197.58 266.71 197.69 267.15 197.69C267.48 197.69 267.92 197.69 268.47 197.69C268.8 197.69 269.13 197.69 269.57 197.69L273.969 196.37C274.409 196.26 274.849 196.15 275.399 195.71C276.169 195.27 276.939 194.72 277.709 194.281C279.578 193.181 281.448 191.971 283.208 190.761C285.078 189.441 286.727 187.791 288.267 186.252C288.707 185.812 289.257 185.372 289.697 184.822C290.357 184.162 290.687 183.392 291.017 182.622C291.127 182.402 291.237 182.072 291.457 181.852C291.787 181.302 292.007 180.753 292.227 180.093L292.337 179.653C292.886 178.113 293.546 176.573 294.096 175.253C294.316 174.923 294.426 174.483 294.646 174.154C294.866 173.714 294.976 173.274 295.196 172.944L295.306 172.834C295.526 172.504 295.746 172.174 296.076 171.844C296.516 171.294 296.956 170.854 297.286 170.194C298.166 167.884 298.936 165.575 299.595 163.485L301.135 158.536C302.015 156.776 301.575 154.576 299.705 153.587Z" fill="#0055FF"/>
<path d="M343.809 155.347C343.149 153.037 341.829 153.037 341.279 153.147C340.179 153.367 339.079 153.587 338.199 153.587C336.22 153.587 334.46 153.917 333.03 154.577C332.81 154.687 332.37 154.797 331.93 154.907C331.71 155.017 331.49 155.017 331.27 155.017L330.94 155.127C329.401 155.457 327.971 155.787 326.431 156.227L314.663 159.856C314.663 158.316 314.773 156.667 314.773 155.017C314.773 153.587 314.773 152.267 314.773 150.837C314.883 149.298 314.883 147.868 314.993 146.438C315.103 143.029 315.323 139.619 315.543 136.1C315.543 134.12 315.873 132.03 316.093 129.941L316.203 128.841L316.313 128.731H316.423C317.742 127.961 318.952 127.301 320.382 126.531L320.492 126.421C321.152 125.981 325.881 124.881 329.401 124.111C334.13 123.012 336.99 122.352 337.869 121.912C340.179 120.702 340.179 115.313 339.519 113.553C339.079 112.563 338.309 112.343 337.759 112.563C337.32 112.673 336.99 112.893 336.55 113.003C336.22 113.113 335.89 113.223 335.56 113.333L316.533 116.963C316.533 114.543 316.643 112.013 316.753 109.484C316.863 106.954 316.863 104.424 316.973 101.895C317.193 97.0555 317.413 92.1062 317.852 87.047C317.852 86.937 317.962 86.717 318.072 86.717C318.732 86.2771 319.502 86.0571 320.382 85.7272C321.592 85.2872 324.341 84.6273 326.981 83.9674C329.841 83.3075 332.48 82.6476 333.8 82.0977C334.02 81.9877 334.24 81.9877 334.46 81.8777C335.45 81.6578 336.44 81.3278 337.32 80.6679C340.069 78.4682 340.619 72.6391 339.629 70.7694C339.189 69.8895 338.309 69.6696 337.759 69.8895C336.55 70.2195 333.25 70.8794 329.511 71.6493C310.594 75.4987 307.514 76.7085 307.404 78.5782C307.294 80.008 306.524 92.1062 306.524 93.0961C306.524 93.646 306.524 94.0859 306.634 94.6358C306.744 96.1756 306.854 97.7154 306.634 99.2551C306.194 102.335 306.084 105.524 306.194 108.714L306.304 112.783C306.194 114.653 306.084 116.413 305.974 118.282C305.644 122.792 305.314 127.521 305.094 132.03C304.984 133.35 304.984 134.56 304.874 135.77C304.874 136.98 304.764 138.189 304.654 139.399C304.654 140.389 304.544 141.269 304.434 142.259C304.324 143.249 304.324 144.238 304.214 145.118C304.104 147.098 303.994 149.188 303.994 151.277V152.707C303.885 154.907 303.885 157.107 303.885 159.196V160.186C303.775 175.144 304.104 176.134 304.654 176.684C304.764 176.904 304.984 177.014 305.204 177.124C305.424 177.234 305.644 177.234 305.864 177.234C307.624 177.234 311.033 175.804 318.622 172.174C319.282 171.844 319.722 171.624 319.942 171.514C320.712 171.184 321.592 170.744 322.362 170.305C324.012 169.425 325.771 168.655 327.421 167.995C328.851 167.445 330.391 167.115 332.04 166.785C332.81 166.565 333.69 166.455 334.57 166.235C334.79 166.125 335.01 166.015 335.23 165.905C335.34 165.795 335.56 165.795 335.78 165.685L342.049 162.936C344.578 162.606 344.468 157.766 343.809 155.347Z" fill="#0055FF"/>
</svg>
