<svg width="143" height="70" viewBox="0 0 143 70" fill="none" xmlns="http://www.w3.org/2000/svg">
<path d="M122.741 66.6372C122.681 66.6667 122.652 66.6667 122.593 66.6962C121.911 66.9322 120.875 67.1681 119.483 67.4041C112.137 68.6726 95.1359 70 71.5889 70C45.465 70 25.3538 68.2596 20.9998 66.9617C20.674 66.8732 20.4074 66.7552 20.2889 66.6667L20.2297 66.6372C20.2297 64.4248 43.214 61.9764 71.5889 61.9764C99.0456 61.9764 121.289 64.2478 122.681 66.4012C122.741 66.4897 122.741 66.5782 122.741 66.6372Z" fill="#0000FF"/>
<path d="M122.504 66.4307C122.445 66.4602 122.415 66.4602 122.356 66.4897C121.674 66.7256 120.638 66.9616 119.246 67.1976C111.9 68.4661 94.8989 69.7935 71.3519 69.7935C45.228 69.7935 25.1168 68.0531 20.7628 66.7552C20.437 66.6667 20.1705 66.5487 20.052 66.4602L19.9928 66.4307C19.9928 64.2183 42.977 61.7699 71.3519 61.7699C98.8086 61.7699 121.052 64.0413 122.444 66.1947C122.474 66.2832 122.504 66.3717 122.504 66.4307Z" fill="#0043FF"/>
<path d="M106.924 21.4454H93.1514L71.5 1.74042L49.8486 21.4454H36.0758L0.651611 1.74042L12.5288 40.826L16.3496 53.4513L20.2297 66.6372L20.2889 66.6667C20.437 66.7552 20.674 66.8732 20.9998 66.9617C27.042 66.1947 34.7133 66.2537 43.4805 65.8112C51.9515 65.3687 61.4592 65.1327 71.4704 65.1327C74.9062 65.1327 78.3123 65.1622 81.6 65.2212C81.8962 65.2212 82.222 65.2212 82.5182 65.2212C82.6663 65.2212 82.844 65.2212 82.9921 65.2212C83.7622 65.2507 84.5027 65.2507 85.2728 65.2802C86.6649 65.3097 88.057 65.3392 89.4194 65.3982C89.8341 65.3982 90.2784 65.4277 90.693 65.4277C92.4998 65.4867 94.2769 65.5457 96.0244 65.6342C96.5872 65.6637 97.15 65.6932 97.6831 65.7227C98.2459 65.7522 98.779 65.7817 99.3418 65.8112C100.704 65.8702 102.037 65.9587 103.34 66.0472C103.577 66.0472 103.785 66.0767 104.022 66.0767C105.473 66.1652 106.895 66.2537 108.257 66.3717C108.642 66.4012 108.998 66.4307 109.383 66.4602C109.679 66.4897 109.975 66.4897 110.242 66.5192C110.33 66.5192 110.39 66.5192 110.478 66.5487C111.041 66.6077 111.604 66.6372 112.167 66.6962C112.344 66.6962 112.493 66.7257 112.641 66.7257C113.174 66.7847 113.737 66.8142 114.27 66.8732C114.981 66.9322 115.691 67.0207 116.402 67.0796C116.58 67.1091 116.728 67.1091 116.906 67.1386C117.794 67.2271 118.653 67.3156 119.483 67.4336C120.875 67.1976 121.941 66.9617 122.593 66.7257C122.652 66.6962 122.681 66.6962 122.741 66.6667L122.681 66.4602L126.621 53.4808L130.471 40.8555L142.319 1.74042L106.924 21.4454Z" fill="#0000FF"/>
<path d="M107.25 19.882H93.3587L71.5 0L49.6413 19.882H35.75L0 0L11.966 39.4395L15.8461 52.1829L20.2297 66.6372C26.3608 65.8112 34.2098 65.1327 43.2436 64.6903C51.8034 64.2478 61.3703 64.0118 71.5 64.0118C74.9654 64.0118 78.4012 64.0413 81.7185 64.1003C82.0443 64.1003 82.3405 64.1003 82.6663 64.1003C82.8144 64.1003 82.9921 64.1003 83.1402 64.1003C83.9103 64.1003 84.6804 64.1298 85.4209 64.1593C86.8426 64.1888 88.2347 64.2183 89.5971 64.2773C90.0414 64.2773 90.4561 64.3068 90.9004 64.3068C92.7367 64.3658 94.5139 64.4248 96.2614 64.5133C96.8242 64.5428 97.3869 64.5723 97.9497 64.6018C98.5124 64.6313 99.0752 64.6608 99.6083 64.6903C100.971 64.7493 102.333 64.8378 103.636 64.9263C103.873 64.9263 104.081 64.9557 104.318 64.9557C105.769 65.0442 107.191 65.1327 108.583 65.2507C108.968 65.2802 109.353 65.3097 109.708 65.3392C110.005 65.3687 110.301 65.3982 110.597 65.3982C110.686 65.3982 110.775 65.4277 110.834 65.4277C111.426 65.4867 111.989 65.5162 112.552 65.5752C112.7 65.5752 112.878 65.6047 113.026 65.6047C113.588 65.6637 114.122 65.6932 114.655 65.7522C115.395 65.8112 116.106 65.8997 116.787 65.9587C116.965 65.9882 117.113 65.9882 117.291 66.0177C118.564 66.1652 119.808 66.2832 120.993 66.4307C121.289 66.4602 121.556 66.4897 121.852 66.5487C122.148 66.5782 122.444 66.6372 122.741 66.6667L127.124 52.2124L131.004 39.469L143 0L107.25 19.882Z" fill="#0055FF"/>
<path d="M83.1402 64.1003C82.9921 64.1003 82.8144 64.1003 82.6663 64.1003C82.3405 64.1003 82.0443 64.1003 81.7185 64.1003C78.4012 64.0413 74.9654 64.0118 71.5 64.0118V0L93.3588 19.882C96.0245 43.0383 83.1402 64.1003 83.1402 64.1003Z" fill="#2C7DFF"/>
<path d="M43.2436 64.6903C34.2394 65.1622 26.3608 65.8112 20.2297 66.6372L15.8461 52.1829L11.966 39.4395L0 0L35.75 19.882C31.3368 49.174 43.2436 64.6903 43.2436 64.6903Z" fill="#2C7DFF"/>
<path d="M143 0L131.004 39.4395L127.124 52.1829L122.741 66.6372C122.444 66.6077 122.148 66.5487 121.852 66.5192C121.586 66.4897 121.289 66.4602 120.993 66.4012C119.808 66.2537 118.594 66.1062 117.291 65.9882C117.113 65.9587 116.965 65.9587 116.787 65.9292C116.106 65.8702 115.366 65.7817 114.655 65.7227C114.122 65.6637 113.588 65.6342 113.026 65.5752C112.878 65.5752 112.7 65.5457 112.552 65.5457C111.989 65.4867 111.426 65.4572 110.834 65.3982C110.745 65.3982 110.686 65.3982 110.597 65.3687C110.627 65.3687 128.813 34.1003 143 0Z" fill="#2C7DFF"/>
<path d="M71.5 53.2448C76.1948 53.2448 80.0006 49.4544 80.0006 44.7788C80.0006 40.1031 76.1948 36.3127 71.5 36.3127C66.8052 36.3127 62.9994 40.1031 62.9994 44.7788C62.9994 49.4544 66.8052 53.2448 71.5 53.2448Z" fill="#0043FF"/>
<path d="M71.5 53.2154C66.8202 53.2154 62.9994 49.4395 62.9994 44.7493C62.9994 40.059 66.7906 36.2832 71.5 36.2832C68.5085 39.9115 67.2349 47.9056 71.5 53.2154Z" fill="#0000FF"/>
<path d="M130.618 46.9638C132.031 42.5051 132.368 38.636 131.37 38.3221C130.371 38.0081 128.416 41.3682 127.003 45.8269C125.589 50.2856 125.252 54.1547 126.251 54.4686C127.249 54.7825 129.204 51.4225 130.618 46.9638Z" fill="#0043FF"/>
<path d="M16.6573 54.4718C17.6557 54.1578 17.319 50.2888 15.9054 45.8301C14.4919 41.3714 12.5366 38.0113 11.5383 38.3253C10.5399 38.6392 10.8765 42.5083 12.2901 46.967C13.7037 51.4257 15.659 54.7857 16.6573 54.4718Z" fill="#0043FF"/>
<path d="M76.5648 43.3038C76.2983 43.4218 75.9725 43.3628 75.5874 43.1563C75.2024 42.9204 74.8173 42.5369 74.4619 42.0354C74.0472 41.4454 73.7214 40.7375 73.5733 40.0885C73.4252 39.4395 73.4549 38.879 73.6622 38.5546C73.751 38.4366 73.8399 38.3481 73.9584 38.2891C74.2249 38.1711 74.5508 38.2301 74.9358 38.4366C75.3208 38.6726 75.7059 39.056 76.0613 39.5575C76.476 40.1475 76.8018 40.8555 76.9499 41.5044C77.098 42.1534 77.0684 42.7139 76.861 43.0383C76.8018 43.1563 76.6833 43.2448 76.5648 43.3038Z" fill="#2C7DFF"/>
<path d="M130.619 43.0678C130.471 43.0678 130.323 42.9498 130.205 42.7433C130.086 42.5369 129.997 42.2714 129.938 41.9469C129.879 41.5634 129.908 41.1504 129.997 40.7964C130.086 40.4425 130.234 40.177 130.442 40.0885C130.501 40.059 130.59 40.0295 130.649 40.0295C130.797 40.0295 130.945 40.1475 131.064 40.354C131.182 40.5605 131.271 40.8259 131.33 41.1504C131.389 41.5339 131.36 41.9469 131.271 42.3009C131.182 42.6548 131.034 42.9203 130.827 43.0088C130.767 43.0383 130.679 43.0678 130.619 43.0678Z" fill="#2C7DFF"/>
<path d="M12.3215 43.0383C12.1734 43.0678 11.9957 42.9499 11.8476 42.7729C11.6995 42.5959 11.581 42.3304 11.4921 42.0059C11.3737 41.6224 11.344 41.2094 11.4033 40.8555C11.4329 40.5015 11.5514 40.2065 11.7291 40.0885C11.7883 40.0295 11.8476 40 11.9364 40C12.0845 39.9705 12.2622 40.0885 12.4103 40.2655C12.5584 40.4425 12.6769 40.708 12.7657 41.0325C12.8842 41.4159 12.9138 41.8289 12.8546 42.1829C12.825 42.5369 12.7065 42.8319 12.5288 42.9499C12.4696 43.0089 12.3807 43.0383 12.3215 43.0383Z" fill="#2C7DFF"/>
</svg>
