<svg width="87" height="131" viewBox="0 0 87 131" fill="none" xmlns="http://www.w3.org/2000/svg">
<path d="M82.2564 131H77.0515L49.7096 42.5115H54.9144L82.2564 131Z" fill="#0000FF"/>
<path d="M54.9144 21.4868L8.3014 131H0L46.613 21.4868H54.9144Z" fill="#0055FF"/>
<path d="M54.9144 21.4868L8.30139 131H6.39075L53.0367 21.4868H54.9144Z" fill="#0043FF"/>
<path d="M71.1219 131H62.8205L46.613 21.4868H54.9144L71.1219 131Z" fill="#0055FF"/>
<path d="M71.1219 131H69.376L51.5214 21.4868H54.9144L71.1219 131Z" fill="#0043FF"/>
<path d="M78.2045 94.1985L5.10602 91.5581L3.68951 90.6009L13.9016 0.957153L85.6164 2.64045L87 3.59762L78.2045 94.1985Z" fill="#0043FF"/>
<path d="M85.6164 2.64046L76.8209 93.2414L48.5896 92.2182L3.68951 90.6009L12.485 0L23.1583 0.39607L85.6164 2.64046Z" fill="#0055FF"/>
<path d="M85.6164 2.64045L76.8209 93.2413L48.5895 92.2181L23.1583 0.396057L85.6164 2.64045Z" fill="#2C7DFF"/>
</svg>
