<svg width="157" height="129" viewBox="0 0 157 129" fill="none" xmlns="http://www.w3.org/2000/svg">
<path d="M104.503 87.6782C104.503 87.6232 104.503 87.5957 104.503 87.5406C104.503 87.4856 104.503 87.4581 104.476 87.4031V87.3756C104.476 87.3205 104.448 87.293 104.448 87.238V87.2105C104.448 87.1555 104.421 87.1005 104.421 87.0729C104.393 87.0179 104.393 86.9629 104.393 86.9354V86.9079C104.366 86.8529 104.366 86.8253 104.338 86.7703V86.7428C104.31 86.6878 104.31 86.6328 104.283 86.5777L81 28.0064C80.9724 27.9514 80.9448 27.8964 80.9173 27.8413C80.9173 27.8138 80.8897 27.8138 80.8897 27.7863C80.8621 27.7313 80.8621 27.7038 80.8345 27.6488C80.8345 27.6488 80.8345 27.6212 80.8069 27.6212C80.8069 27.6212 80.8069 27.6212 80.8069 27.5937C80.8069 27.5662 80.7793 27.5662 80.7793 27.5662C80.7517 27.5387 80.7517 27.5112 80.7242 27.4837C80.7242 27.4562 80.6966 27.4562 80.6966 27.4562C80.669 27.4287 80.669 27.4012 80.6414 27.3736L80.6138 27.3461C80.5862 27.3186 80.5586 27.2636 80.5311 27.2361C80.5311 27.2361 80.5311 27.2361 80.5311 27.2086C80.5035 27.1811 80.4759 27.1536 80.4759 27.126C80.4759 27.0985 80.4483 27.0985 80.4483 27.0985C80.4207 27.071 80.4207 27.0435 80.3931 27.016C80.3931 26.9885 80.3655 26.9885 80.3655 26.9885C80.338 26.961 80.338 26.9335 80.3104 26.906L80.2828 26.8784C80.2552 26.8509 80.2276 26.8234 80.2 26.7959C80.1724 26.7684 80.1448 26.7409 80.1173 26.7134L80.0897 26.6859C80.0621 26.6584 80.0621 26.6308 80.0345 26.6308L80.0069 26.6033C79.9793 26.5758 79.9793 26.5758 79.9517 26.5483L79.9242 26.5208C79.8966 26.4933 79.869 26.4933 79.8414 26.4658L79.8138 26.4383C79.7862 26.4108 79.7586 26.3832 79.7035 26.3557C79.6759 26.3282 79.6483 26.3007 79.6207 26.2732L79.5931 26.2457C79.5655 26.2182 79.5379 26.2182 79.5104 26.1907C79.4828 26.1907 79.4828 26.1632 79.4828 26.1632C79.4552 26.1356 79.4276 26.1356 79.4 26.1081C79.3724 26.1081 79.3724 26.0806 79.3724 26.0806C79.3448 26.0531 79.3173 26.0531 79.2897 26.0256L79.2621 25.9981C79.2345 25.9706 79.1793 25.9706 79.1517 25.9431C79.1242 25.9156 79.0966 25.9156 79.0414 25.888C79.0414 25.888 79.0138 25.888 79.0138 25.8605C78.9862 25.833 78.9586 25.833 78.9311 25.833C78.9035 25.833 78.9035 25.8055 78.9035 25.8055C78.9035 25.8055 78.8759 25.8055 78.8759 25.778H78.8483C78.8207 25.778 78.7931 25.7505 78.7655 25.7505C78.7379 25.7505 78.738 25.723 78.7104 25.723C78.6828 25.723 78.6552 25.6955 78.6276 25.6955C78.6 25.6955 78.6 25.6955 78.6 25.668C78.5724 25.6404 78.5173 25.6404 78.4621 25.6404H78.4345C78.4069 25.6404 78.3517 25.6129 78.3242 25.6129C78.2966 25.6129 78.2966 25.6129 78.269 25.6129C78.2414 25.6129 78.2138 25.6129 78.1862 25.5854C78.1586 25.5854 78.1586 25.5854 78.1311 25.5854C78.1035 25.5854 78.0759 25.5854 78.0483 25.5854C78.0207 25.5854 78.0207 25.5854 77.9931 25.5854C77.9655 25.5854 77.9379 25.5854 77.9104 25.5854C77.8828 25.5854 77.8828 25.5854 77.8828 25.5854C77.8552 25.5854 77.8 25.5854 77.7449 25.5854L6.32414 32.6558C6.02069 32.6833 5.77241 32.7934 5.55172 32.9309C5 33.3436 4.36551 33.8388 3.70345 34.334L3.48276 34.5266C3.20689 34.7191 2.95862 34.9392 2.68276 35.1318L1.57931 35.9571C1.55172 35.9847 1.55172 35.9846 1.52413 36.0122C1.52413 36.0122 1.49655 36.0122 1.49655 36.0397C1.46896 36.0672 1.46896 36.0672 1.46896 36.0672L1.44138 36.0947C1.41379 36.1222 1.41379 36.1222 1.41379 36.1222L1.3862 36.1497C1.3862 36.1772 1.35862 36.1772 1.35862 36.1772L1.33103 36.2047C1.33103 36.2323 1.30345 36.2323 1.30345 36.2598C1.30345 36.2598 1.30345 36.2873 1.27586 36.2873C1.24827 36.3148 1.24827 36.3423 1.22069 36.3698C1.1931 36.3973 1.1931 36.4248 1.1931 36.4523C1.1931 36.4523 1.1931 36.4799 1.16551 36.4799C1.16551 36.5074 1.13793 36.5074 1.13793 36.5349C1.13793 36.5349 1.13793 36.5624 1.11034 36.5624C1.11034 36.5899 1.08276 36.5899 1.08276 36.6174C1.08276 36.6174 1.08276 36.6449 1.05517 36.6449C1.05517 36.6724 1.02758 36.6724 1.02758 36.6999V36.7275C1.02758 36.755 0.999997 36.755 0.999997 36.7825V36.81C0.999997 36.8375 0.97241 36.865 0.97241 36.8925C0.97241 36.92 0.944824 36.9475 0.944824 36.9751V37.0026C0.944824 37.0301 0.944824 37.0301 0.944824 37.0576C0.944824 37.0851 0.944824 37.0851 0.944824 37.0851C0.944824 37.1126 0.944824 37.1126 0.944824 37.1401C0.944824 37.1676 0.944824 37.1676 0.944824 37.1676C0.944824 37.1951 0.944824 37.1951 0.944824 37.2227V37.2502C0.944824 37.2777 0.944824 37.3327 0.944824 37.3877V37.4152C0.944824 37.4703 0.944824 37.4978 0.944824 37.5528C0.944824 37.6078 0.944824 37.6353 0.97241 37.6903V37.7179C0.97241 37.7729 0.999997 37.8004 0.999997 37.8554V37.8829C0.999997 37.9379 1.02758 37.993 1.02758 38.0205C1.02758 38.0755 1.05517 38.1305 1.05517 38.158V38.1855C1.08276 38.2406 1.08276 38.2681 1.11034 38.3231V38.3506C1.13793 38.4056 1.13793 38.4607 1.16551 38.5157L24.5034 97.1145C24.531 97.1696 24.5586 97.2246 24.5862 97.2796C24.5862 97.3071 24.6138 97.3071 24.6138 97.3346C24.6414 97.3896 24.6414 97.4172 24.669 97.4722C24.669 97.4722 24.669 97.4997 24.6966 97.4997C24.6966 97.4997 24.6966 97.4997 24.6966 97.5272C24.6966 97.5547 24.7241 97.5547 24.7241 97.5547C24.7517 97.5822 24.7517 97.6097 24.7793 97.6372C24.7793 97.6648 24.8069 97.6648 24.8069 97.6648C24.8345 97.6923 24.8345 97.7198 24.8621 97.7473L24.8897 97.7748C24.9172 97.8023 24.9448 97.8573 24.9724 97.8848C24.9724 97.8848 24.9724 97.8848 24.9724 97.9124C25 97.9399 25.0276 97.9674 25.0276 97.9949L25.0552 98.0224C25.0828 98.0499 25.0828 98.0774 25.1103 98.1049C25.1103 98.1324 25.1379 98.1324 25.1379 98.1324C25.1655 98.16 25.1655 98.1875 25.1931 98.215L25.2207 98.2425C25.2483 98.27 25.2759 98.2975 25.3034 98.325C25.331 98.3525 25.3586 98.3801 25.3862 98.4076L25.4138 98.4351C25.4414 98.4626 25.4414 98.4626 25.469 98.4901C25.469 98.5176 25.4966 98.5176 25.4966 98.5176C25.5241 98.5451 25.5241 98.5451 25.5517 98.5726L25.5793 98.6001C25.6069 98.6276 25.6345 98.6276 25.6621 98.6552L25.6897 98.6827C25.7172 98.7102 25.7448 98.7377 25.8 98.7652C25.8276 98.7927 25.8552 98.8202 25.8828 98.8477L25.9103 98.8752C25.9379 98.9028 25.9655 98.9028 25.9931 98.9303C26.0207 98.9303 26.0207 98.9578 26.0207 98.9578C26.0483 98.9853 26.0759 98.9853 26.1034 99.0128C26.131 99.0128 26.131 99.0403 26.131 99.0403C26.1586 99.0678 26.1862 99.0678 26.2138 99.0953L26.2414 99.1228C26.269 99.1504 26.3241 99.1504 26.3517 99.1779C26.3793 99.2054 26.4069 99.2054 26.4345 99.2329C26.4345 99.2329 26.4621 99.2329 26.4621 99.2604C26.4897 99.2604 26.5172 99.2879 26.5448 99.2879C26.5724 99.2879 26.5724 99.3154 26.5724 99.3154C26.5724 99.3154 26.6 99.3154 26.6 99.3429H26.6276C26.6552 99.3429 26.6828 99.3705 26.7103 99.3705C26.7379 99.3705 26.7379 99.398 26.7655 99.398C26.7931 99.398 26.8207 99.4255 26.8483 99.4255C26.8759 99.4255 26.8759 99.4255 26.8759 99.453C26.931 99.4805 26.9586 99.4805 27.0138 99.4805H27.0414C27.069 99.4805 27.1241 99.508 27.1517 99.508C27.1793 99.508 27.1793 99.508 27.2069 99.508C27.2345 99.508 27.2621 99.508 27.2897 99.5355C27.3172 99.5355 27.3172 99.5355 27.3448 99.5355C27.3724 99.5355 27.4 99.5355 27.4276 99.5355C27.4552 99.5355 27.4552 99.5355 27.4828 99.5355C27.5103 99.5355 27.5379 99.5355 27.5655 99.5355C27.5931 99.5355 27.5931 99.5355 27.5931 99.5355C27.6207 99.5355 27.6759 99.5355 27.731 99.5355L99.1242 92.4101C99.4276 92.3826 99.6759 92.2726 99.869 92.135C100.2 91.8874 100.586 91.5848 100.972 91.3097L101.772 90.7044C101.855 90.6494 101.91 90.5944 101.993 90.5394L103.841 89.1363C103.869 89.1088 103.869 89.1088 103.897 89.0813L103.924 89.0538C103.952 89.0262 103.952 89.0262 103.952 89.0262L103.979 88.9987C104.007 88.9712 104.007 88.9712 104.007 88.9712L104.035 88.9437C104.035 88.9162 104.062 88.9162 104.062 88.9162L104.09 88.8887C104.09 88.8612 104.117 88.8612 104.117 88.8337C104.117 88.8337 104.117 88.8061 104.145 88.8061C104.172 88.7786 104.172 88.7511 104.2 88.7236C104.228 88.6961 104.228 88.6686 104.228 88.6411C104.228 88.6411 104.228 88.6136 104.255 88.6136C104.255 88.5861 104.283 88.5861 104.283 88.5585C104.283 88.5585 104.283 88.531 104.31 88.531C104.31 88.5035 104.338 88.5035 104.338 88.476C104.338 88.476 104.338 88.4485 104.366 88.4485C104.366 88.421 104.393 88.421 104.393 88.3935V88.366C104.393 88.3385 104.421 88.3385 104.421 88.3109V88.2834C104.421 88.2559 104.448 88.2284 104.448 88.2009C104.448 88.1734 104.476 88.1459 104.476 88.1184V88.0909C104.476 88.0634 104.476 88.0633 104.476 88.0358C104.476 88.0083 104.476 88.0083 104.476 88.0083C104.476 87.9808 104.476 87.9808 104.476 87.9533C104.476 87.9258 104.476 87.9258 104.476 87.9258C104.476 87.8983 104.476 87.8983 104.476 87.8708V87.8433C104.503 87.7607 104.503 87.7057 104.503 87.6782ZM31.7586 96.5643C31.731 96.5643 31.6759 96.5643 31.6207 96.5643C31.5931 96.5643 31.5931 96.5643 31.5931 96.5643C31.5655 96.5643 31.5379 96.5643 31.5103 96.5643C31.4828 96.5643 31.4828 96.5643 31.4552 96.5643C31.4276 96.5643 31.4 96.5643 31.3724 96.5643C31.3448 96.5643 31.3448 96.5643 31.3172 96.5643C31.2897 96.5643 31.2621 96.5643 31.2345 96.5368C31.2069 96.5368 31.2069 96.5368 31.1793 96.5368C31.1517 96.5368 31.0966 96.5093 31.069 96.5093H31.0414C31.0138 96.5093 30.9586 96.4818 30.9035 96.4818C30.8759 96.4818 30.8759 96.4818 30.8759 96.4543C30.8483 96.4543 30.8207 96.4268 30.7931 96.4268C30.7655 96.4268 30.7655 96.4268 30.7379 96.3992C30.7103 96.3992 30.6828 96.3717 30.6552 96.3717C30.6276 96.3717 30.6276 96.3442 30.6 96.3442C30.5724 96.3442 30.5724 96.3167 30.5724 96.3167C30.5448 96.3167 30.5172 96.2892 30.4897 96.2892C30.4621 96.2892 30.4621 96.2892 30.4621 96.2617C30.4345 96.2342 30.4069 96.2342 30.3793 96.2067C30.3517 96.1792 30.2966 96.1792 30.269 96.1516L30.2414 96.1241C30.2138 96.0966 30.1862 96.0966 30.1586 96.0691C30.131 96.0691 30.131 96.0416 30.131 96.0416C30.1035 96.0141 30.0759 96.0141 30.0483 95.9866C30.0207 95.9866 30.0207 95.9591 30.0207 95.9591C29.9931 95.9315 29.9655 95.9315 29.9379 95.904L29.9103 95.8765C29.8828 95.849 29.8552 95.8215 29.8276 95.794C29.8 95.7665 29.7724 95.739 29.7172 95.7115L29.6897 95.6839C29.6621 95.6564 29.6345 95.6564 29.6069 95.6289C29.5793 95.6289 29.5793 95.6014 29.5793 95.6014C29.5517 95.5739 29.5517 95.5739 29.5241 95.5464C29.4966 95.5464 29.4966 95.5189 29.4966 95.5189C29.469 95.4914 29.469 95.4914 29.4414 95.4639L29.4138 95.4363C29.3862 95.4088 29.3586 95.3813 29.331 95.3538C29.3034 95.3263 29.2759 95.2713 29.2483 95.2438L29.2207 95.2163C29.1931 95.1888 29.1931 95.1612 29.1655 95.1337C29.1655 95.1062 29.1379 95.1062 29.1379 95.1062C29.1103 95.0787 29.1103 95.0512 29.0828 95.0237C29.0828 94.9962 29.0552 94.9962 29.0552 94.9962C29.0276 94.9687 29 94.9411 29 94.9136C29 94.9136 29 94.9136 29 94.8861C28.9724 94.8586 28.9448 94.8036 28.9172 94.7761L28.8897 94.7486C28.8621 94.7211 28.8621 94.6936 28.8345 94.666C28.8345 94.6385 28.8069 94.6385 28.8069 94.6385C28.7793 94.611 28.7793 94.5835 28.7517 94.556C28.7517 94.5285 28.7241 94.5285 28.7241 94.5285C28.7241 94.501 28.6966 94.501 28.6966 94.4735C28.669 94.4459 28.669 94.3909 28.6414 94.3359C28.6414 94.3084 28.6138 94.3084 28.6138 94.2809C28.5862 94.2259 28.5586 94.1708 28.531 94.1158L5.22069 35.572C5.1931 35.517 5.1931 35.4619 5.16551 35.4069C5.16551 35.4069 5.16551 35.4069 5.16551 35.3794L73.7724 28.5291C73.8 28.5291 73.8552 28.5291 73.9104 28.5291C73.9379 28.5291 73.9379 28.5291 73.9379 28.5291C73.9655 28.5291 73.9931 28.5291 74.0207 28.5291C74.0483 28.5291 74.0483 28.5291 74.0759 28.5291C74.1035 28.5291 74.1311 28.5291 74.1586 28.5291C74.1862 28.5291 74.1862 28.5291 74.2138 28.5291C74.2414 28.5291 74.269 28.5291 74.2966 28.5566C74.3242 28.5566 74.3242 28.5566 74.3517 28.5566C74.3793 28.5566 74.4345 28.5841 74.4621 28.5841H74.4897C74.5448 28.5841 74.5724 28.6117 74.6276 28.6117C74.6552 28.6117 74.6552 28.6116 74.6552 28.6392C74.6828 28.6392 74.7104 28.6667 74.7379 28.6667C74.7655 28.6667 74.7655 28.6667 74.7931 28.6942C74.8207 28.6942 74.8483 28.7217 74.8759 28.7217C74.9035 28.7217 74.9035 28.7492 74.9311 28.7492C74.9586 28.7492 74.9586 28.7767 74.9586 28.7767C74.9862 28.7767 75.0138 28.8042 75.0414 28.8042C75.0414 28.8042 75.069 28.8042 75.069 28.8317C75.0966 28.8593 75.1242 28.8593 75.1793 28.8868C75.2069 28.9143 75.2621 28.9143 75.2897 28.9418L75.3173 28.9693C75.3448 28.9968 75.3724 28.9968 75.4 29.0243C75.4276 29.0243 75.4276 29.0518 75.4276 29.0518C75.4552 29.0793 75.4828 29.0793 75.5104 29.1069C75.5379 29.1069 75.5379 29.1344 75.5379 29.1344C75.5655 29.1619 75.5931 29.1619 75.6207 29.1894L75.6483 29.2169C75.6759 29.2444 75.7035 29.2719 75.731 29.2994C75.7586 29.3269 75.7862 29.3545 75.8414 29.382L75.869 29.4095C75.8966 29.437 75.9242 29.437 75.9517 29.4645C75.9793 29.4645 75.9793 29.492 75.9793 29.492C76.0069 29.5195 76.0069 29.5195 76.0345 29.547L76.0621 29.5745C76.0897 29.6021 76.0897 29.6021 76.1173 29.6296L76.1448 29.6571C76.1724 29.6846 76.2 29.7121 76.2276 29.7396C76.2552 29.7671 76.2828 29.8221 76.3104 29.8497L76.338 29.8772C76.3655 29.9047 76.3655 29.9322 76.3931 29.9597C76.3931 29.9872 76.4207 29.9872 76.4207 29.9872C76.4483 30.0147 76.4483 30.0422 76.4759 30.0697L76.5035 30.0973C76.5311 30.1248 76.5586 30.1523 76.5586 30.1798C76.5586 30.1798 76.5586 30.1798 76.5586 30.2073C76.5862 30.2348 76.6138 30.2898 76.6414 30.3173L76.669 30.3449C76.6966 30.3724 76.6966 30.3999 76.7242 30.4274C76.7242 30.4549 76.7517 30.4549 76.7517 30.4549C76.7793 30.4824 76.7793 30.5099 76.8069 30.5374C76.8069 30.5649 76.8345 30.5649 76.8345 30.5649C76.8345 30.5925 76.8621 30.5925 76.8621 30.62C76.8897 30.6475 76.8897 30.7025 76.9173 30.7575C76.9173 30.785 76.9448 30.785 76.9448 30.8125C76.9724 30.8676 77 30.9226 77.0276 30.9776L100.31 89.5214C100.338 89.5765 100.338 89.6315 100.366 89.6865C100.366 89.6865 100.366 89.6865 100.366 89.714L31.7586 96.5643Z" fill="#0043FF"/>
<path d="M77.3862 52.6289L60.3103 54.3346L64.2828 51.3359L81.3587 49.6302L77.3862 52.6289Z" fill="#0000FF"/>
<path d="M76.0345 71.5291L77.3862 52.6014L81.3587 49.6027L80.0069 68.5304L76.0345 71.5291Z" fill="#0043FF"/>
<path d="M60.3103 54.3346L64.2828 51.3359L80.0069 68.5579L76.0345 71.5291L60.3103 54.3346Z" fill="#9A812A"/>
<path d="M54.9862 54.2521L39.3724 55.8202L43.3448 52.8215L58.9586 51.2534L54.9862 54.2521Z" fill="#0000FF"/>
<path d="M40.5862 71.6667C40.6138 71.6391 40.669 71.5841 40.6965 71.5566C40.6965 71.5291 40.7241 71.5291 40.7241 71.5291C40.7517 71.5016 40.7517 71.4741 40.7793 71.4466C40.8069 71.4191 40.8069 71.4191 40.8069 71.3915C40.8345 71.364 40.8345 71.3365 40.8621 71.309C40.8897 71.2815 40.8897 71.2815 40.8897 71.254C40.9172 71.2265 40.9172 71.199 40.9448 71.1715C40.9448 71.1439 40.9724 71.1439 40.9724 71.1164C41 71.0889 41 71.0614 41.0276 71.0339C41.0276 71.0064 41.0552 71.0064 41.0552 71.0064C41.0828 70.9789 41.1103 70.9239 41.1379 70.8688C41.1655 70.8413 41.1931 70.7863 41.2207 70.7313C41.2207 70.7038 41.2483 70.7038 41.2483 70.6763C41.2759 70.6487 41.2759 70.6212 41.3034 70.5937C41.3034 70.5662 41.331 70.5662 41.331 70.5387C41.3586 70.5112 41.3586 70.4837 41.3862 70.4562C41.3862 70.4287 41.4138 70.4286 41.4138 70.4011C41.4414 70.3736 41.4414 70.3461 41.4414 70.3186C41.4414 70.2911 41.469 70.2911 41.469 70.2636C41.4965 70.2361 41.4965 70.2086 41.5241 70.1811C41.5241 70.1535 41.5517 70.1535 41.5517 70.126C41.5793 70.071 41.5793 70.0435 41.6069 69.9885C41.6069 69.9885 41.6069 69.9885 41.6069 69.961C41.6345 69.9059 41.6345 69.8784 41.6621 69.8234C41.6621 69.7959 41.6897 69.7959 41.6897 69.7684C41.7172 69.7409 41.7172 69.6858 41.7172 69.6583C41.7172 69.6308 41.7448 69.6308 41.7448 69.6033C41.7448 69.5758 41.7724 69.5483 41.7724 69.5208C41.7724 69.4933 41.8 69.4933 41.8 69.4658C41.8 69.4382 41.8276 69.4107 41.8276 69.3557C41.8276 69.3282 41.8276 69.3282 41.8552 69.3007C41.8552 69.2732 41.8828 69.2182 41.8828 69.1906C41.8828 69.1631 41.8828 69.1631 41.9103 69.1356C41.9379 69.0806 41.9379 69.0256 41.9379 68.9706C41.9379 68.9706 41.9379 68.9706 41.9379 68.943C41.9379 68.888 41.9655 68.8605 41.9655 68.8055C41.9655 68.778 41.9655 68.778 41.9655 68.7505C41.9655 68.723 41.9931 68.6679 41.9931 68.6404C41.9931 68.6129 41.9931 68.6129 41.9931 68.5854C41.9931 68.5579 42.0207 68.5029 42.0207 68.4754C42.0207 68.4478 42.0207 68.4203 42.0207 68.4203C42.0207 68.3928 42.0207 68.3378 42.0483 68.3103C42.0483 68.2828 42.0483 68.2828 42.0483 68.2553C42.0483 68.2278 42.0483 68.1727 42.0759 68.1452C42.0759 68.1177 42.0759 68.1177 42.0759 68.0902C42.0759 68.0352 42.1034 67.9802 42.1034 67.9251V67.8976C42.1034 67.8426 42.1034 67.7876 42.131 67.7326C42.131 67.705 42.131 67.705 42.131 67.6775C42.131 67.65 42.131 67.595 42.131 67.5675V67.54V67.5125C42.131 67.4299 42.131 67.3474 42.131 67.2649C42.131 67.1823 42.131 67.0998 42.131 67.0173C42.131 66.9898 42.131 66.9897 42.131 66.9622C42.131 66.8797 42.131 66.7972 42.131 66.7146C42.131 66.6871 42.131 66.6871 42.131 66.6596C42.131 66.5771 42.131 66.4945 42.1034 66.3845C42.1034 66.302 42.0759 66.2194 42.0759 66.1094C42.0759 66.0819 42.0759 66.0819 42.0759 66.0544C42.0759 65.9718 42.0483 65.8893 42.0483 65.8068C42.0483 65.7793 42.0483 65.7793 42.0483 65.7517C42.0483 65.6692 42.0207 65.5592 42.0207 65.4766C41.9931 65.3941 41.9931 65.2841 41.9655 65.2015C41.9655 65.174 41.9655 65.174 41.9655 65.1465C41.9379 65.064 41.9379 64.9814 41.9103 64.8714C41.9103 64.8439 41.9103 64.8439 41.9103 64.8164C41.8828 64.7338 41.8828 64.6238 41.8552 64.5413C41.8276 64.4587 41.8 64.3487 41.7724 64.2661C41.7724 64.2386 41.7724 64.2386 41.7448 64.2111C41.7172 64.1286 41.6897 64.0185 41.6621 63.936C41.6621 63.9085 41.6621 63.9085 41.6345 63.881C41.6069 63.7985 41.5793 63.6884 41.5517 63.6059C41.5241 63.5233 41.4965 63.4133 41.469 63.3308C41.469 63.3032 41.469 63.3032 41.4414 63.2757C41.4138 63.1932 41.3862 63.0832 41.331 63.0006C41.331 62.9731 41.3034 62.9731 41.3034 62.9456C41.2759 62.8631 41.2207 62.753 41.1931 62.643C41.1655 62.5329 41.1103 62.4229 41.0552 62.3128C41.0276 62.2853 41.0276 62.2578 41.0276 62.2303C41 62.1478 40.9448 62.0652 40.9172 61.9827C40.9172 61.9552 40.8897 61.9277 40.8897 61.9002C40.8345 61.7901 40.8069 61.7076 40.7517 61.5976C40.7517 61.57 40.7241 61.57 40.7241 61.5425C40.6966 61.46 40.6414 61.3775 40.5862 61.2949C40.5862 61.2674 40.5586 61.2674 40.5586 61.2399C40.5586 61.2124 40.531 61.1849 40.531 61.1574C40.5034 61.1299 40.5034 61.1024 40.5034 61.0748C40.4759 61.0198 40.4483 60.9648 40.4207 60.9098C40.4207 60.8823 40.3931 60.8823 40.3931 60.8548C40.3655 60.7722 40.3103 60.7172 40.2552 60.6347C40.2552 60.6072 40.2276 60.6072 40.2276 60.6072C40.2 60.5521 40.1448 60.4971 40.1172 60.4421C40.0897 60.4146 40.0897 60.3871 40.0897 60.3595C40.0621 60.3045 40.0345 60.277 40.0069 60.222C39.9793 60.1945 39.9793 60.167 39.9517 60.1395C39.9241 60.0844 39.8966 60.0294 39.8414 59.9744C39.8414 59.9469 39.8138 59.9469 39.8138 59.9194C39.7586 59.8368 39.731 59.7818 39.6759 59.7268C39.6759 59.6993 39.6483 59.6993 39.6483 59.6993C39.6207 59.6443 39.5655 59.5892 39.5379 59.5342C39.5103 59.5067 39.5103 59.4792 39.4828 59.4517C39.4552 59.3967 39.4276 59.3691 39.4 59.3141C39.3724 59.2866 39.3724 59.2591 39.3448 59.2316C39.3172 59.1766 39.2621 59.1215 39.2345 59.094C39.2069 59.0665 39.2069 59.0665 39.2069 59.039C39.1517 58.984 39.1241 58.9015 39.069 58.8464C39.069 58.8189 39.0414 58.8189 39.0414 58.7914C39.0138 58.7364 38.9586 58.6814 38.931 58.6539C38.9034 58.6263 38.9034 58.5988 38.8759 58.5988C38.8483 58.5438 38.7931 58.5163 38.7655 58.4613C38.7379 58.4338 38.7379 58.4338 38.7103 58.4063C38.7103 58.3787 38.6828 58.3787 38.6828 58.3787C38.6552 58.3512 38.6276 58.3237 38.6 58.2687C38.5724 58.2412 38.5724 58.2412 38.5448 58.2137C38.4897 58.1587 38.4345 58.0761 38.3793 58.0211L38.3517 57.9936C38.2965 57.9386 38.269 57.8835 38.2138 57.8285C38.1862 57.801 38.1862 57.801 38.1586 57.7735C38.131 57.746 38.0759 57.691 38.0483 57.6635C38.0207 57.6359 38.0207 57.6084 37.9931 57.6084C37.9655 57.5809 37.9103 57.5259 37.8828 57.4984C37.8552 57.4709 37.8552 57.4709 37.8276 57.4434C37.8 57.4159 37.7448 57.3608 37.6897 57.3058C37.6621 57.2783 37.6621 57.2783 37.6345 57.2508C37.5793 57.1958 37.5241 57.1407 37.469 57.0857L37.4414 57.0582C37.3862 57.0032 37.331 56.9757 37.3034 56.9206C37.2759 56.8931 37.2759 56.8931 37.2483 56.8656C37.2207 56.8381 37.1655 56.7831 37.1379 56.7556C37.1103 56.7281 37.0828 56.7281 37.0828 56.7006C37.0552 56.6731 37 56.618 36.9724 56.5905C36.9448 56.563 36.9172 56.563 36.9172 56.5355C36.8897 56.508 36.8345 56.453 36.7793 56.4255C36.7517 56.3979 36.7517 56.3979 36.7241 56.3704C36.669 56.3154 36.5862 56.2604 36.531 56.2329L36.5034 56.2054C36.4483 56.1778 36.3931 56.1228 36.3379 56.0678C36.3103 56.0403 36.3103 56.0403 36.2828 56.0128C36.2552 55.9853 36.2 55.9578 36.1448 55.9302C36.1172 55.9027 36.0897 55.9027 36.0621 55.8752C36.0345 55.8477 35.9793 55.8202 35.9241 55.7927C35.8966 55.7652 35.869 55.7652 35.8414 55.7377C35.7862 55.7102 35.7586 55.6826 35.7034 55.6551C35.6759 55.6276 35.6759 55.6276 35.6483 55.6276C35.5931 55.5726 35.5103 55.5451 35.4552 55.4901L35.4276 55.4626C35.3724 55.435 35.3172 55.38 35.2621 55.3525C35.2345 55.325 35.2069 55.325 35.2069 55.325C35.1793 55.2975 35.1241 55.27 35.069 55.2425C35.0414 55.215 35.0138 55.215 34.9862 55.1874C34.9586 55.1599 34.9034 55.1324 34.8483 55.1049C34.8207 55.0774 34.7931 55.0774 34.7655 55.0774C34.7103 55.0499 34.6828 55.0224 34.6276 54.9949C34.6 54.9949 34.6 54.9674 34.5724 54.9674C34.5172 54.9398 34.4345 54.8848 34.3793 54.8573C34.3793 54.8573 34.3517 54.8573 34.3517 54.8298C34.2966 54.8023 34.2414 54.7748 34.1862 54.7473C34.1586 54.7473 34.131 54.7198 34.1034 54.7198C34.0483 54.6922 34.0207 54.6647 33.9655 54.6372C33.9379 54.6097 33.9103 54.6097 33.8828 54.6097C33.8552 54.5822 33.8 54.5822 33.7448 54.5547C33.7172 54.5547 33.6897 54.5272 33.6621 54.5272C33.6069 54.4997 33.5793 54.4722 33.5241 54.4722C33.4966 54.4722 33.4966 54.4446 33.469 54.4446C33.4138 54.4171 33.331 54.3896 33.2759 54.3621C33.1931 54.3346 33.1103 54.3071 33.0276 54.2796C33 54.2796 32.9724 54.2521 32.9448 54.2521C32.8897 54.2246 32.8345 54.197 32.7793 54.197C32.7517 54.197 32.7241 54.1695 32.6966 54.1695C32.6414 54.142 32.5862 54.142 32.531 54.1145C32.5034 54.1145 32.4759 54.087 32.4483 54.087C32.3931 54.0595 32.3379 54.0595 32.2828 54.032C32.2552 54.032 32.2276 54.0045 32.2 54.0045C32.1448 53.977 32.0621 53.977 32.0069 53.9494C31.9793 53.9494 31.9793 53.9494 31.9517 53.9219C31.869 53.8944 31.7862 53.8944 31.7034 53.8669C31.6759 53.8669 31.6759 53.8669 31.6483 53.8394C31.5931 53.8119 31.5379 53.8119 31.4552 53.8119C31.4276 53.8119 31.4 53.8119 31.3724 53.7844C31.3172 53.7844 31.2621 53.7569 31.2069 53.7569C31.1793 53.7569 31.1517 53.7569 31.1241 53.7294C31.069 53.7294 31.0138 53.7018 30.9586 53.7018C30.931 53.7018 30.9034 53.7018 30.8759 53.6743C30.8207 53.6743 30.7655 53.6468 30.7103 53.6468C30.6828 53.6468 30.6552 53.6468 30.6276 53.6468C30.5448 53.6468 30.4621 53.6193 30.3793 53.6193C30.3517 53.6193 30.3517 53.6193 30.3517 53.6193C30.2966 53.6193 30.2138 53.6193 30.1586 53.5918C30.131 53.5918 30.1034 53.5918 30.0759 53.5918C30.0207 53.5918 29.9655 53.5918 29.9103 53.5918C29.8828 53.5918 29.8552 53.5918 29.8276 53.5918C29.7724 53.5918 29.7172 53.5918 29.6897 53.5918C29.6621 53.5918 29.6345 53.5918 29.6069 53.5918C29.5517 53.5918 29.4966 53.5918 29.4414 53.5918C29.4138 53.5918 29.3862 53.5918 29.3586 53.5918C29.2759 53.5918 29.1931 53.5918 29.1379 53.6193C28.0345 53.7294 27.0966 54.1145 26.3241 54.6922C26.2138 54.7748 26.1034 54.8573 25.9931 54.9398L22.3517 57.691C22.3241 57.7185 22.269 57.746 22.2414 57.7735C22.2138 57.7735 22.2138 57.801 22.2138 57.801C22.1862 57.8285 22.1586 57.8285 22.131 57.856C22.1034 57.8835 22.1034 57.8835 22.1034 57.8835C22.0759 57.9111 22.0483 57.9111 22.0207 57.9386C21.9931 57.9661 21.9931 57.9661 21.9931 57.9661C21.9655 57.9936 21.9379 57.9936 21.9103 58.0211C21.8828 58.0486 21.8828 58.0486 21.8828 58.0486C21.8552 58.0761 21.8276 58.1036 21.8 58.1311L21.7724 58.1587C21.7448 58.1862 21.6897 58.2412 21.6621 58.2687C21.6345 58.2962 21.6069 58.3512 21.5793 58.3787C21.5793 58.4063 21.5517 58.4063 21.5517 58.4063C21.5241 58.4338 21.5241 58.4613 21.4966 58.4888C21.469 58.5163 21.469 58.5163 21.469 58.5438C21.4414 58.5713 21.4414 58.5988 21.4138 58.6263C21.3862 58.6539 21.3862 58.6539 21.3862 58.6814C21.3586 58.7089 21.3586 58.7364 21.331 58.7639C21.331 58.7914 21.3034 58.7914 21.3034 58.8189C21.2759 58.8464 21.2759 58.8739 21.2483 58.9015C21.2483 58.929 21.2207 58.929 21.2207 58.929C21.1931 58.9565 21.1655 59.0115 21.1379 59.0665C21.1103 59.094 21.0828 59.1491 21.0552 59.2041C21.0552 59.2316 21.0276 59.2316 21.0276 59.2591C21 59.2866 21 59.3141 20.9724 59.3416C20.9724 59.3691 20.9448 59.3691 20.9448 59.3967C20.9172 59.4242 20.9172 59.4517 20.8897 59.4792C20.8897 59.5067 20.8621 59.5067 20.8621 59.5342C20.8345 59.5617 20.8345 59.5892 20.8345 59.6167C20.8345 59.6443 20.8069 59.6443 20.8069 59.6718C20.7793 59.6993 20.7793 59.7268 20.7517 59.7818C20.7517 59.8093 20.7241 59.8093 20.7241 59.8368C20.6966 59.8919 20.6966 59.9194 20.669 59.9744C20.6414 60.0294 20.6414 60.0569 20.6138 60.112C20.6138 60.1395 20.5862 60.1395 20.5862 60.167C20.5586 60.1945 20.5586 60.2495 20.5586 60.277C20.5586 60.3045 20.531 60.3045 20.531 60.332C20.531 60.3596 20.5034 60.3871 20.5034 60.4146C20.5034 60.4421 20.4759 60.4421 20.4759 60.4696C20.4759 60.4971 20.4483 60.5246 20.4483 60.5796C20.4483 60.6072 20.4483 60.6072 20.4207 60.6347C20.4207 60.6622 20.3931 60.7172 20.3931 60.7447C20.3931 60.7722 20.3931 60.7722 20.3655 60.7997C20.3379 60.8548 20.3379 60.9098 20.3379 60.9648C20.3379 60.9648 20.3379 60.9648 20.3379 60.9923C20.3379 61.0473 20.3103 61.1024 20.3103 61.1299C20.3103 61.1574 20.3103 61.1574 20.3103 61.1849C20.3103 61.2124 20.2828 61.2674 20.2828 61.2949C20.2828 61.3224 20.2828 61.3224 20.2828 61.35C20.2828 61.3775 20.2552 61.4325 20.2552 61.46C20.2552 61.4875 20.2552 61.515 20.2552 61.515C20.2552 61.5425 20.2552 61.5976 20.2276 61.6251C20.2276 61.6526 20.2276 61.6526 20.2276 61.6801C20.2276 61.7076 20.2276 61.7626 20.2 61.7901C20.2 61.8176 20.2 61.8176 20.2 61.8452C20.2 61.9002 20.1724 61.9552 20.1724 62.0102V62.0377C20.1724 62.0928 20.1724 62.1478 20.1448 62.2028C20.1448 62.2303 20.1448 62.2303 20.1448 62.2578C20.1448 62.2853 20.1448 62.3404 20.1448 62.3679V62.3954V62.4229C20.1448 62.5054 20.1448 62.588 20.1448 62.6705C20.1448 62.753 20.1448 62.8356 20.1448 62.9181C20.1448 62.9456 20.1448 62.9456 20.1448 62.9731C20.1448 63.0556 20.1448 63.1382 20.1448 63.2207C20.1448 63.2482 20.1448 63.2482 20.1448 63.2757C20.1448 63.3583 20.1448 63.4408 20.1724 63.5233C20.1724 63.6059 20.2 63.6884 20.2 63.7709C20.2 63.7985 20.2 63.7985 20.2 63.826C20.2 63.9085 20.2276 63.991 20.2276 64.0736C20.2276 64.1011 20.2276 64.1011 20.2276 64.1286C20.2276 64.2111 20.2552 64.3212 20.2552 64.4037C20.2828 64.4862 20.2828 64.5963 20.3103 64.6788C20.3103 64.7063 20.3103 64.7063 20.3103 64.7338C20.3379 64.8164 20.3379 64.8989 20.3655 65.0089C20.3655 65.0365 20.3655 65.0365 20.3655 65.064C20.3931 65.1465 20.3931 65.2565 20.4207 65.3391C20.4483 65.4216 20.4759 65.5317 20.5034 65.6142C20.5034 65.6417 20.5034 65.6417 20.531 65.6692C20.5586 65.7517 20.5862 65.8618 20.6138 65.9443C20.6138 65.9718 20.6138 65.9718 20.6414 65.9993C20.669 66.0819 20.6966 66.1919 20.7241 66.2745C20.7517 66.357 20.7793 66.467 20.8069 66.5496C20.8069 66.5771 20.8345 66.5771 20.8345 66.6046C20.8621 66.6871 20.8897 66.7972 20.9172 66.8797C20.9172 66.9072 20.9448 66.9072 20.9448 66.9347C20.9724 67.0173 21.0276 67.1273 21.0552 67.2373C21.0828 67.3474 21.1379 67.4574 21.1931 67.5675C21.2207 67.595 21.2207 67.6225 21.2207 67.65C21.2483 67.7326 21.3034 67.8151 21.331 67.8976C21.331 67.9251 21.3586 67.9526 21.3586 67.9802C21.4138 68.0902 21.4414 68.1727 21.4966 68.2828C21.4966 68.3103 21.5241 68.3103 21.5241 68.3378C21.5517 68.4203 21.6069 68.5029 21.6621 68.5854C21.6621 68.6129 21.6897 68.6129 21.6897 68.6404C21.6897 68.6679 21.7172 68.6954 21.7172 68.723C21.7448 68.7505 21.7448 68.778 21.7448 68.8055C21.7724 68.8605 21.8 68.9155 21.8276 68.9706C21.8276 68.9981 21.8552 68.9981 21.8552 69.0256C21.8828 69.1081 21.9379 69.1631 21.9931 69.2457C21.9931 69.2732 22.0207 69.2732 22.0207 69.2732C22.0483 69.3282 22.1034 69.3832 22.131 69.4382C22.1586 69.4658 22.1586 69.4933 22.1586 69.5208C22.1862 69.5758 22.2138 69.6033 22.2414 69.6583C22.269 69.6858 22.269 69.7134 22.2966 69.7409C22.3241 69.7959 22.3517 69.8509 22.4069 69.9059C22.4069 69.9335 22.4345 69.9335 22.4345 69.961C22.4897 70.0435 22.5172 70.0985 22.5724 70.1535C22.5724 70.181 22.6 70.1811 22.6 70.1811C22.6276 70.2361 22.6828 70.2911 22.7103 70.3461C22.7379 70.3736 22.7379 70.4011 22.7655 70.4286C22.7931 70.4837 22.8207 70.5112 22.8483 70.5662C22.8759 70.5937 22.8759 70.6212 22.9034 70.6487C22.931 70.7038 22.9862 70.7588 23.0138 70.7863C23.0414 70.8138 23.0414 70.8138 23.0414 70.8413C23.0966 70.8963 23.1517 70.9789 23.1793 71.0339C23.1793 71.0614 23.2069 71.0614 23.2069 71.0614C23.2345 71.1164 23.2897 71.1714 23.3172 71.199C23.3448 71.2265 23.3448 71.2265 23.3724 71.254C23.4 71.309 23.4552 71.3365 23.4828 71.3915C23.5103 71.4191 23.5103 71.4191 23.5379 71.4466C23.5379 71.4741 23.5655 71.4741 23.5655 71.4741C23.5931 71.5016 23.6207 71.5291 23.6483 71.5841C23.6759 71.6116 23.6759 71.6116 23.7034 71.6391C23.7586 71.6942 23.8138 71.7767 23.869 71.8317L23.8966 71.8592C23.9517 71.9143 23.9793 71.9693 24.0345 72.0243C24.0621 72.0518 24.0621 72.0518 24.0897 72.0793C24.1172 72.1068 24.1724 72.1619 24.2 72.1894C24.2276 72.2169 24.2276 72.2444 24.2552 72.2444C24.2828 72.2719 24.3379 72.3269 24.3655 72.3544C24.3931 72.3819 24.3931 72.3819 24.4207 72.4095C24.4483 72.437 24.5034 72.492 24.531 72.547C24.5586 72.5745 24.5586 72.5745 24.5862 72.602C24.6414 72.6571 24.6966 72.7121 24.7517 72.7671L24.7793 72.7946C24.8345 72.8496 24.8897 72.8771 24.9172 72.9322C24.9448 72.9597 24.9448 72.9597 24.9724 72.9872C25 73.0147 25.0552 73.0697 25.0828 73.0972C25.1103 73.1248 25.1379 73.1247 25.1655 73.1523C25.1931 73.1798 25.2483 73.2348 25.2759 73.2623C25.3034 73.2898 25.331 73.2898 25.331 73.3173C25.3586 73.3448 25.4138 73.3999 25.469 73.4274C25.4966 73.4549 25.4966 73.4549 25.5241 73.4824C25.5793 73.5374 25.6621 73.5924 25.7172 73.62L25.7448 73.6475C25.8 73.675 25.8552 73.73 25.9103 73.785C25.9379 73.8125 25.9379 73.8125 25.9655 73.84C25.9931 73.8675 26.0483 73.8951 26.1034 73.9226C26.131 73.9501 26.1586 73.9501 26.1862 73.9776C26.2138 74.0051 26.269 74.0326 26.3241 74.0601C26.3517 74.0876 26.3793 74.0876 26.4069 74.1152C26.4621 74.1427 26.4897 74.1702 26.5448 74.1977C26.5724 74.2252 26.5724 74.2252 26.6 74.2252C26.6552 74.2802 26.7379 74.3077 26.7931 74.3627L26.8207 74.3903C26.8759 74.4178 26.931 74.4728 26.9862 74.5003C27.0138 74.5278 27.0414 74.5278 27.0414 74.5278C27.069 74.5553 27.1241 74.5828 27.1793 74.6104C27.2069 74.6379 27.2345 74.6379 27.2621 74.6654C27.2897 74.6929 27.3448 74.7204 27.4 74.7479C27.4276 74.7754 27.4552 74.7754 27.4828 74.7754C27.5379 74.8029 27.5655 74.8304 27.6207 74.858C27.6483 74.858 27.6483 74.8855 27.6759 74.8855C27.731 74.913 27.8138 74.968 27.869 74.9955C27.869 74.9955 27.8966 74.9955 27.8966 75.023C27.9517 75.0505 28.0069 75.078 28.0621 75.1056C28.0897 75.1056 28.1172 75.1331 28.1448 75.1331C28.2 75.1606 28.2276 75.1881 28.2828 75.2156C28.3103 75.2431 28.3379 75.2431 28.3655 75.2431C28.3931 75.2706 28.4483 75.2706 28.5034 75.2981C28.531 75.2981 28.5586 75.3256 28.5862 75.3256C28.6414 75.3532 28.669 75.3807 28.7241 75.3807C28.7517 75.3807 28.7517 75.4082 28.7793 75.4082C28.8345 75.4357 28.9172 75.4632 28.9724 75.4907C29.0552 75.5182 29.1379 75.5457 29.2207 75.5732C29.2483 75.5732 29.2759 75.6008 29.3034 75.6008C29.3586 75.6283 29.4138 75.6558 29.469 75.6558C29.4966 75.6558 29.5241 75.6833 29.5517 75.6833C29.6069 75.7108 29.6621 75.7108 29.7172 75.7383C29.7448 75.7383 29.7724 75.7658 29.8 75.7658C29.8552 75.7933 29.9103 75.7933 29.9655 75.8208C29.9931 75.8208 30.0207 75.8484 30.0483 75.8484C30.1034 75.8759 30.1862 75.8759 30.2414 75.9034C30.269 75.9034 30.269 75.9034 30.2966 75.9309C30.3793 75.9584 30.4621 75.9584 30.5448 75.9859C30.5724 75.9859 30.5724 75.9859 30.6 76.0134C30.6552 76.0409 30.7103 76.0409 30.7931 76.0409C30.8207 76.0409 30.8483 76.0409 30.8759 76.0684C30.931 76.0684 30.9862 76.096 31.0414 76.096C31.069 76.096 31.0965 76.096 31.1241 76.1235C31.1793 76.1235 31.2345 76.151 31.2897 76.151C31.3172 76.151 31.3448 76.151 31.3724 76.1785C31.4276 76.1785 31.4828 76.206 31.5379 76.206C31.5655 76.206 31.5931 76.206 31.6207 76.206C31.7034 76.206 31.7862 76.2335 31.869 76.2335C31.8966 76.2335 31.8966 76.2335 31.8966 76.2335C31.9517 76.2335 32.0345 76.2335 32.0897 76.261C32.1172 76.261 32.1448 76.261 32.1724 76.261C32.2276 76.261 32.2828 76.261 32.3379 76.261C32.3655 76.261 32.3931 76.261 32.4207 76.261C32.4759 76.261 32.531 76.261 32.5586 76.261C32.5862 76.261 32.6138 76.261 32.6414 76.261C32.6966 76.261 32.7517 76.261 32.8069 76.261C32.8345 76.261 32.8621 76.261 32.8897 76.261C32.9724 76.261 33.0552 76.261 33.1103 76.2335C34.2138 76.1235 35.1517 75.7383 35.9241 75.1606C36.0345 75.078 36.1448 74.9955 36.2828 74.8855L36.7793 74.5278C36.9448 74.3903 37.1103 74.2527 37.3034 74.1427L37.5241 73.9776L37.6069 73.9226C37.6345 73.8951 37.6621 73.8951 37.6897 73.8675L39.9241 72.1619C39.9517 72.1343 40.0069 72.1068 40.0345 72.0793C40.0621 72.0793 40.0621 72.0518 40.0621 72.0518C40.0897 72.0243 40.1172 72.0243 40.1448 71.9968C40.1724 71.9693 40.1724 71.9693 40.1724 71.9693C40.2 71.9418 40.2276 71.9418 40.2552 71.9143C40.2828 71.8867 40.2828 71.8867 40.3103 71.8867C40.3379 71.8592 40.3655 71.8592 40.3931 71.8317C40.4207 71.8042 40.4207 71.8042 40.4207 71.8042C40.4483 71.7767 40.4759 71.7492 40.5034 71.7217L40.531 71.6942C40.531 71.7217 40.5586 71.6942 40.5862 71.6667ZM35.8414 73.3999C35.8138 73.3999 35.8138 73.3999 35.8138 73.3999C35.731 73.3999 35.6483 73.3724 35.5655 73.3724C35.5379 73.3724 35.5103 73.3724 35.4828 73.3724C35.4276 73.3724 35.3724 73.3448 35.3172 73.3448C35.2897 73.3448 35.2621 73.3448 35.2345 73.3173C35.1793 73.3173 35.1241 73.2898 35.069 73.2898C35.0414 73.2898 35.0138 73.2898 34.9862 73.2623C34.931 73.2623 34.8759 73.2348 34.8207 73.2348C34.7931 73.2348 34.7655 73.2348 34.7379 73.2073C34.6828 73.1798 34.6276 73.1798 34.5448 73.1798C34.5172 73.1798 34.5172 73.1798 34.4897 73.1523C34.4069 73.1247 34.3241 73.1248 34.2414 73.0972C34.2138 73.0972 34.2138 73.0972 34.1862 73.0697C34.131 73.0422 34.0483 73.0422 33.9931 73.0147C33.9655 73.0147 33.9379 72.9872 33.9103 72.9872C33.8552 72.9597 33.8 72.9597 33.7448 72.9322C33.7172 72.9322 33.6897 72.9047 33.6621 72.9047C33.6069 72.8771 33.5517 72.8771 33.4966 72.8496C33.469 72.8496 33.4414 72.8221 33.4138 72.8221C33.3586 72.7946 33.3034 72.7946 33.2483 72.7671C33.2207 72.7671 33.1931 72.7396 33.1655 72.7396C33.0828 72.7121 33 72.6846 32.9172 72.6571C32.8621 72.6295 32.7793 72.602 32.7241 72.5745C32.6966 72.5745 32.6966 72.547 32.669 72.547C32.6138 72.5195 32.5862 72.5195 32.531 72.492C32.5034 72.492 32.4759 72.4645 32.4483 72.4645C32.4207 72.437 32.3655 72.437 32.3103 72.4095C32.2828 72.3819 32.2552 72.3819 32.2276 72.3819C32.1724 72.3544 32.1448 72.3269 32.0897 72.2994C32.0621 72.2994 32.0345 72.2719 32.0069 72.2719C31.9517 72.2444 31.8966 72.2169 31.8414 72.1894C31.8414 72.1894 31.8138 72.1894 31.8138 72.1619C31.7586 72.1343 31.6759 72.0793 31.6207 72.0518C31.5931 72.0518 31.5931 72.0243 31.5655 72.0243C31.5103 71.9968 31.4828 71.9693 31.4276 71.9418C31.4 71.9143 31.3724 71.9143 31.3448 71.9143C31.3172 71.8867 31.2621 71.8592 31.2069 71.8317C31.1793 71.8042 31.1517 71.8042 31.1241 71.7767C31.069 71.7492 31.0414 71.7217 30.9862 71.6942C30.9586 71.6667 30.931 71.6667 30.931 71.6667C30.8759 71.6391 30.8207 71.5841 30.7655 71.5566L30.7379 71.5291C30.6828 71.4741 30.6 71.4466 30.5448 71.3915C30.5172 71.364 30.5172 71.364 30.4897 71.364C30.4345 71.3365 30.4069 71.309 30.3517 71.2815C30.3241 71.254 30.2966 71.254 30.269 71.2265C30.2414 71.199 30.1862 71.1715 30.131 71.1439C30.1034 71.1164 30.0759 71.1164 30.0483 71.0889C30.0207 71.0614 29.9655 71.0339 29.9103 71.0064C29.8828 70.9789 29.8828 70.9789 29.8552 70.9514C29.8 70.9239 29.7448 70.8688 29.6897 70.8138L29.6621 70.7863C29.6069 70.7313 29.5241 70.6762 29.469 70.6487C29.4414 70.6212 29.4414 70.6212 29.4138 70.5937C29.3862 70.5662 29.331 70.5112 29.2759 70.4837C29.2483 70.4562 29.2207 70.4562 29.2207 70.4286C29.1931 70.4011 29.1379 70.3461 29.1103 70.3186C29.0828 70.2911 29.0552 70.2911 29.0276 70.2636C29 70.2361 28.9448 70.181 28.9172 70.1535C28.8897 70.126 28.8897 70.126 28.8621 70.0985C28.8069 70.0435 28.7517 70.016 28.7241 69.961L28.6966 69.9334C28.6414 69.8784 28.5862 69.8234 28.531 69.7684C28.5034 69.7409 28.5034 69.7409 28.4759 69.7134C28.4483 69.6858 28.3931 69.6308 28.3655 69.5758C28.3379 69.5483 28.3379 69.5483 28.3103 69.5208C28.2828 69.4933 28.2276 69.4382 28.2 69.4107C28.1724 69.3832 28.1724 69.3557 28.1448 69.3282C28.1172 69.3007 28.0621 69.2457 28.0345 69.2182C28.0069 69.1906 28.0069 69.1906 27.9793 69.1631C27.9241 69.1081 27.8966 69.0531 27.8414 68.9981L27.8138 68.9706C27.7586 68.9155 27.7034 68.833 27.6483 68.778C27.6207 68.7505 27.6207 68.7505 27.5931 68.723C27.5655 68.6679 27.5103 68.6404 27.4828 68.5854C27.4552 68.5579 27.4552 68.5579 27.4276 68.5304C27.4 68.4754 27.3448 68.4478 27.3172 68.3928C27.2897 68.3653 27.2897 68.3653 27.2621 68.3378C27.2345 68.2828 27.1793 68.2278 27.1517 68.2002C27.1517 68.1727 27.1241 68.1727 27.1241 68.1452C27.069 68.0902 27.0138 68.0077 26.9862 67.9526C26.9586 67.9251 26.9586 67.9251 26.9586 67.8976C26.931 67.8426 26.8759 67.7876 26.8483 67.7601C26.8207 67.7326 26.8207 67.705 26.7931 67.6775C26.7655 67.6225 26.7379 67.595 26.7103 67.54C26.6828 67.5125 26.6828 67.485 26.6552 67.4574C26.6276 67.4024 26.5724 67.3474 26.5448 67.2924C26.5448 67.2649 26.5172 67.2649 26.5172 67.2649C26.4621 67.1823 26.4345 67.1273 26.3793 67.0723C26.3517 67.0448 26.3517 67.0448 26.3517 67.0173C26.3241 66.9622 26.2966 66.9072 26.269 66.8522C26.2414 66.8247 26.2414 66.7972 26.2138 66.7697C26.1862 66.7146 26.1586 66.6871 26.131 66.6321C26.1034 66.6046 26.1034 66.5771 26.1034 66.5496C26.0759 66.4945 26.0207 66.4395 25.9931 66.3845C25.9931 66.357 25.9655 66.357 25.9655 66.357C25.9379 66.2745 25.8828 66.2194 25.8552 66.1369C25.8552 66.1094 25.8276 66.1094 25.8276 66.0819C25.8 66.0269 25.7724 65.9718 25.7448 65.9168C25.7172 65.8893 25.7172 65.8618 25.7172 65.8343C25.6897 65.8068 25.6897 65.7517 25.6621 65.7242C25.6345 65.6417 25.5793 65.5592 25.5241 65.4766C25.5241 65.4491 25.4966 65.4491 25.4966 65.4216C25.4414 65.3116 25.4138 65.229 25.3586 65.119C25.3586 65.0915 25.331 65.064 25.331 65.0365C25.3034 64.9539 25.2483 64.8714 25.2207 64.7889C25.1931 64.7613 25.1931 64.7338 25.1931 64.7063C25.1379 64.5963 25.1103 64.4862 25.0552 64.3762C25.0276 64.2937 24.9724 64.1836 24.9448 64.0736C24.9448 64.0461 24.9172 64.0461 24.9172 64.0185C24.8897 63.936 24.8621 63.826 24.8345 63.7434C24.8345 63.7159 24.8069 63.7159 24.8069 63.6884C24.7793 63.6059 24.7517 63.4958 24.7241 63.4133C24.6966 63.3308 24.669 63.2207 24.6414 63.1382C24.6414 63.1107 24.6414 63.1107 24.6138 63.0832C24.5862 63.0006 24.5586 62.8906 24.531 62.808C24.531 62.7805 24.531 62.7805 24.5034 62.753C24.4759 62.6705 24.4483 62.5604 24.4207 62.4779C24.3931 62.3954 24.3931 62.2853 24.3655 62.2028C24.3655 62.1753 24.3655 62.1753 24.3655 62.1478C24.3379 62.0652 24.3379 61.9827 24.3103 61.8727C24.3103 61.8452 24.3103 61.8452 24.3103 61.8176C24.2828 61.7351 24.2828 61.6251 24.2552 61.5425C24.2276 61.46 24.2276 61.35 24.2276 61.2674C24.2276 61.2399 24.2276 61.2399 24.2276 61.2124C24.2276 61.1299 24.2 61.0473 24.2 60.9648C24.2 60.9373 24.2 60.9373 24.2 60.9098C24.2 60.8272 24.1724 60.7447 24.1724 60.6622C24.1724 60.5796 24.1724 60.4971 24.1448 60.4146C24.1448 60.3871 24.1448 60.3871 24.1448 60.3595C24.1448 60.277 24.1448 60.1945 24.1448 60.112C24.1448 60.0844 24.1448 60.0844 24.1448 60.0569C24.1448 59.9744 24.1448 59.8919 24.1448 59.8093C24.1448 59.7268 24.1448 59.6443 24.1448 59.5617C24.1448 59.5342 24.1448 59.5342 24.1448 59.5067C24.1448 59.4792 24.1448 59.4242 24.1448 59.3967C24.1448 59.3691 24.1448 59.3691 24.1448 59.3416C24.1448 59.2866 24.1448 59.2316 24.1724 59.1766V59.1491C24.1724 59.094 24.1724 59.039 24.2 58.984C24.2 58.9565 24.2 58.9565 24.2 58.929C24.2 58.9015 24.2 58.8464 24.2276 58.8189C24.2276 58.7914 24.2276 58.7914 24.2276 58.7639C24.2276 58.7364 24.2276 58.6814 24.2552 58.6539C24.2552 58.6263 24.2552 58.5988 24.2552 58.5988C24.2552 58.5713 24.2828 58.5163 24.2828 58.4888C24.2828 58.4613 24.2828 58.4613 24.2828 58.4338C24.2828 58.4063 24.3103 58.3512 24.3103 58.3237C24.3103 58.2962 24.3103 58.2962 24.3103 58.2687C24.3103 58.2137 24.3379 58.1587 24.3379 58.1311C24.3379 58.1311 24.3379 58.1311 24.3379 58.1036C24.3655 58.0486 24.3655 57.9936 24.3655 57.9386C24.3655 57.9111 24.3655 57.9111 24.3931 57.8835C24.3931 57.856 24.4207 57.801 24.4207 57.7735C24.4207 57.746 24.4207 57.746 24.4483 57.7185C24.4483 57.691 24.4759 57.6635 24.4759 57.6084C24.4759 57.5809 24.5034 57.5809 24.5034 57.5534C24.5034 57.5259 24.531 57.4984 24.531 57.4709C24.531 57.4434 24.5586 57.4434 24.5586 57.4159C24.5862 57.3883 24.5862 57.3333 24.5862 57.3058C24.5862 57.2783 24.6138 57.2783 24.6138 57.2508C24.6414 57.1958 24.6414 57.1683 24.669 57.1132C24.6966 57.0582 24.6966 57.0307 24.7241 56.9757C24.7241 56.9482 24.7517 56.9482 24.7517 56.9206C24.7793 56.8931 24.7793 56.8656 24.8069 56.8106C24.8069 56.7831 24.8069 56.7831 24.8345 56.7831C24.9724 56.7556 25.1379 56.7281 25.2759 56.7281C25.3586 56.7281 25.4138 56.7006 25.4966 56.7006C25.5241 56.7006 25.5517 56.7006 25.5793 56.7006C25.6345 56.7006 25.6897 56.7006 25.7448 56.7006C25.7724 56.7006 25.8 56.7006 25.8276 56.7006C25.8828 56.7006 25.9379 56.7006 25.9655 56.7006C25.9931 56.7006 26.0207 56.7006 26.0483 56.7006C26.1034 56.7006 26.1586 56.7006 26.2138 56.7006C26.2414 56.7006 26.269 56.7006 26.2966 56.7006C26.3517 56.7006 26.4345 56.7006 26.4897 56.7281C26.5172 56.7281 26.5172 56.7281 26.5172 56.7281C26.6 56.7281 26.6828 56.7556 26.7655 56.7556C26.7931 56.7556 26.8207 56.7556 26.8483 56.7556C26.9034 56.7556 26.9586 56.7831 27.0138 56.7831C27.0414 56.7831 27.069 56.7831 27.0966 56.8106C27.1517 56.8106 27.2069 56.8381 27.2621 56.8381C27.2897 56.8381 27.3172 56.8381 27.3448 56.8656C27.4 56.8656 27.4552 56.8931 27.5103 56.8931C27.5379 56.8931 27.5655 56.8931 27.5931 56.9206C27.6483 56.9482 27.7034 56.9482 27.7862 56.9482C27.8138 56.9482 27.8138 56.9482 27.8414 56.9757C27.9241 57.0032 28.0069 57.0032 28.0897 57.0307C28.1172 57.0307 28.1172 57.0307 28.1448 57.0582C28.2 57.0857 28.2828 57.0857 28.3379 57.1132C28.3655 57.1132 28.3931 57.1407 28.4207 57.1407C28.4759 57.1683 28.531 57.1683 28.5862 57.1958C28.6138 57.1958 28.6414 57.2233 28.669 57.2233C28.7241 57.2508 28.7793 57.2508 28.8345 57.2783C28.8621 57.2783 28.8897 57.3058 28.9172 57.3058C28.9724 57.3333 29.0276 57.3333 29.0828 57.3608C29.1103 57.3608 29.1379 57.3883 29.1655 57.3883C29.2483 57.4159 29.331 57.4434 29.4138 57.4709C29.469 57.4984 29.5517 57.5259 29.6069 57.5534C29.6345 57.5534 29.6345 57.5809 29.6621 57.5809C29.7172 57.6084 29.7448 57.6084 29.8 57.6359C29.8276 57.6359 29.8552 57.6635 29.8828 57.6635C29.9103 57.691 29.9655 57.691 30.0207 57.7185C30.0483 57.746 30.0759 57.746 30.1034 57.746C30.1586 57.7735 30.1862 57.801 30.2414 57.8285C30.269 57.8285 30.2966 57.856 30.2966 57.856C30.3517 57.8835 30.4069 57.9111 30.4621 57.9386C30.4621 57.9386 30.4897 57.9386 30.4897 57.9661C30.5448 57.9936 30.6276 58.0486 30.6828 58.0761C30.7103 58.0761 30.7103 58.1036 30.7379 58.1036C30.7931 58.1311 30.8207 58.1587 30.8759 58.1862C30.9034 58.2137 30.931 58.2137 30.9586 58.2137C30.9862 58.2412 31.0414 58.2687 31.0966 58.2962C31.1241 58.3237 31.1517 58.3237 31.1793 58.3512C31.2345 58.3787 31.2621 58.4063 31.3172 58.4338C31.3448 58.4613 31.3448 58.4613 31.3724 58.4613C31.4276 58.4888 31.4828 58.5438 31.5379 58.5713L31.5655 58.5988C31.6207 58.6539 31.7034 58.6814 31.7586 58.7364C31.7862 58.7639 31.7862 58.7639 31.8138 58.7639C31.869 58.7914 31.8966 58.8189 31.9517 58.8464C31.9793 58.8739 32.0069 58.8739 32.0345 58.9015C32.0621 58.929 32.1172 58.9565 32.1724 58.984C32.2 59.0115 32.2276 59.0115 32.2552 59.039C32.2828 59.0665 32.3379 59.094 32.3931 59.1215C32.4207 59.1491 32.4207 59.1491 32.4483 59.1766C32.5034 59.2041 32.5586 59.2591 32.6138 59.3141L32.6414 59.3416C32.6966 59.3967 32.7793 59.4517 32.8345 59.4792C32.8621 59.5067 32.8621 59.5067 32.8897 59.5342C32.9172 59.5617 32.9724 59.6167 33.0276 59.6443C33.0552 59.6718 33.0828 59.6718 33.0828 59.6993C33.1103 59.7268 33.1655 59.7818 33.1931 59.8093C33.2207 59.8368 33.2483 59.8368 33.2483 59.8644C33.2759 59.8919 33.331 59.9469 33.3586 59.9744C33.3862 60.0019 33.3862 60.0019 33.4138 60.0294C33.469 60.0844 33.5241 60.1119 33.5517 60.167L33.5793 60.1945C33.6345 60.2495 33.6897 60.3045 33.7448 60.3595C33.7724 60.3871 33.7724 60.3871 33.8 60.4146C33.8276 60.4421 33.8828 60.4971 33.9103 60.5521C33.9379 60.5796 33.9379 60.5796 33.9655 60.6072C33.9931 60.6347 34.0483 60.6897 34.0759 60.7172C34.1034 60.7447 34.1034 60.7722 34.131 60.7722C34.1586 60.7997 34.2138 60.8548 34.2414 60.8823C34.269 60.9098 34.269 60.9098 34.2965 60.9373C34.3517 60.9923 34.3793 61.0473 34.4345 61.1024L34.4621 61.1299C34.5172 61.1849 34.5724 61.2674 34.6276 61.3224C34.6552 61.35 34.6552 61.35 34.6828 61.3775C34.7103 61.4325 34.7655 61.46 34.7931 61.515C34.8207 61.5425 34.8207 61.5425 34.8483 61.57C34.8759 61.6251 34.931 61.6526 34.9586 61.7076C34.9862 61.7351 34.9862 61.7626 35.0138 61.7626C35.0414 61.8176 35.0965 61.8727 35.1241 61.9002C35.1241 61.9277 35.1517 61.9277 35.1517 61.9552C35.2069 62.0102 35.2621 62.0928 35.2897 62.1478C35.3172 62.1753 35.3172 62.1753 35.3172 62.2028C35.3448 62.2578 35.4 62.3128 35.4276 62.3404C35.4552 62.3679 35.4552 62.3954 35.4828 62.4229C35.5103 62.4779 35.5379 62.5054 35.5655 62.5604C35.5931 62.588 35.5931 62.6155 35.6207 62.643C35.6483 62.698 35.7034 62.753 35.731 62.808C35.731 62.8356 35.7586 62.8356 35.7586 62.8631C35.8138 62.9456 35.8414 63.0006 35.8966 63.0556C35.9241 63.0832 35.9241 63.0832 35.9241 63.1107C35.9517 63.1657 35.9793 63.2207 36.0069 63.2757C36.0345 63.3032 36.0345 63.3308 36.0621 63.3583C36.0897 63.4133 36.1172 63.4408 36.1448 63.4958C36.1724 63.5233 36.1724 63.5509 36.1724 63.5784C36.2 63.6334 36.2552 63.6884 36.2828 63.7434C36.2828 63.7709 36.3103 63.7709 36.3103 63.7709C36.3379 63.8535 36.3931 63.9085 36.4207 63.991C36.4207 64.0185 36.4483 64.0185 36.4483 64.0461C36.4759 64.1011 36.5034 64.1561 36.531 64.2111C36.5586 64.2386 36.5586 64.2661 36.5586 64.2937C36.5862 64.3212 36.5862 64.3762 36.6138 64.4037C36.6414 64.4862 36.6966 64.5688 36.7517 64.6513C36.7517 64.6788 36.7793 64.6788 36.7793 64.7063C36.8345 64.8164 36.8621 64.8989 36.9172 65.0089C36.9172 65.0365 36.9448 65.064 36.9448 65.0915C36.9724 65.174 37.0276 65.2565 37.0552 65.3391C37.0828 65.3666 37.0828 65.3941 37.0828 65.4216C37.1379 65.5317 37.1655 65.6417 37.2207 65.7517C37.2483 65.8343 37.3034 65.9443 37.331 66.0544C37.331 66.0819 37.3586 66.0819 37.3586 66.1094C37.3862 66.1919 37.4138 66.302 37.4414 66.3845C37.4414 66.412 37.469 66.412 37.469 66.4395C37.4965 66.5221 37.5241 66.6321 37.5517 66.7146C37.5793 66.7972 37.6069 66.9072 37.6345 66.9898C37.6345 67.0173 37.6345 67.0173 37.6621 67.0448C37.6897 67.1273 37.7172 67.2374 37.7448 67.3199C37.7448 67.3474 37.7448 67.3474 37.7724 67.3749C37.8 67.4574 37.8276 67.5675 37.8552 67.65C37.8828 67.7326 37.8828 67.8426 37.9103 67.9251C37.9103 67.9526 37.9103 67.9526 37.9103 67.9802C37.9379 68.0627 37.9379 68.1452 37.9655 68.2553C37.9655 68.2828 37.9655 68.2828 37.9655 68.3103C37.9931 68.3928 37.9931 68.5029 38.0207 68.5854C38.0483 68.6679 38.0483 68.778 38.0483 68.8605C38.0483 68.888 38.0483 68.888 38.0483 68.9155C38.0483 68.9981 38.0759 69.0806 38.0759 69.1906C38.0759 69.2182 38.0759 69.2182 38.0759 69.2457C38.0759 69.3282 38.1034 69.4107 38.1034 69.4933C38.1034 69.5758 38.1034 69.6583 38.131 69.7409C38.131 69.7684 38.131 69.7684 38.131 69.7959C38.131 69.8784 38.131 69.961 38.131 70.0435C38.131 70.071 38.131 70.071 38.131 70.0985C38.131 70.1811 38.131 70.2636 38.131 70.3461C38.131 70.4286 38.131 70.5112 38.131 70.5937C38.131 70.6212 38.131 70.6212 38.131 70.6487C38.131 70.6762 38.131 70.7313 38.131 70.7588C38.131 70.7863 38.131 70.7863 38.131 70.8138C38.131 70.8688 38.131 70.9239 38.1034 70.9789V71.0064C38.1034 71.0614 38.1034 71.1164 38.0759 71.1715C38.0759 71.199 38.0759 71.199 38.0759 71.2265C38.0759 71.254 38.0759 71.309 38.0483 71.3365C38.0483 71.364 38.0483 71.364 38.0483 71.3915C38.0483 71.4191 38.0483 71.4741 38.0207 71.5016C38.0207 71.5291 38.0207 71.5566 38.0207 71.5566C38.0207 71.5841 37.9931 71.6391 37.9931 71.6667C37.9931 71.6942 37.9931 71.6942 37.9931 71.7217C37.9931 71.7492 37.9655 71.8042 37.9655 71.8317C37.9655 71.8592 37.9655 71.8592 37.9655 71.8867C37.9655 71.9418 37.9379 71.9968 37.9379 72.0243C37.9379 72.0243 37.9379 72.0243 37.9379 72.0518C37.9103 72.1068 37.9103 72.1619 37.9103 72.2169C37.9103 72.2444 37.9103 72.2444 37.8828 72.2719C37.8828 72.2994 37.8552 72.3544 37.8552 72.3819C37.8552 72.4095 37.8552 72.4095 37.8276 72.437C37.8276 72.4645 37.8 72.492 37.8 72.547C37.8 72.5745 37.7724 72.5745 37.7724 72.602C37.7724 72.6295 37.7448 72.6571 37.7448 72.6846C37.7448 72.7121 37.7172 72.7121 37.7172 72.7396C37.6897 72.7671 37.6897 72.8221 37.6897 72.8496C37.6897 72.8771 37.6621 72.8771 37.6621 72.9047C37.6345 72.9597 37.6345 72.9872 37.6069 73.0422C37.5793 73.0972 37.5793 73.1247 37.5517 73.1798C37.5517 73.2073 37.5241 73.2073 37.5241 73.2348C37.4965 73.2623 37.4965 73.2898 37.469 73.3448C37.469 73.3724 37.469 73.3724 37.4414 73.3724C37.3034 73.3999 37.1379 73.4274 37 73.4274C36.9172 73.4274 36.8345 73.4549 36.7793 73.4549C36.7517 73.4549 36.7241 73.4549 36.6965 73.4549C36.6414 73.4549 36.5862 73.4549 36.531 73.4549C36.5034 73.4549 36.4759 73.4549 36.4483 73.4549C36.3931 73.4549 36.3379 73.4549 36.3103 73.4549C36.2828 73.4549 36.2552 73.4549 36.2276 73.4549C36.1724 73.4549 36.1172 73.4549 36.0621 73.4549C36.0345 73.4549 36.0069 73.4549 35.9793 73.4549C35.9517 73.3999 35.8966 73.3999 35.8414 73.3999Z" fill="#0043FF"/>
<path d="M39.3724 55.7927L43.3448 52.794L50.931 71.8867L46.9586 74.8855L39.3724 55.7927Z" fill="#998029"/>
<path d="M46.9586 74.8855L50.931 71.8867L66.5448 70.3186L62.5724 73.3173L46.9586 74.8855Z" fill="#846F24"/>
<path d="M62.5724 73.3173L54.9862 54.2246L58.9586 51.2259L66.5448 70.3186L62.5724 73.3173Z" fill="#0043FF"/>
<path d="M104.283 86.5227L81 28.0064C80.4207 26.5208 78.9586 25.4203 77.7448 25.5304L77.2207 25.5854L6.35172 32.6833C5.13793 32.7933 4.64138 34.1139 5.22069 35.5995L28.5034 94.0883C29.0828 95.5739 30.5448 96.6743 31.7586 96.5643L43.2345 95.4088L103.152 89.4114C104.365 89.3013 104.862 88.0083 104.283 86.5227ZM37.0552 73.3724C32.5586 73.8125 27.1517 69.7409 24.9724 64.2661C22.7931 58.7914 24.669 53.977 29.1379 53.5368C33.6345 53.0966 39.0414 57.1683 41.2207 62.643C43.4276 68.1177 41.5517 72.9322 37.0552 73.3724ZM54.8207 71.5016L50.931 71.8867L43.3448 52.794L58.9586 51.2258L61.5241 57.6635L66.5448 70.3186L54.8207 71.5016ZM80.0069 68.5304L64.5034 51.556L64.2827 51.3084L64.6414 51.2809L81.3586 49.6027L80.0069 68.5304Z" fill="#0055FF"/>
<path d="M147.841 36.1222L157 57.0032L143.786 54.4446L147.841 36.1222Z" fill="#2C7DFF"/>
<path d="M157 57.0032L119.207 67.3749L105.993 64.8164L143.786 54.4446L157 57.0032Z" fill="#0000FF"/>
<path d="M143.786 54.4722L105.993 64.8439L110.048 46.4939L147.841 36.1222L143.786 54.4722Z" fill="#0055FF"/>
<path d="M103.152 89.4114L43.2621 95.4088C46.5448 88.586 50.6 80.2501 54.8483 71.5016L66.6 70.3186L61.5793 57.6635C62.5724 55.6001 63.5655 53.5643 64.5586 51.556L80.0621 68.5304L81.4138 49.6027L64.6966 51.2809C69.3586 41.707 73.8 32.6558 77.2759 25.5854L77.8 25.5304C79.0138 25.4203 80.4759 26.5208 81.0552 27.9789L104.338 86.4952C104.862 88.0083 104.366 89.3013 103.152 89.4114Z" fill="#2C7DFF"/>
<path d="M94.5724 110.127L113.331 109.412L108.972 128.285L90.2138 129L94.5724 110.127Z" fill="#2C7DFF"/>
<path d="M94.5724 110.127L74.1035 88.366L92.8345 87.6507L113.303 109.412L94.5724 110.127Z" fill="#0055FF"/>
<path d="M90.2138 129L69.7448 107.239L74.1034 88.366L94.5724 110.127L90.2138 129Z" fill="#0043FF"/>
<path d="M32.7241 35.9021C30.5172 35.9021 28.2828 35.2143 26.4069 33.9763C24.4759 32.6833 23.0414 30.8951 22.2414 28.8042C21.3034 26.3007 21.3862 23.6596 22.5448 21.3487L29.8276 6.65771C29.8828 6.8778 29.9655 7.07038 30.0483 7.18043C30.2966 7.5931 30.7379 7.86821 31.1241 7.86821C31.2069 7.86821 31.2621 7.8407 31.3172 7.8407C33.331 11.4172 37.3034 13.7281 41.4966 13.7281C42.5172 13.7281 43.5379 13.5905 44.5034 13.3154C44.669 13.2604 44.8069 13.2329 44.9724 13.2329C45.9655 13.2329 46.6828 14.1408 47.3448 14.9661C47.869 15.5989 48.2552 16.0941 48.7241 16.0941C48.7517 16.0941 48.7793 16.0941 48.7793 16.0941L41.3034 31.0877C40.1172 33.206 38.1034 34.7742 35.6483 35.4619C34.6828 35.7646 33.7172 35.9021 32.7241 35.9021Z" fill="#0043FF"/>
<path d="M40.669 20.0557C38.4345 20.0557 36.1448 19.3679 34.2414 18.1024C32.2828 16.8093 30.8207 14.9661 29.9931 12.8477C29.0276 10.2892 29.1379 7.56558 30.3241 5.22713C31.5103 2.88868 33.6069 1.15547 36.2828 0.412668C37.2483 0.137556 38.2414 0 39.2345 0C41.469 0 43.7586 0.68778 45.6621 1.95329C47.6207 3.24632 49.0828 5.08957 49.9103 7.20793C50.8759 9.76647 50.7655 12.4901 49.5793 14.8285C48.3931 17.167 46.2966 18.9002 43.6207 19.643C42.6552 19.9181 41.6621 20.0557 40.669 20.0557Z" fill="#2C7DFF"/>
</svg>
