<svg width="94" height="85" viewBox="0 0 94 85" fill="none" xmlns="http://www.w3.org/2000/svg">
<path d="M94 30.7486L87.0978 57.2045H58.839L51.5963 85H24.6994L21.0161 82.0469L31.942 57.2045H3.68324L0 54.2514L10.5854 30.7486H38.8443L46.0869 2.95308L69.3006 0L72.9839 2.95308L65.7412 30.7486L90.3167 27.7955L94 30.7486Z" fill="#0043FF"/>
<path d="M90.3167 27.7955L83.4146 54.2514H55.1557L47.9131 82.0469H21.0161L28.2588 54.2514H0L6.90221 27.7955H35.161L42.4037 0H69.3006L62.0579 27.7955H90.3167Z" fill="#0055FF"/>
<path d="M87.0978 57.2045H58.9628L55.1558 54.2514H83.4146L87.0978 57.2045Z" fill="#0000FF"/>
<path d="M51.5963 85H24.7613L20.9852 82.0469H47.9131L51.5963 85Z" fill="#0000FF"/>
<path d="M90.3167 27.7955L83.4145 54.2514H55.1557L47.9131 82.0469H43.5489L47.6964 0H69.3006L62.0579 27.7955H90.3167Z" fill="#2C7DFF"/>
</svg>
