<svg width="687" height="663" viewBox="0 0 687 663" fill="none" xmlns="http://www.w3.org/2000/svg">
<path d="M15.0993 183.417L218.548 294.993L0 360.017L221.922 355.86L92.4021 531.234L272.537 409.637L285.421 539.617L327.889 393.109L478.5 662.5L364.291 365.163L635.942 456.735L398.478 328.46L664.266 275.773L438.049 253.927L687 0L387.434 200.15L376.698 54.8342L314.903 186.382L203.516 32.0008L272.741 232.628L15.0993 183.417Z" fill="white"/>
<path d="M525.172 477.074L232.548 514.844C223.83 515.958 215.855 509.816 214.74 501.098L176.97 208.424C175.856 199.706 181.998 191.731 190.716 190.617L483.34 152.872C492.058 151.757 500.033 157.899 501.148 166.617L538.918 459.266C540.032 467.96 533.89 475.959 525.172 477.074Z" fill="#A400CC"/>
<path d="M203.199 281.091L196.264 227.247L215.978 224.696C219.793 224.201 223.037 224.424 225.712 225.34C228.387 226.282 230.467 227.718 232.003 229.699C233.514 231.656 234.455 233.984 234.801 236.659C235.099 238.913 234.925 240.845 234.306 242.479C233.687 244.114 232.746 245.476 231.483 246.591C230.219 247.68 228.808 248.547 227.198 249.191L227.272 249.711C229.08 249.563 230.888 249.909 232.746 250.752C234.603 251.594 236.188 252.906 237.575 254.714C238.938 256.522 239.804 258.801 240.176 261.6C240.523 264.349 240.201 266.9 239.21 269.253C238.195 271.605 236.436 273.587 233.935 275.197C231.408 276.807 228.065 277.896 223.904 278.416L203.199 281.091ZM207.384 249.488L218.257 248.077C220.09 247.854 221.675 247.284 223.062 246.392C224.424 245.501 225.464 244.362 226.182 242.975C226.876 241.588 227.124 240.027 226.901 238.294C226.603 236.065 225.588 234.306 223.83 232.993C222.071 231.681 219.594 231.235 216.35 231.656L205.254 233.093L207.384 249.488ZM210.431 273.067L222.145 271.556C226.034 271.061 228.733 269.946 230.219 268.212C231.706 266.479 232.3 264.497 232.003 262.243C231.78 260.535 231.161 259.049 230.12 257.736C229.08 256.423 227.718 255.457 226.009 254.813C224.325 254.169 222.368 253.996 220.214 254.268L208.201 255.829L210.431 273.067Z" fill="black"/>
<path d="M256.176 274.255L247.557 275.37L259.99 219.025L269.376 217.811L295.704 269.153L287.085 270.268L266.181 228.164L265.76 228.213L256.176 274.255ZM254.888 252.98L282.85 249.364L283.741 256.2L255.779 259.816L254.888 252.98Z" fill="black"/>
<path d="M339.938 208.697L346.873 262.541L339.418 263.507L306.948 227.545L306.453 227.619L311.555 267.098L303.431 268.138L296.497 214.294L304.026 213.328L336.52 249.34L337.016 249.265L331.914 209.737L339.938 208.697Z" fill="black"/>
<path d="M358.712 261.005L351.777 207.161L359.9 206.121L363.219 231.829L363.888 231.755L383.157 203.124L393.386 201.812L374.81 228.857L400.37 255.631L390.587 256.894L370.08 235.074L364.656 243.198L366.811 259.94L358.712 261.005Z" fill="black"/>
<path d="M431.973 211.198C431.379 208.746 429.967 206.963 427.763 205.849C425.558 204.734 422.908 204.387 419.812 204.784C417.608 205.081 415.751 205.65 414.215 206.567C412.679 207.458 411.565 208.573 410.847 209.886C410.128 211.198 409.856 212.61 410.054 214.146C410.227 215.434 410.673 216.499 411.391 217.341C412.11 218.183 413.001 218.876 414.091 219.347C415.156 219.842 416.295 220.214 417.484 220.486C418.673 220.758 419.812 220.957 420.902 221.08L426.326 221.774C428.109 221.972 429.942 222.319 431.824 222.789C433.731 223.285 435.515 224.003 437.224 224.969C438.908 225.935 440.344 227.247 441.533 228.857C442.722 230.467 443.465 232.473 443.762 234.901C444.158 237.947 443.713 240.77 442.45 243.321C441.186 245.897 439.156 248.052 436.357 249.81C433.558 251.569 430.066 252.708 425.856 253.253C421.818 253.773 418.252 253.575 415.156 252.683C412.06 251.792 409.509 250.256 407.528 248.126C405.546 245.996 404.283 243.297 403.689 240.077L411.837 239.037C412.258 240.968 413.1 242.504 414.364 243.643C415.651 244.783 417.187 245.55 419.02 245.947C420.853 246.343 422.809 246.417 424.89 246.145C427.193 245.848 429.174 245.228 430.883 244.263C432.592 243.297 433.88 242.108 434.747 240.671C435.614 239.235 435.936 237.625 435.713 235.891C435.515 234.306 434.896 233.043 433.855 232.151C432.815 231.26 431.502 230.566 429.868 230.096C428.258 229.625 426.45 229.254 424.444 229.006L417.856 228.09C413.398 227.47 409.757 226.182 406.958 224.226C404.159 222.269 402.5 219.421 402.029 215.681C401.633 212.585 402.129 209.762 403.515 207.236C404.902 204.709 406.933 202.604 409.658 200.945C412.357 199.285 415.528 198.22 419.144 197.75C422.784 197.279 426.103 197.502 429.05 198.418C432.023 199.335 434.45 200.821 436.332 202.827C438.239 204.858 439.403 207.31 439.849 210.183L431.973 211.198Z" fill="black"/>
<path d="M444.282 195.248L453.52 194.059L470.734 216.721L471.303 216.647L482.201 190.369L491.439 189.18L476.133 224.399L478.857 245.526L470.758 246.566L468.034 225.439L444.282 195.248Z" fill="black"/>
<path d="M212.04 349.597L205.106 295.753L224.82 293.202C228.634 292.707 231.879 292.93 234.554 293.846C237.229 294.787 239.309 296.224 240.845 298.205C242.355 300.162 243.297 302.49 243.643 305.165C243.941 307.419 243.767 309.351 243.148 310.985C242.529 312.62 241.588 313.982 240.325 315.096C239.061 316.186 237.65 317.053 236.04 317.697L236.114 318.217C237.922 318.069 239.73 318.415 241.588 319.257C243.445 320.099 245.03 321.412 246.417 323.22C247.779 325.028 248.646 327.307 249.018 330.105C249.365 332.855 249.043 335.406 248.052 337.758C247.036 340.111 245.278 342.093 242.777 343.703C240.25 345.312 236.907 346.402 232.746 346.922L212.04 349.597ZM216.226 317.994L227.099 316.583C228.932 316.36 230.517 315.79 231.904 314.898C233.266 314.007 234.306 312.867 235.024 311.48C235.718 310.094 235.966 308.533 235.743 306.799C235.445 304.57 234.43 302.812 232.671 301.499C230.913 300.187 228.436 299.741 225.192 300.162L214.096 301.598L216.226 317.994ZM219.272 341.573L230.987 340.062C234.876 339.566 237.575 338.452 239.061 336.718C240.547 334.985 241.142 333.003 240.845 330.749C240.622 329.04 240.003 327.554 238.962 326.242C237.922 324.929 236.56 323.963 234.851 323.319C233.167 322.675 231.21 322.502 229.055 322.774L217.043 324.335L219.272 341.573Z" fill="black"/>
<path d="M265.017 342.762L256.398 343.876L268.832 287.531L278.218 286.317L304.521 337.66L295.902 338.774L274.999 296.67L274.578 296.719L265.017 342.762ZM263.73 321.487L291.692 317.871L292.583 324.706L264.621 328.322L263.73 321.487Z" fill="black"/>
<path d="M348.78 277.203L355.715 331.047L348.26 332.013L315.79 296.051L315.295 296.125L320.397 335.604L312.273 336.644L305.338 282.8L312.868 281.834L345.362 317.846L345.858 317.772L340.755 278.243L348.78 277.203Z" fill="black"/>
<path d="M367.554 329.511L360.619 275.667L368.742 274.627L372.061 300.335L372.73 300.261L391.999 271.63L402.228 270.318L383.652 297.363L409.262 324.161L399.479 325.425L378.971 303.605L373.547 311.728L375.702 328.471L367.554 329.511Z" fill="black"/>
<path d="M440.815 279.704C440.221 277.252 438.809 275.469 436.605 274.354C434.4 273.24 431.75 272.893 428.654 273.289C426.45 273.587 424.592 274.156 423.057 275.073C421.521 275.964 420.407 277.079 419.688 278.392C418.97 279.704 418.698 281.116 418.896 282.651C419.069 283.939 419.515 285.004 420.233 285.846C420.952 286.689 421.843 287.382 422.933 287.853C423.998 288.348 425.137 288.719 426.326 288.992C427.515 289.264 428.654 289.462 429.744 289.586L435.168 290.28C436.951 290.478 438.784 290.825 440.666 291.295C442.573 291.791 444.357 292.509 446.066 293.475C447.75 294.441 449.186 295.753 450.375 297.363C451.564 298.973 452.307 300.979 452.604 303.406C453 306.453 452.555 309.276 451.291 311.827C450.028 314.403 447.997 316.558 445.199 318.316C442.4 320.075 438.908 321.214 434.697 321.759C430.66 322.279 427.094 322.081 423.998 321.189C420.877 320.298 418.351 318.762 416.37 316.632C414.388 314.502 413.125 311.802 412.531 308.583L420.679 307.543C421.1 309.474 421.942 311.01 423.205 312.149C424.493 313.289 426.029 314.056 427.862 314.453C429.694 314.849 431.651 314.923 433.731 314.651C436.035 314.354 438.016 313.734 439.725 312.768C441.434 311.802 442.722 310.614 443.589 309.177C444.456 307.741 444.778 306.131 444.555 304.397C444.357 302.812 443.737 301.549 442.697 300.657C441.657 299.766 440.344 299.072 438.71 298.602C437.1 298.131 435.292 297.759 433.286 297.512L426.698 296.595C422.239 295.976 418.599 294.688 415.8 292.732C413.001 290.775 411.342 287.927 410.871 284.187C410.475 281.091 410.97 278.268 412.357 275.741C413.744 273.215 415.775 271.11 418.5 269.451C421.199 267.791 424.369 266.726 427.985 266.256C431.626 265.785 434.945 266.008 437.892 266.924C440.864 267.841 443.292 269.327 445.174 271.333C447.081 273.364 448.245 275.816 448.691 278.689L440.815 279.704Z" fill="black"/>
<path d="M453.124 263.754L462.362 262.565L479.576 285.227L480.145 285.153L491.043 258.875L500.281 257.686L484.975 292.88L487.699 314.007L479.6 315.047L476.876 293.921L453.124 263.754Z" fill="black"/>
<path d="M220.882 418.104L213.947 364.26L233.662 361.709C237.476 361.213 240.721 361.436 243.396 362.353C246.071 363.294 248.151 364.73 249.687 366.712C251.197 368.668 252.138 370.996 252.485 373.671C252.782 375.925 252.609 377.857 251.99 379.491C251.371 381.126 250.43 382.488 249.166 383.603C247.903 384.693 246.492 385.559 244.882 386.203L244.956 386.724C246.764 386.575 248.572 386.922 250.43 387.764C252.287 388.606 253.872 389.918 255.259 391.727C256.621 393.535 257.488 395.813 257.86 398.612C258.206 401.361 257.884 403.912 256.894 406.265C255.878 408.618 254.12 410.599 251.618 412.209C249.092 413.819 245.749 414.909 241.588 415.429L220.882 418.104ZM225.068 386.501L235.941 385.089C237.773 384.866 239.359 384.296 240.746 383.405C242.108 382.513 243.148 381.374 243.866 379.987C244.56 378.6 244.807 377.04 244.584 375.306C244.287 373.077 243.272 371.318 241.513 370.006C239.755 368.693 237.278 368.247 234.034 368.668L222.938 370.105L225.068 386.501ZM228.09 410.079L239.804 408.568C243.693 408.073 246.392 406.958 247.879 405.225C249.365 403.491 249.959 401.51 249.662 399.256C249.439 397.547 248.82 396.061 247.779 394.748C246.739 393.435 245.377 392.47 243.668 391.826C241.984 391.182 240.027 391.008 237.873 391.281L225.86 392.841L228.09 410.079Z" fill="black"/>
<path d="M273.834 411.268L265.216 412.382L277.649 356.037L287.035 354.823L313.363 406.166L304.744 407.28L283.84 365.176L283.419 365.225L273.834 411.268ZM272.571 389.993L300.534 386.377L301.425 393.212L273.463 396.828L272.571 389.993Z" fill="black"/>
<path d="M357.622 345.709L364.557 399.553L357.102 400.519L324.632 364.557L324.137 364.631L329.239 404.11L321.115 405.15L314.18 351.306L321.71 350.34L354.204 386.352L354.699 386.277L349.597 346.749L357.622 345.709Z" fill="black"/>
<path d="M376.395 398.017L369.461 344.173L377.584 343.133L380.903 368.842L381.572 368.767L400.841 340.136L411.07 338.824L392.494 365.869L418.103 392.668L408.32 393.931L387.813 372.111L382.389 380.234L384.544 396.977L376.395 398.017Z" fill="black"/>
<path d="M449.657 348.21C449.062 345.758 447.651 343.975 445.446 342.861C443.242 341.746 440.592 341.399 437.496 341.796C435.292 342.093 433.434 342.662 431.899 343.579C430.363 344.47 429.249 345.585 428.53 346.898C427.812 348.21 427.54 349.622 427.738 351.158C427.911 352.445 428.357 353.51 429.075 354.353C429.794 355.195 430.685 355.888 431.775 356.359C432.84 356.854 433.979 357.226 435.168 357.498C436.357 357.77 437.496 357.969 438.586 358.092L444.01 358.786C445.793 358.984 447.626 359.331 449.508 359.801C451.415 360.297 453.199 361.015 454.907 361.981C456.592 362.947 458.028 364.259 459.217 365.869C460.406 367.479 461.149 369.485 461.446 371.912C461.842 374.959 461.396 377.782 460.133 380.333C458.87 382.909 456.839 385.064 454.041 386.822C451.242 388.581 447.75 389.72 443.539 390.265C439.502 390.785 435.936 390.587 432.84 389.695C429.719 388.804 427.193 387.268 425.212 385.138C423.23 383.008 421.967 380.309 421.373 377.089L429.521 376.049C429.942 377.98 430.784 379.516 432.047 380.655C433.335 381.795 434.871 382.562 436.704 382.959C438.536 383.355 440.493 383.429 442.573 383.157C444.877 382.86 446.858 382.24 448.567 381.274C450.276 380.309 451.564 379.12 452.431 377.683C453.298 376.247 453.62 374.637 453.397 372.903C453.199 371.318 452.579 370.055 451.539 369.163C450.499 368.272 449.186 367.578 447.552 367.108C445.942 366.637 444.134 366.266 442.128 366.018L435.54 365.102C431.081 364.482 427.441 363.194 424.642 361.238C421.843 359.281 420.184 356.433 419.713 352.693C419.317 349.597 419.812 346.774 421.199 344.248C422.586 341.721 424.617 339.616 427.342 337.957C430.041 336.297 433.211 335.232 436.827 334.762C440.468 334.291 443.787 334.514 446.734 335.43C449.706 336.347 452.134 337.833 454.016 339.839C455.923 341.87 457.087 344.322 457.533 347.195L449.657 348.21Z" fill="black"/>
<path d="M461.966 332.26L471.204 331.072L488.417 353.733L488.987 353.659L499.885 327.381L509.123 326.192L493.817 361.411L496.541 382.538L488.442 383.578L485.718 362.452L461.966 332.26Z" fill="black"/>
<path d="M229.724 486.609L222.789 432.766L242.504 430.215C246.318 429.719 249.563 429.942 252.238 430.858C254.912 431.8 256.993 433.236 258.528 435.217C260.039 437.174 260.98 439.502 261.327 442.177C261.624 444.431 261.451 446.363 260.832 447.997C260.213 449.632 259.271 450.994 258.008 452.109C256.745 453.198 255.333 454.065 253.724 454.709L253.798 455.229C255.606 455.081 257.414 455.428 259.271 456.27C261.129 457.112 262.714 458.424 264.101 460.232C265.463 462.04 266.33 464.319 266.702 467.118C267.048 469.867 266.726 472.418 265.736 474.771C264.72 477.124 262.962 479.105 260.46 480.715C257.934 482.325 254.59 483.414 250.43 483.935L229.724 486.609ZM233.885 455.006L244.758 453.595C246.591 453.372 248.176 452.802 249.563 451.911C250.925 451.019 251.965 449.88 252.683 448.493C253.377 447.106 253.625 445.545 253.402 443.812C253.104 441.583 252.089 439.824 250.331 438.512C248.572 437.199 246.095 436.753 242.851 437.174L231.755 438.611L233.885 455.006ZM236.931 478.585L248.646 477.074C252.535 476.579 255.234 475.464 256.72 473.73C258.206 471.997 258.801 470.015 258.504 467.762C258.281 466.053 257.662 464.567 256.621 463.254C255.581 461.941 254.219 460.975 252.51 460.331C250.826 459.687 248.869 459.514 246.714 459.787L234.702 461.347L236.931 478.585Z" fill="black"/>
<path d="M282.676 479.774L274.057 480.888L286.491 424.543L295.877 423.329L322.205 474.672L313.586 475.786L292.682 433.682L292.261 433.731L282.676 479.774ZM281.413 458.499L309.375 454.883L310.267 461.718L282.305 465.334L281.413 458.499Z" fill="black"/>
<path d="M366.464 414.215L373.399 468.059L365.944 469.025L333.474 433.063L332.979 433.137L338.081 472.616L329.957 473.656L323.022 419.812L330.551 418.846L363.046 454.858L363.541 454.783L358.439 415.255L366.464 414.215Z" fill="black"/>
<path d="M385.237 466.523L378.303 412.679L386.426 411.639L389.745 437.347L390.414 437.273L409.683 408.642L419.911 407.33L401.336 434.375L426.945 461.173L417.162 462.437L396.655 440.617L391.231 448.74L393.386 465.483L385.237 466.523Z" fill="black"/>
<path d="M458.499 416.716C457.904 414.264 456.493 412.481 454.288 411.366C452.084 410.252 449.434 409.905 446.338 410.301C444.134 410.599 442.276 411.168 440.741 412.085C439.205 412.976 438.091 414.091 437.372 415.403C436.654 416.716 436.382 418.128 436.58 419.663C436.753 420.951 437.199 422.016 437.917 422.858C438.635 423.701 439.527 424.394 440.617 424.865C441.682 425.36 442.821 425.731 444.01 426.004C445.199 426.276 446.338 426.474 447.428 426.598L452.852 427.292C454.635 427.49 456.468 427.837 458.35 428.307C460.257 428.803 462.04 429.521 463.749 430.487C465.433 431.453 466.87 432.765 468.059 434.375C469.248 435.985 469.991 437.991 470.288 440.418C470.684 443.465 470.238 446.288 468.975 448.839C467.712 451.415 465.681 453.57 462.882 455.328C460.084 457.087 456.592 458.226 452.381 458.771C448.344 459.291 444.778 459.093 441.682 458.201C438.561 457.31 436.035 455.774 434.053 453.644C432.072 451.514 430.809 448.814 430.215 445.595L438.363 444.555C438.784 446.486 439.626 448.022 440.889 449.161C442.177 450.301 443.713 451.068 445.545 451.465C447.378 451.861 449.335 451.935 451.415 451.663C453.719 451.365 455.7 450.746 457.409 449.78C459.118 448.814 460.406 447.626 461.273 446.189C462.139 444.753 462.461 443.143 462.239 441.409C462.04 439.824 461.421 438.561 460.381 437.669C459.341 436.778 458.028 436.084 456.393 435.614C454.784 435.143 452.976 434.771 450.969 434.524L444.381 433.607C439.923 432.988 436.283 431.7 433.484 429.744C430.685 427.787 429.026 424.939 428.555 421.199C428.159 418.103 428.654 415.28 430.041 412.753C431.428 410.227 433.459 408.122 436.183 406.463C438.883 404.803 442.053 403.738 445.669 403.268C449.31 402.797 452.629 403.02 455.576 403.936C458.548 404.853 460.975 406.339 462.858 408.345C464.765 410.376 465.929 412.828 466.375 415.701L458.499 416.716Z" fill="black"/>
<path d="M470.783 400.766L480.021 399.577L497.235 422.239L497.804 422.165L508.702 395.887L517.94 394.698L502.634 429.917L505.358 451.044L497.259 452.084L494.535 430.957L470.783 400.766Z" fill="black"/>
<path d="M473.21 483.018C456.938 410.203 450.647 437.298 432.79 419.515L421.125 404.754L416.023 395.466C408.395 384.915 404.828 372.061 405.844 359.331C406.141 355.591 406.834 351.876 407.949 348.21C408.048 347.913 408.122 347.616 408.221 347.319C409.98 341.746 412.011 335.802 413.918 330.378C417.286 320.744 420.209 312.669 420.332 310.886C420.877 303.184 398.859 251.47 385.609 250.925C358.068 249.786 314.799 245.996 296.918 260.361C284.806 270.07 279.011 291.939 276.782 315.716C276.46 319.035 276.237 322.378 276.039 325.722C274.825 347.963 291.791 356.681 292.658 360.743C294.119 367.628 284.435 386.104 284.435 386.104C284.435 386.104 283.84 387.367 283.865 388.581C283.865 389.175 284.014 389.77 284.435 390.166C285.302 390.983 289.017 393.113 291.394 394.451C292.682 395.169 295.332 396.63 296.075 398.091C296.397 398.686 296.373 399.949 296.249 401.41C296.125 402.871 295.877 404.506 295.729 405.794C295.654 406.314 295.63 406.785 295.605 407.156C295.58 407.503 296.769 407.602 298.602 407.528V408.989C298.602 410.351 299.27 411.639 300.36 412.432L303.902 414.983C303.902 414.983 304.744 416.246 306.057 418.079C309.598 422.982 316.583 431.998 320.1 431.998C320.347 431.998 320.595 431.948 320.793 431.849C320.917 431.8 321.288 431.626 321.809 431.354C325.598 429.471 338.601 422.735 349.052 415.726C349.102 415.726 349.152 415.701 349.201 415.701C365.3 413.819 378.104 436.852 381.919 444.679C381.795 445.347 381.844 445.991 382.092 446.586C385.213 454.239 369.51 481.879 363.863 497.408L473.21 483.018Z" fill="#0055FF"/>
<path d="M405.868 359.405C404.853 372.135 408.419 384.99 416.048 395.54L421.15 404.828L434.202 421.348C422.24 431.453 397.968 439.155 382.711 446.412C380.284 441.038 366.687 413.744 349.226 415.8C349.176 415.8 349.127 415.8 349.077 415.825C338.626 422.834 325.623 429.546 321.833 431.453C321.288 431.725 320.942 431.899 320.818 431.948C320.595 432.047 320.372 432.097 320.124 432.097C316.607 432.097 309.623 423.082 306.081 418.178C304.769 416.345 303.927 415.082 303.927 415.082L300.385 412.531C299.27 411.738 298.626 410.45 298.626 409.088V407.627C296.794 407.701 295.605 407.602 295.63 407.255C295.654 406.859 295.704 406.413 295.753 405.893C295.902 404.581 296.15 402.946 296.274 401.509C296.397 400.073 296.397 398.81 296.1 398.191C295.357 396.729 292.732 395.268 291.419 394.55C289.042 393.212 285.327 391.107 284.46 390.265C284.039 389.844 283.89 389.274 283.89 388.68C283.89 387.466 284.46 386.203 284.46 386.203C284.46 386.203 294.144 367.727 292.682 360.842C291.816 356.78 274.875 348.087 276.064 325.821C276.237 322.477 276.485 319.134 276.807 315.815C279.06 292.038 284.856 270.169 296.942 260.46C314.824 246.095 358.117 249.885 385.634 251.024C398.884 251.569 420.902 303.283 420.357 310.985C420.233 312.744 417.311 320.818 413.943 330.477C412.035 335.901 410.005 341.82 408.246 347.418C408.147 347.715 408.048 348.012 407.974 348.309C406.859 351.95 406.166 355.665 405.868 359.405Z" fill="#0055FF"/>
<path d="M328.818 335.133L301.252 340.359L286.491 342.663L286.936 346.229L286.416 349.275L289.042 349.226L290.453 345.288L289.71 349.325L301.797 347.789L329.486 337.561L328.818 335.133Z" fill="black"/>
<path d="M295.357 390.859C300.286 392.965 294.837 397.051 291.023 394.5C288.769 392.989 284.93 391.058 284.063 390.215C283.642 389.794 283.494 389.225 283.494 388.63L290.825 389.225C290.85 389.2 290.429 388.729 295.357 390.859Z" fill="#062784"/>
<path d="M361.956 407.008L349.746 415.85C349.746 415.85 359.182 413.868 370.03 427.49C373.572 423.181 371.888 410.178 371.888 410.178L365.795 378.6C367.38 386.823 361.956 407.008 361.956 407.008Z" fill="#0029BC"/>
<path d="M394.426 493.247C394.698 491.166 394.996 489.111 395.268 487.055C395.565 484.999 395.838 482.919 396.16 480.839C396.308 479.798 396.482 478.758 396.68 477.743C396.779 477.223 396.878 476.702 396.977 476.182C397.076 475.662 397.175 475.142 397.299 474.622C397.423 474.102 397.547 473.582 397.695 473.086L397.918 472.319L398.166 471.551C398.488 470.535 398.884 469.569 399.355 468.604L399.924 468.777C399.85 469.297 399.726 469.817 399.627 470.312L399.33 471.848C399.231 472.368 399.132 472.863 399.033 473.384C398.934 473.879 398.859 474.399 398.76 474.919C398.389 476.95 398.116 479.006 397.819 481.086C397.547 483.142 397.249 485.222 396.952 487.303C396.655 489.383 396.308 491.439 395.912 493.495L394.426 493.247Z" fill="black"/>
<path d="M366.216 378.6C366.29 379.665 366.34 380.73 366.365 381.795C366.39 382.86 366.414 383.925 366.414 384.99C366.414 386.055 366.414 387.12 366.39 388.185C366.365 389.25 366.34 390.315 366.29 391.38C366.167 393.51 366.018 395.664 365.77 397.794C365.498 399.924 365.151 402.079 364.532 404.234C364.383 404.779 364.185 405.323 363.962 405.868C363.739 406.413 363.467 406.958 363.071 407.503C362.873 407.775 362.65 408.048 362.328 408.32L362.278 408.37L362.229 408.395L362.154 408.469L361.981 408.593C361.857 408.692 361.758 408.766 361.634 408.84C361.188 409.162 360.743 409.484 360.297 409.782C358.514 410.995 356.73 412.134 354.947 413.298C353.164 414.438 351.356 415.577 349.622 416.741C348.731 417.336 347.839 417.93 346.947 418.5C346.031 419.069 345.139 419.639 344.223 420.209C343.306 420.753 342.415 421.323 341.474 421.868L340.087 422.685L338.7 423.478C337.783 424.023 336.842 424.543 335.926 425.063C334.985 425.583 334.068 426.103 333.127 426.623C331.245 427.639 329.387 428.654 327.48 429.62C325.598 430.611 323.691 431.577 321.759 432.493L321.388 432.666L321.016 432.84L320.967 432.865L320.892 432.889C320.843 432.914 320.793 432.939 320.719 432.964C320.62 433.013 320.496 433.038 320.397 433.063C320.174 433.112 319.951 433.137 319.753 433.112C319.332 433.112 318.985 433.038 318.638 432.914C318.316 432.815 318.019 432.691 317.722 432.543C317.177 432.27 316.682 431.923 316.211 431.601C315.741 431.255 315.32 430.908 314.899 430.536C314.081 429.793 313.313 429.026 312.57 428.208C311.827 427.416 311.134 426.598 310.44 425.756C309.078 424.097 307.766 422.388 306.527 420.654C305.264 418.921 304.075 417.162 302.911 415.354L303.085 415.552L300.93 413.992L299.865 413.224L299.592 413.026L299.518 412.977L299.444 412.927L299.295 412.803C299.097 412.63 298.899 412.456 298.726 412.258C298.032 411.49 297.586 410.5 297.487 409.46C297.462 409.212 297.462 408.915 297.462 408.717V408.048V406.735H298.973V408.048C298.973 408.494 298.973 408.964 298.998 409.286C299.072 410.004 299.394 410.698 299.865 411.243C299.989 411.391 300.113 411.49 300.261 411.614L300.36 411.689L300.41 411.738L300.484 411.788L300.756 411.986L301.821 412.754L303.976 414.314L304.075 414.388L304.15 414.512C305.363 416.221 306.651 417.905 307.939 419.589C309.227 421.249 310.564 422.883 311.951 424.469C313.338 426.029 314.775 427.564 316.31 428.877C317.078 429.521 317.895 430.14 318.688 430.536C319.084 430.735 319.48 430.834 319.728 430.834C319.778 430.834 319.827 430.834 319.877 430.809C319.902 430.809 319.902 430.809 319.926 430.784H319.951C319.951 430.784 319.951 430.784 319.976 430.784L320.025 430.759L320.372 430.586L320.719 430.413C321.66 429.942 322.601 429.447 323.518 428.951L326.316 427.465C328.174 426.475 330.031 425.434 331.864 424.394C335.554 422.314 339.195 420.184 342.786 417.955C343.678 417.41 344.57 416.815 345.461 416.271L348.111 414.537C349.919 413.348 351.703 412.234 353.486 411.094C355.269 409.955 357.052 408.816 358.786 407.627C359.207 407.33 359.653 407.032 360.049 406.735C360.148 406.661 360.247 406.587 360.346 406.512L360.495 406.413L360.569 406.364L360.594 406.339L360.619 406.314C360.718 406.24 360.842 406.116 360.941 405.943C361.164 405.621 361.387 405.224 361.56 404.803C361.758 404.382 361.907 403.912 362.055 403.441C362.352 402.5 362.6 401.485 362.823 400.494C363.046 399.478 363.219 398.463 363.393 397.423C363.715 395.367 363.987 393.262 364.235 391.181C364.705 386.996 365.052 382.761 365.374 378.525L366.216 378.6Z" fill="black"/>
<path d="M295.01 391.503C294.961 391.479 289.017 388.259 283.915 390.141L283.395 388.729C289.165 386.575 295.481 390.017 295.753 390.166L295.01 391.503Z" fill="black"/>
<path d="M362.724 498.3L363.145 497.135C364.953 492.157 367.727 486.089 370.674 479.625C376.643 466.573 383.405 451.762 381.398 446.858C381.374 446.759 378.525 439.453 373.052 432.072C369.857 427.763 366.414 424.295 362.798 421.719C358.315 418.549 353.56 416.791 348.681 416.518L348.78 415.007C353.956 415.305 358.959 417.162 363.69 420.506C367.43 423.156 370.996 426.747 374.29 431.205C379.863 438.734 382.785 446.239 382.81 446.313C385.064 451.812 378.451 466.276 372.061 480.269C369.362 486.188 366.786 491.811 365.003 496.492L472.319 482.374C461.124 432.543 454.808 430.636 446.09 428.01C442.103 426.797 437.595 425.434 431.973 419.738L431.948 419.713C418.772 404.977 410.277 390.909 406.686 377.857C403.862 367.628 403.937 357.845 406.909 348.012C407.008 347.715 407.082 347.393 407.181 347.096C409.41 339.988 412.06 332.483 414.388 325.87C416.964 318.564 419.168 312.248 419.267 310.861C419.466 307.939 415.998 297.71 411.193 287.035C405.373 274.132 398.958 263.284 393.584 257.265C390.364 253.649 387.565 251.767 385.237 251.693C382.488 251.569 379.615 251.445 376.569 251.296C349.721 249.984 312.917 248.2 297.041 260.956C288.893 267.494 278.714 284.063 276.435 325.771C275.568 341.697 284.162 350.489 289.314 355.764C291.394 357.894 292.757 359.281 293.029 360.594C294.515 367.603 285.277 385.435 284.757 386.451C284.484 387.07 283.865 388.952 284.608 389.646C285.203 390.216 287.679 391.726 291.419 393.807L291.444 393.832C292.881 394.624 295.555 396.135 296.397 397.77C296.992 398.909 296.719 401.336 296.298 404.605C296.199 405.398 296.1 406.141 296.051 406.76C296.373 406.81 297.017 406.834 298.23 406.785L298.28 408.296C295.803 408.395 295.11 408.197 294.763 407.825C294.589 407.627 294.49 407.379 294.49 407.132C294.54 406.413 294.664 405.447 294.788 404.407C295.035 402.475 295.456 399.256 295.035 398.463C294.391 397.225 291.816 395.763 290.701 395.144L290.676 395.119C286.689 392.89 284.286 391.404 283.568 390.736C281.933 389.175 283.246 386.154 283.395 385.807L283.419 385.782C283.519 385.609 292.955 367.454 291.568 360.916C291.394 360.049 289.933 358.563 288.249 356.829C285.648 354.179 282.107 350.563 279.333 345.511C276.039 339.567 274.578 332.904 274.949 325.697C276.212 302.366 280.918 271.977 296.1 259.767C303.357 253.922 315.221 250.529 332.359 249.34C346.997 248.324 362.749 249.092 376.643 249.761C379.689 249.909 382.562 250.058 385.312 250.157C388.036 250.281 391.206 252.312 394.698 256.25C407.008 270.02 421.199 304.422 420.753 310.936C420.654 312.471 418.896 317.524 415.8 326.341C413.472 332.954 410.847 340.433 408.618 347.517C408.518 347.814 408.419 348.111 408.345 348.409C405.447 357.969 405.398 367.454 408.122 377.411C411.639 390.216 420.035 404.085 433.038 418.648C438.363 424.072 442.697 425.36 446.487 426.524C455.749 429.323 462.437 431.354 473.929 482.82L474.102 483.613L362.724 498.3Z" fill="black"/>
<path d="M300.608 353.412L305.537 353.833L320.545 354.155C320.545 354.155 305.735 364.334 302.936 363.517L300.608 353.412Z" fill="white"/>
<path d="M300.608 364.482C301.698 364.259 302.787 363.863 303.852 363.393C304.917 362.922 305.958 362.377 306.998 361.783C309.054 360.619 311.06 359.306 313.091 357.993C314.106 357.349 315.146 356.705 316.186 356.086C317.251 355.467 318.341 354.898 319.505 354.427C320.075 354.179 320.669 353.981 321.264 353.783C321.858 353.61 322.477 353.436 323.097 353.312C323.716 353.189 324.335 353.114 324.979 353.04C325.598 352.99 326.242 352.966 326.861 352.99L326.812 354.501C326.242 354.501 325.672 354.501 325.103 354.551C324.533 354.6 323.963 354.675 323.394 354.798C322.824 354.922 322.279 355.071 321.734 355.244C321.189 355.418 320.645 355.616 320.1 355.839C317.97 356.73 315.964 358.018 313.933 359.331C311.927 360.643 309.896 361.981 307.79 363.194C306.725 363.814 305.636 364.383 304.496 364.879C303.357 365.399 302.168 365.82 300.93 366.092L300.608 364.482Z" fill="black"/>
<path d="M302.639 364.854C301.574 362.179 300.038 356.26 299.865 353.461L301.376 353.362C301.549 355.962 303.035 361.733 304.051 364.284L302.639 364.854Z" fill="black"/>
<path d="M298.973 346.006C298.8 346.6 298.651 347.17 298.552 347.789C298.503 348.087 298.453 348.384 298.404 348.706C298.379 349.003 298.329 349.325 298.305 349.622C298.255 350.241 298.23 350.86 298.255 351.455C298.255 351.752 298.28 352.074 298.305 352.371C298.329 352.668 298.354 352.99 298.404 353.263L297.636 352.619C298.874 352.594 300.113 352.619 301.351 352.693C302.589 352.768 303.803 352.891 305.016 353.015C307.444 353.288 309.871 353.585 312.273 353.733C313.487 353.808 314.676 353.833 315.889 353.808C317.078 353.783 318.316 353.709 319.505 353.585C320.1 353.535 320.719 353.486 321.313 353.411C321.908 353.337 322.502 353.263 323.121 353.189C323.418 353.139 323.74 353.114 324.062 353.114C324.384 353.114 324.706 353.114 325.028 353.139C325.648 353.189 326.267 353.288 326.861 353.387L326.737 354.154C326.143 354.08 325.524 353.981 324.954 353.932C324.657 353.907 324.384 353.907 324.087 353.907C323.79 353.932 323.518 353.956 323.22 354.006C322.626 354.08 322.007 354.179 321.412 354.254C320.793 354.328 320.199 354.402 319.58 354.452C318.366 354.576 317.152 354.675 315.914 354.749C314.676 354.798 313.437 354.823 312.224 354.774C309.772 354.699 307.32 354.476 304.893 354.278C303.679 354.179 302.465 354.105 301.277 354.055C300.063 354.031 298.874 354.031 297.685 354.08L296.992 354.105L296.893 353.436C296.843 353.065 296.819 352.768 296.794 352.421C296.769 352.099 296.769 351.752 296.744 351.43C296.719 350.761 296.744 350.117 296.794 349.449C296.819 349.127 296.843 348.78 296.893 348.458C296.942 348.136 296.967 347.789 297.041 347.467C297.14 346.799 297.314 346.155 297.512 345.511L298.973 346.006Z" fill="black"/>
<path d="M304.125 414.463C308.831 414.884 321.09 395.962 336.124 393.51C324.459 394.055 309.574 404.259 299.023 407.553C299.023 407.528 296.744 411.268 304.125 414.463Z" fill="#0029BC"/>
<path d="M298.75 408.271C298.577 408.296 298.428 408.296 298.28 408.32C295.803 408.42 295.11 408.221 294.763 407.85C294.589 407.652 294.49 407.404 294.49 407.156C294.54 406.438 294.664 405.472 294.788 404.432C295.035 402.5 295.456 399.28 295.035 398.488L296.373 397.794C296.967 398.934 296.695 401.361 296.274 404.63C296.175 405.423 296.075 406.166 296.026 406.785C296.348 406.834 296.992 406.859 298.205 406.81C300.509 406.711 305.784 404.135 311.357 401.41C320.149 397.101 330.13 392.222 336.198 392.742L336.074 394.253C330.428 393.757 320.223 398.76 312.026 402.773C306.403 405.522 301.499 407.924 298.75 408.271Z" fill="black"/>
<path d="M249.092 248.101C251.916 300.187 276.212 315.939 276.212 315.939L289.364 305.388L285.698 294.788L328.867 276.831L300.905 293.723C308.732 295.58 322.527 303.803 339.369 314.255L357.374 305.314L340.929 320.372L341.821 340.656L346.477 341.821C346.477 341.821 356.483 335.852 368.049 328.471C370.996 326.589 386.401 318.391 393.386 325.127C397.621 329.189 396.209 340.879 394.451 356.631L406.067 359.504C406.067 359.504 417.435 331.195 419.119 342.935C431.676 334.663 420.06 310.936 432.419 314.205C434.574 303.431 421.868 284.584 432.419 283.915C437.769 277.376 416.939 258.231 426.029 253.575C420.233 242.455 398.166 243.544 401.188 234.058C395.268 231.854 377.733 237.501 381.151 226.975C371.789 223.062 355.294 226.95 356.73 218.975C341.226 218.554 329.808 228.585 330.155 217.44C321.437 218.554 300.93 236.609 290.008 222.616C283.023 225.712 266.404 258.429 249.092 248.101Z" fill="#D3FF48"/>
<path d="M475.514 483.489L360.074 498.374C360.767 497.755 372.854 446.734 372.854 446.734C372.854 446.734 379.764 453.347 380.185 442.97C380.457 436.084 370.179 417.311 370.179 417.311C370.179 417.311 418.054 385.411 420.679 388.878C423.28 392.321 425.657 394.426 430.561 399.9C436.976 407.107 446.462 417.41 453.099 426.822C454.09 428.233 455.056 429.62 455.972 430.982C460.505 437.645 464.319 443.861 466.523 448.443C474.548 465.161 475.514 483.489 475.514 483.489Z" fill="#FFD645"/>
<path d="M475.514 483.489L445.867 487.328C445.867 487.328 458.647 472.542 435.193 478.04C432.667 473.632 457.657 466.746 457.657 466.746C457.657 466.746 447.923 465.533 434.177 474.028C447.477 455.452 429.917 451.564 432.889 443.143C440.716 436.233 419.094 436.06 443.242 423.627C437.273 416.84 427.886 424.592 418.747 435.292C421.199 430.066 421.175 426.945 410.5 434.301C418.401 426.871 427.168 420.333 433.211 416.122C428.654 414.339 426.227 403.887 417.435 409.98C421.1 401.212 412.63 398.389 405.769 397.77C405.769 397.77 419.837 388.779 420.853 389.918C421.868 391.082 445.669 415.33 455.948 431.032C460.48 437.694 464.294 443.911 466.499 448.493C474.548 465.161 475.514 483.489 475.514 483.489Z" fill="#D3FF48"/>
<path d="M476.083 483.984L417.806 491.216L359.479 498.349L358.266 498.498L358.687 497.334C360.173 493.247 361.387 489.037 362.501 484.826C363.616 480.591 364.606 476.331 365.572 472.046C366.563 467.762 367.504 463.502 368.544 459.217C369.585 454.957 370.699 450.672 372.136 446.487L372.581 445.223L373.473 446.288C373.646 446.462 373.919 446.635 374.191 446.759C374.488 446.883 374.786 446.982 375.108 447.031C375.43 447.081 375.752 447.106 376.049 447.081C376.371 447.056 376.643 446.982 376.916 446.883C377.46 446.685 377.882 446.313 378.203 445.818C378.525 445.323 378.724 444.679 378.823 444.01C378.922 443.316 378.947 442.598 378.897 441.855C378.847 441.112 378.748 440.369 378.6 439.601C378.303 438.09 377.857 436.604 377.361 435.118C376.321 432.146 375.009 429.249 373.597 426.4C372.16 423.552 370.625 420.753 369.04 417.98L368.346 416.791L369.56 416.147C370.575 415.627 371.591 415.032 372.581 414.388C373.597 413.744 374.587 413.1 375.603 412.432L381.646 408.395C385.683 405.695 389.795 403.094 394.005 400.618C398.191 398.141 402.5 395.862 406.909 393.757C409.113 392.717 411.342 391.726 413.596 390.785C415.85 389.869 418.128 389.002 420.432 388.185L420.902 388.011L421.224 388.358C424.419 391.751 427.54 395.218 430.636 398.686C433.732 402.178 436.778 405.695 439.775 409.261C442.772 412.828 445.719 416.444 448.617 420.11C451.49 423.775 454.313 427.49 457.013 431.304C458.35 433.211 459.663 435.143 460.951 437.1C462.214 439.056 463.452 441.063 464.592 443.093C465.161 444.109 465.731 445.149 466.251 446.189C466.771 447.254 467.291 448.295 467.737 449.384C468.208 450.474 468.604 451.613 468.975 452.703L469.545 454.363C469.743 454.907 469.916 455.477 470.09 456.022C471.551 460.455 472.864 464.938 473.929 469.495C474.474 471.774 474.969 474.052 475.365 476.381L475.514 477.247L475.662 478.114C475.762 478.684 475.836 479.278 475.91 479.848C475.96 480.145 475.984 480.442 476.009 480.715C476.034 481.012 476.084 481.309 476.108 481.606C476.133 481.904 476.158 482.201 476.183 482.498L476.207 482.944L476.232 483.167V483.216V483.241C476.232 483.241 476.232 483.291 476.232 483.34C476.257 483.613 476.183 483.835 476.083 483.984ZM474.944 482.993C474.845 483.068 474.771 483.216 474.746 483.34C474.746 483.365 474.746 483.414 474.746 483.39V483.365V483.315V483.117L474.721 482.696C474.697 482.424 474.672 482.127 474.647 481.854C474.622 481.582 474.573 481.284 474.548 481.012C474.523 480.715 474.474 480.442 474.449 480.145C474.375 479.576 474.3 479.006 474.201 478.436L474.077 477.594L473.929 476.752C473.532 474.473 473.062 472.22 472.517 469.966C471.452 465.458 470.139 461.025 468.703 456.616C468.53 456.071 468.331 455.527 468.158 454.957L467.588 453.322C467.217 452.208 466.821 451.168 466.375 450.103C465.929 449.062 465.434 448.022 464.913 446.982C464.393 445.966 463.848 444.951 463.279 443.936C462.14 441.929 460.926 439.948 459.688 438.016C458.424 436.084 457.137 434.153 455.799 432.27C453.124 428.481 450.326 424.791 447.453 421.125C444.58 417.484 441.632 413.868 438.66 410.326C435.663 406.785 432.617 403.268 429.546 399.776C426.45 396.308 423.329 392.866 420.159 389.473L420.952 389.671C418.698 390.513 416.469 391.404 414.265 392.37C412.06 393.336 409.881 394.352 407.726 395.441C403.417 397.596 399.231 399.949 395.12 402.475C391.008 405.002 386.996 407.676 383.033 410.426L377.064 414.586C376.074 415.28 375.058 415.973 374.043 416.642C373.002 417.311 371.962 417.98 370.823 418.574L371.368 416.741C373.027 419.54 374.587 422.388 376.049 425.311C376.767 426.772 377.46 428.258 378.104 429.769C378.748 431.28 379.343 432.815 379.838 434.4C380.358 435.985 380.804 437.595 381.076 439.255C381.225 440.097 381.324 440.939 381.349 441.806C381.374 442.672 381.349 443.564 381.2 444.48C381.126 444.926 381.002 445.397 380.829 445.843C380.655 446.288 380.433 446.734 380.16 447.155C379.863 447.576 379.516 447.973 379.07 448.27C378.649 448.592 378.154 448.815 377.659 448.963C376.668 449.26 375.628 449.211 374.711 448.939C374.241 448.79 373.82 448.592 373.399 448.319C372.978 448.047 372.606 447.7 372.309 447.23L373.622 447.031C372.21 451.143 371.095 455.378 370.055 459.613C369.015 463.873 368.074 468.133 367.083 472.418C366.092 476.703 365.102 480.962 363.987 485.222C362.873 489.482 361.659 493.718 360.148 497.878L359.356 496.863L417.138 489.879L474.944 482.993Z" fill="black"/>
<path d="M303.605 415.057L305.66 422.685L317.152 446.709L324.706 448.443L327.877 443.787L361.486 407.453L364.78 396.729L365.869 378.649L338.328 374.885L356.086 383.875L360.569 396.283L350.687 405.992L318.886 419.664L303.605 415.057Z" fill="black"/>
<path d="M347.341 320.328L257.317 354.636L267.213 380.602L357.237 346.294L347.341 320.328Z" fill="black"/>
<path d="M362.749 340.979L373.597 328.818C375.033 327.208 376.891 326.044 378.971 325.474C383.826 324.112 392.37 321.883 392.37 321.883C393.014 321.982 393.534 322.527 393.584 323.196L395.194 344.991C395.218 345.288 395.169 345.585 395.02 345.858L384.148 365.102C383.999 365.374 383.751 365.597 383.479 365.721L377.114 368.544C376.717 368.718 372.284 369.486 371.913 369.287L370.006 365.597" fill="#0055FF"/>
<path d="M362.154 340.434L368.098 333.499L371.071 330.031L372.557 328.298L372.755 328.075L372.953 327.852C373.101 327.703 373.25 327.555 373.374 327.406C373.671 327.109 373.993 326.836 374.315 326.564C374.959 326.044 375.677 325.573 376.42 325.177C376.792 324.979 377.188 324.805 377.56 324.657C377.758 324.583 377.956 324.508 378.154 324.434L378.451 324.335L378.6 324.285L378.748 324.236L383.157 322.973L391.949 320.422L392.246 320.347L392.568 320.397C393.188 320.496 393.782 320.818 394.228 321.264C394.674 321.734 394.946 322.304 395.02 322.948V323.022V323.072V323.121V323.245L395.045 323.468L395.07 323.939L395.119 324.88L395.342 328.62L395.813 336.099L396.284 343.579L396.333 344.52L396.358 345.065C396.358 345.362 396.308 345.635 396.234 345.907C396.16 346.18 395.986 346.477 395.937 346.576L395.714 346.972L395.243 347.789L393.361 351.034L385.832 363.987L384.866 365.647C384.717 365.87 384.569 366.068 384.371 366.216C384.271 366.291 384.172 366.365 384.049 366.439C383.999 366.464 383.925 366.513 383.875 366.538L383.801 366.588L383.751 366.613L382.884 366.984L379.442 368.47L377.733 369.213L377.51 369.312L377.386 369.362L377.312 369.386H377.287H377.262L377.188 369.411C376.99 369.461 376.841 369.486 376.668 369.535C376.346 369.609 376.024 369.659 375.727 369.708C375.108 369.807 374.464 369.907 373.844 369.981C373.522 370.03 373.201 370.055 372.879 370.08C372.705 370.105 372.557 370.105 372.383 370.105C372.284 370.105 372.21 370.105 372.086 370.105C372.036 370.105 371.962 370.105 371.913 370.105C371.863 370.105 371.814 370.105 371.789 370.08C371.764 370.08 371.764 370.08 371.739 370.08L371.665 370.055C371.615 370.03 371.566 370.03 371.541 370.006H371.516L371.293 369.907L371.17 369.659L369.263 365.969L370.674 365.25L372.581 368.941L372.235 368.594C372.21 368.569 372.185 368.569 372.16 368.569C372.136 368.569 372.136 368.569 372.111 368.569C372.086 368.569 372.111 368.569 372.111 368.569C372.111 368.569 372.111 368.569 372.086 368.569H372.136C372.185 368.569 372.259 368.569 372.309 368.569C372.433 368.569 372.581 368.544 372.73 368.52C373.027 368.495 373.324 368.445 373.622 368.396C374.216 368.297 374.835 368.198 375.43 368.099C375.727 368.049 376.024 367.975 376.321 367.925C376.47 367.9 376.618 367.851 376.717 367.826H376.742C376.742 367.826 376.742 367.826 376.717 367.826L376.817 367.777L377.039 367.678L378.748 366.885L382.141 365.325L382.984 364.928L383.033 364.904H383.058L383.083 364.879C383.107 364.854 383.132 364.854 383.157 364.829C383.206 364.805 383.231 364.755 383.256 364.705L384.148 363.096L391.355 349.969L393.163 346.675L393.609 345.858C393.733 345.61 393.98 345.214 393.931 345.263C393.931 345.238 393.931 345.214 393.931 345.189L393.906 345.04L393.881 344.817L393.807 343.876L393.163 336.421L392.519 328.966L392.197 325.227L392.048 323.419C392.048 323.443 392.048 323.443 392.048 323.443L392.073 323.468L392.692 323.443L383.826 325.623L379.392 326.713L379.244 326.737L379.12 326.762L378.872 326.836C378.699 326.886 378.55 326.935 378.377 326.985C378.055 327.084 377.733 327.233 377.436 327.381C376.817 327.678 376.222 328.025 375.677 328.422C375.405 328.62 375.132 328.843 374.885 329.09C374.761 329.214 374.637 329.313 374.513 329.437L374.34 329.635L374.142 329.833L372.581 331.517L369.461 334.861L363.244 341.548L362.154 340.434Z" fill="black"/>
<path d="M369.089 348.012L378.55 329.957L388.655 328.669L387.442 344.594L375.529 361.535L373.448 355.542L376.99 351.133L376.074 348.433L369.089 348.012Z" fill="#0029BC"/>
<path d="M373.126 377.659C369.114 376.891 366.489 373.002 367.256 369.015C368.024 365.003 371.913 362.377 375.9 363.145L375.529 365.126C372.606 364.582 369.783 366.489 369.238 369.411C368.693 372.334 370.6 375.157 373.522 375.702C376.445 376.247 379.268 374.34 379.813 371.417C380.011 370.402 379.912 369.337 379.516 368.396L381.374 367.653C381.919 368.965 382.042 370.402 381.77 371.814C381.027 375.801 377.138 378.426 373.126 377.659Z" fill="#FFD645"/>
</svg>
