<svg width="637" height="654" viewBox="0 0 637 654" fill="none" xmlns="http://www.w3.org/2000/svg">
<path d="M379.859 84.2104L415.035 193.187L602.269 0L486.5 253.101L637 273.912L471.584 324.236L604.595 457.509L430.842 363.511L452.339 512.529L373.576 409.682L287.467 653.736L280.738 425.624L0 546L234.109 344.899L14 299.346L281.876 271.539L155.149 115.947L321.752 193.187L379.859 84.2104Z" fill="white"/>
<path d="M202.075 433.583C315.098 416.009 505.944 331.23 505.944 331.23L485.362 294.032L223.176 369.542L202.075 433.583Z" fill="#5A0070" stroke="black" stroke-miterlimit="10" stroke-linejoin="bevel"/>
<path d="M202.174 434.275L201.407 433.361L222.532 369.319L223.002 368.874L485.165 293.389L485.981 293.735L506.562 330.934L506.24 331.923C505.77 332.145 457.806 353.402 396.656 376.512C360.738 390.106 327.368 401.649 297.461 410.893C260.034 422.386 227.999 430.271 202.174 434.275ZM223.745 370.11L203.089 432.718C228.642 428.664 260.232 420.854 297.015 409.509C326.898 400.29 360.243 388.747 396.136 375.177C453.229 353.575 498.819 333.628 504.954 330.909L484.991 294.872L223.745 370.11Z" fill="black"/>
<path d="M202.075 433.583C244.375 402.341 433.91 312.026 505.944 331.231L491.67 237.776L504.212 130.011L461.714 171.609L431.362 175.613L451.968 198.303L444.744 236.738C378.994 231.004 342.927 255.77 342.927 255.77L330.311 224.034L356.607 195.683L322.742 198.106L284.35 162.192L280.021 212.862L255.334 236.269L285.859 238.542L300.206 272.182C239.156 293.933 201.506 325.793 201.506 325.793L185.056 308.565L205.662 274.604L156.411 285.826L104.29 281.154L172.366 359.012C172.415 359.037 202.52 428.566 202.075 433.583Z" fill="#FFD645"/>
<path d="M503.05 132.384L490.805 237.9L500.996 300.483C500.996 300.483 437.497 294.304 354.009 327.375C306.044 344.949 193.021 401.204 193.021 401.204L196.262 389.266C221.766 369.542 236.336 373.175 269.755 345.023C303.175 316.87 337.46 306.415 337.46 306.415C337.46 306.415 364.819 313.731 400.787 294.477C436.754 275.222 426.291 287.086 454.516 258.118C482.741 229.15 503.05 132.384 503.05 132.384Z" fill="#FFA748"/>
<path d="M202.594 434.3L201.184 433.509C201.259 432.619 199.997 427.083 186.59 394.753C179.54 377.748 172.341 361.113 171.649 359.507L103.647 281.747L104.389 280.289L156.361 284.936L205.489 273.739L206.429 275.049L186.169 308.417L201.58 324.582C203.98 322.629 213.058 315.437 227.505 306.39C242.94 296.701 267.826 282.86 299.019 271.663L285.241 239.383L255.259 237.158L254.715 235.651L279.155 212.491L283.46 162.143L284.944 161.574L323.063 197.216L356.532 194.818L357.25 196.301L331.326 224.281L343.348 254.51C346.069 252.804 354.652 247.861 368.901 243.313C378.969 240.124 389.754 237.801 400.985 236.466C414.763 234.81 429.234 234.612 444.002 235.848L451.003 198.625L430.694 176.256L431.238 174.798L461.293 170.818L503.594 129.442L505.078 130.184L492.561 237.826L506.785 331.181L505.696 332.17C489.098 327.746 465.029 328.932 434.206 335.68C407.787 341.463 377.163 351.128 343.174 364.401C295.358 382.988 229.706 414.254 202.594 434.3ZM106.417 282.242L173.059 358.444L173.207 358.666C173.281 358.839 180.826 376.265 188.222 394.086C199.206 420.557 202.05 429.035 202.743 432.001C225.056 415.96 282.618 386.053 342.531 362.67C376.619 349.373 407.317 339.684 433.835 333.875C464.163 327.227 488.059 325.941 504.855 330.069L490.805 237.925V237.702L503.049 132.408L462.332 172.252L461.838 172.499L433.143 176.281L452.611 197.735L452.833 198.501L445.61 236.936L444.67 237.653C410.855 234.711 385.104 240.001 369.445 244.994C352.525 250.382 343.521 256.487 343.422 256.561L342.111 256.166L329.495 224.429L329.668 223.515L354.455 196.771L322.816 199.045L322.148 198.798L285.067 164.12L280.887 212.985L280.615 213.554L257.362 235.576L285.884 237.702L286.626 238.246L300.973 271.885L300.454 273.072C269.013 284.269 243.905 298.209 228.395 307.947C211.599 318.477 202.149 326.46 202.05 326.534L200.838 326.46L184.388 309.233L184.264 308.17L203.807 275.988L156.584 286.74L156.312 286.765L106.417 282.242Z" fill="black"/>
<path d="M192.131 405.604L191.364 404.442C217.931 387.091 275.346 357.357 338.573 333.159C371.919 320.38 402.123 310.988 428.369 305.229C458.844 298.53 483.285 296.949 500.996 300.508L500.724 301.892C483.186 298.382 458.943 299.964 428.665 306.613C402.494 312.347 372.364 321.74 339.068 334.469C275.94 358.617 218.649 388.277 192.131 405.604Z" fill="black"/>
<path d="M219.838 392.357L215.147 408.034L230.836 412.722L235.528 397.045L219.838 392.357Z" fill="#FFD645"/>
<path d="M230.621 413.39L214.913 408.693L214.443 407.828L219.143 392.133L220.009 391.663L235.717 396.36L236.187 397.225L231.487 412.92L230.621 413.39ZM216.002 407.556L230.349 411.832L234.629 397.497L220.281 393.221L216.002 407.556Z" fill="black"/>
<path d="M249.403 376.472L244.711 392.149L260.401 396.837L265.092 381.16L249.403 376.472Z" fill="#FFD645"/>
<path d="M260.207 397.497L244.499 392.8L244.029 391.935L248.729 376.24L249.595 375.771L265.303 380.467L265.773 381.332L261.073 397.027L260.207 397.497ZM245.562 391.663L259.91 395.939L264.189 381.604L249.842 377.328L245.562 391.663Z" fill="black"/>
<path d="M281.978 360.98L277.286 376.657L292.976 381.345L297.667 365.668L281.978 360.98Z" fill="#FFD645"/>
<path d="M292.761 382.024L277.053 377.328L276.583 376.462L281.283 360.767L282.148 360.298L297.856 364.994L298.326 365.859L293.626 381.554L292.761 382.024ZM278.141 376.191L292.489 380.467L296.768 366.131L282.421 361.855L278.141 376.191Z" fill="black"/>
<path d="M315.587 345.665L310.168 361.107L325.622 366.521L331.041 351.08L315.587 345.665Z" fill="#FFD645"/>
<path d="M325.389 367.194L309.928 361.781L309.508 360.891L314.925 345.443L315.815 345.023L331.276 350.436L331.697 351.326L326.279 366.774L325.389 367.194ZM311.066 360.693L325.191 365.637L330.138 351.523L316.013 346.58L311.066 360.693Z" fill="black"/>
<path d="M352.402 331.986L345.67 346.902L360.598 353.629L367.33 338.713L352.402 331.986Z" fill="#FFD645"/>
<path d="M360.317 354.291L345.376 347.568L345.03 346.654L351.758 331.725L352.673 331.379L367.615 338.102L367.961 339.016L361.232 353.945L360.317 354.291ZM346.613 346.58L360.268 352.734L366.427 339.091L352.772 332.936L346.613 346.58Z" fill="black"/>
<path d="M388.709 319.555L381.88 334.427L396.765 341.251L403.593 326.379L388.709 319.555Z" fill="#FFD645"/>
<path d="M396.458 341.859L381.566 335.037L381.22 334.098L388.047 319.218L388.987 318.872L403.879 325.694L404.225 326.634L397.398 341.513L396.458 341.859ZM382.803 334.073L396.408 340.327L402.667 326.732L389.062 320.479L382.803 334.073Z" fill="black"/>
<path d="M428.538 308.638L419.735 322.435L433.543 331.232L442.347 317.435L428.538 308.638Z" fill="#FFD645"/>
<path d="M433.168 331.824L419.364 323.025L419.142 322.061L427.948 308.269L428.913 308.046L442.716 316.845L442.939 317.809L434.132 331.601L433.168 331.824ZM420.7 322.234L433.341 330.291L441.405 317.661L428.764 309.603L420.7 322.234Z" fill="black"/>
<path d="M467.717 302.452L458.348 315.873L471.78 325.234L481.148 311.813L467.717 302.452Z" fill="#FFD645"/>
<path d="M471.361 325.793L457.929 316.425L457.756 315.461L467.131 302.04L468.096 301.867L481.528 311.235L481.701 312.199L472.326 325.62L471.361 325.793ZM459.29 315.684L471.584 324.236L480.143 311.952L467.849 303.4L459.29 315.684Z" fill="black"/>
<path d="M501.837 304.413L505.028 326.09L492.487 315.535L501.837 304.413Z" fill="#FFD645"/>
<path d="M504.558 326.609L492.017 316.079L491.943 315.09L501.293 303.968L502.53 304.314L505.696 325.966L504.558 326.609ZM493.476 315.461L504.064 324.359L501.367 306.069L493.476 315.461Z" fill="black"/>
<path d="M201.061 428.961L192.329 407.532L207.418 413.884L201.061 428.961Z" fill="#FFD645"/>
<path d="M201.704 429.233H200.418L191.685 407.779L192.601 406.864L207.69 413.241L208.061 414.156L201.704 429.233ZM193.615 408.817L201.061 427.132L206.503 414.255L193.615 408.817Z" fill="black"/>
<path d="M257.362 235.552L294.74 223.935L285.067 164.071L285.389 212.12L257.362 235.552Z" fill="#FFEAB0"/>
<path d="M106.417 282.242C108.223 282.86 160.888 302.164 160.888 302.164L203.831 275.939L156.336 286.716L106.417 282.242Z" fill="#FFEAB0"/>
<path d="M504.212 130.011L468.047 181.694L443.26 180.112L452.833 198.476L433.143 176.256L461.838 172.474L504.212 130.011Z" fill="#FFEAB0"/>
<path d="M257.362 235.552L294.74 223.935L306.366 269.191L290.485 235.972L257.362 235.552Z" fill="#FFA748"/>
<path d="M160.913 302.164L200.863 326.411L184.438 309.159L203.856 275.914L160.913 302.164Z" fill="#FFA748"/>
<path d="M336.867 319.564C350.146 319.564 360.911 308.808 360.911 295.54C360.911 282.271 350.146 271.515 336.867 271.515C323.587 271.515 312.822 282.271 312.822 295.54C312.822 308.808 323.587 319.564 336.867 319.564Z" fill="#FFD645"/>
<path d="M336.891 320.256C328.951 320.256 321.159 316.45 316.36 309.406C308.716 298.11 311.684 282.712 322.964 275.074L323.36 275.642L322.964 275.074C328.431 271.366 335.011 270.032 341.517 271.268C347.998 272.503 353.613 276.211 357.324 281.673C364.968 292.969 361.999 308.368 350.719 316.005C346.489 318.897 341.665 320.256 336.891 320.256ZM323.781 276.236C313.119 283.453 310.324 297.962 317.547 308.615C324.77 319.268 339.291 322.061 349.952 314.844C360.614 307.626 363.409 293.117 356.186 282.464C352.698 277.299 347.404 273.813 341.27 272.652C335.135 271.49 328.926 272.751 323.781 276.236Z" fill="black"/>
<path d="M354.183 283.824C360.664 293.389 358.165 306.366 348.592 312.841C339.019 319.317 351.635 300.31 345.154 290.769C338.672 281.204 315.568 284.714 325.141 278.238C334.69 271.762 347.701 274.283 354.183 283.824Z" fill="#FFA748"/>
<path d="M336.867 312.495C331.227 312.495 325.958 309.702 322.816 305.055C317.572 297.319 319.6 286.765 327.343 281.525C330.163 279.622 333.453 278.608 336.842 278.608C342.482 278.608 347.751 281.401 350.892 286.048C353.44 289.805 354.356 294.303 353.515 298.752C352.649 303.202 350.126 307.033 346.366 309.578C343.546 311.482 340.256 312.495 336.867 312.495Z" fill="#FF8017"/>
<path d="M336.842 279.474C342.185 279.474 347.182 282.118 350.175 286.543C352.575 290.102 353.465 294.378 352.649 298.58C351.832 302.782 349.433 306.44 345.871 308.837C343.199 310.642 340.082 311.605 336.867 311.605C331.523 311.605 326.527 308.961 323.533 304.536C321.134 300.977 320.243 296.701 321.06 292.499C321.876 288.297 324.275 284.639 327.838 282.242C330.509 280.437 333.626 279.474 336.842 279.474ZM336.842 277.719C333.403 277.719 329.915 278.707 326.848 280.784C318.685 286.295 316.558 297.393 322.074 305.525C325.512 310.617 331.152 313.36 336.867 313.36C340.305 313.36 343.793 312.372 346.86 310.295C355.024 304.784 357.151 293.686 351.635 285.554C348.171 280.462 342.556 277.719 336.842 277.719Z" fill="black"/>
<path d="M349.878 286.74C354.331 293.29 352.624 302.213 346.044 306.662C346.044 306.662 346.44 297.047 341.962 290.472C337.51 283.898 329.915 282.884 329.915 282.884C336.52 278.435 345.45 280.19 349.878 286.74Z" fill="#FFA748"/>
<path d="M329.149 285.307C326.848 286.147 321.752 292.722 322.692 296.874C323.657 301.052 326.947 303.943 328.209 300.829C329.47 297.715 329.248 293.587 329.693 290.695C330.163 287.803 331.474 284.467 329.149 285.307Z" fill="#FFEAB0"/>
<path d="M319.155 284.046C317.522 284.639 313.911 289.286 314.603 292.227C315.296 295.169 316.236 296.726 317.127 294.526C318.017 292.326 317.893 290.052 318.24 288.001C318.586 285.949 320.837 283.453 319.155 284.046Z" fill="#FFEAB0"/>
<path d="M194.951 397.853C200.59 394.508 200.152 383.366 193.973 372.966C187.793 362.566 178.213 356.846 172.574 360.191C166.935 363.536 167.373 374.679 173.552 385.079C179.732 395.479 189.312 401.198 194.951 397.853Z" fill="#FFD645"/>
<path d="M191.265 399.523C189.088 399.523 186.639 398.757 184.091 397.225C179.96 394.753 176.002 390.576 172.96 385.435C169.917 380.318 168.136 374.831 167.938 370.011C167.74 365.043 169.274 361.336 172.218 359.581C175.186 357.826 179.169 358.271 183.423 360.817C187.554 363.289 191.512 367.466 194.555 372.607C197.598 377.723 199.379 383.21 199.577 388.03C199.774 392.998 198.241 396.706 195.297 398.461C194.085 399.177 192.724 399.523 191.265 399.523ZM176.225 359.952C174.988 359.952 173.875 360.248 172.91 360.817C170.412 362.3 169.125 365.562 169.323 369.987C169.496 374.584 171.228 379.824 174.147 384.743C180.109 394.802 189.286 400.413 194.58 397.274C199.873 394.135 199.329 383.408 193.368 373.348C190.449 368.405 186.664 364.401 182.706 362.053C180.356 360.644 178.154 359.952 176.225 359.952Z" fill="black"/>
<path d="M174.864 384.298C169.496 375.251 169.101 365.562 174.023 362.646C178.946 359.729 173.999 371.84 179.391 380.887C184.784 389.933 198.414 392.504 193.491 395.396C188.569 398.312 180.232 393.344 174.864 384.298Z" fill="#FFA748"/>
<path d="M185.031 395.173C180.801 395.173 175.705 391.392 172.366 385.781C168.037 378.489 167.988 370.506 172.242 367.96C173.083 367.466 174.073 367.194 175.161 367.194C179.391 367.194 184.487 370.976 187.827 376.586C192.155 383.878 192.205 391.861 187.95 394.407C187.109 394.901 186.12 395.173 185.031 395.173Z" fill="#FF8017"/>
<path d="M175.186 366.329V368.084C176.992 368.084 179.119 368.899 181.172 370.382C183.423 372.013 185.477 374.312 187.084 377.031C189.138 380.491 190.251 384.199 190.226 387.462C190.201 390.403 189.237 392.603 187.505 393.616C186.788 394.036 185.947 394.259 185.031 394.259C183.226 394.259 181.098 393.443 179.045 391.96C176.794 390.329 174.741 388.03 173.133 385.311C171.08 381.851 169.966 378.143 169.991 374.881C170.016 371.939 170.981 369.74 172.712 368.726C173.43 368.306 174.271 368.084 175.186 368.084V366.329ZM175.186 366.329C173.974 366.329 172.836 366.625 171.822 367.218C167.122 370.011 167.048 378.514 171.624 386.226C175.211 392.281 180.628 396.038 185.056 396.038C186.268 396.038 187.406 395.742 188.42 395.148C193.12 392.355 193.195 383.853 188.618 376.141C185.007 370.086 179.614 366.329 175.186 366.329Z" fill="black"/>
<path d="M172.613 385.633C168.927 379.429 168.977 372.557 172.762 370.333C172.762 370.333 173.652 378.02 177.338 384.249C181.024 390.477 186.12 392.85 186.12 392.85C182.36 395.075 176.299 391.837 172.613 385.633Z" fill="#FFA748"/>
<path d="M186.392 391.046C187.802 390.848 190.374 386.572 189.261 383.013C188.123 379.429 185.625 376.413 185.18 378.687C184.734 380.961 185.353 384.323 185.402 386.572C185.402 388.796 184.957 391.243 186.392 391.046Z" fill="#FFEAB0"/>
<path d="M196.287 392.207C197.202 392.109 198.735 389.291 197.87 386.794C197.004 384.298 196.212 382.864 195.99 384.397C195.767 385.929 196.188 387.758 196.262 389.291C196.336 390.823 195.347 392.306 196.287 392.207Z" fill="#FFEAB0"/>
<path d="M500.726 288.936C507.026 287.118 509.41 276.225 506.051 264.606C502.692 252.986 494.862 245.041 488.562 246.859C482.262 248.678 479.878 259.571 483.237 271.19C486.596 282.809 494.426 290.755 500.726 288.936Z" fill="#FFD645"/>
<path d="M498.894 289.904C496.148 289.904 493.204 288.421 490.409 285.603C487.02 282.168 484.249 277.126 482.592 271.391C480.935 265.657 480.588 259.923 481.627 255.202C482.691 250.332 485.09 247.144 488.405 246.18C491.72 245.216 495.455 246.65 498.943 250.184C502.332 253.62 505.103 258.662 506.76 264.396C508.417 270.131 508.764 275.865 507.725 280.586C506.661 285.455 504.262 288.644 500.947 289.608C500.279 289.805 499.586 289.904 498.894 289.904ZM490.458 247.292C489.889 247.292 489.32 247.366 488.801 247.515C486.006 248.33 483.952 251.148 483.012 255.474C482.023 259.947 482.369 265.459 483.952 270.971C487.193 282.193 494.664 289.954 500.576 288.248C503.371 287.432 505.424 284.615 506.364 280.289C507.354 275.816 507.007 270.304 505.424 264.792C503.841 259.28 501.169 254.435 497.954 251.173C495.43 248.627 492.833 247.292 490.458 247.292Z" fill="black"/>
<path d="M504.608 265.039C507.527 275.148 505.449 284.64 499.982 286.221C494.49 287.803 502.307 277.323 499.388 267.214C496.469 257.105 483.903 251.198 489.395 249.616C494.861 248.009 501.664 254.905 504.608 265.039Z" fill="#FFA748"/>
<path d="M501.516 281.698C497.038 281.698 492.14 276.334 490.087 269.216C488.925 265.187 488.776 261.158 489.691 257.846C490.557 254.683 492.239 252.606 494.466 251.939C494.936 251.791 495.43 251.741 495.95 251.741C500.427 251.741 505.325 257.105 507.378 264.223C509.728 272.355 507.774 280.116 503 281.476C502.53 281.624 502.035 281.698 501.516 281.698Z" fill="#FF8017"/>
<path d="M495.95 250.876V252.631C497.805 252.631 499.883 253.743 501.788 255.745C503.866 257.945 505.548 261.035 506.537 264.47C508.714 272.009 506.983 279.424 502.752 280.635C502.357 280.759 501.936 280.808 501.516 280.808C499.66 280.808 497.582 279.696 495.678 277.694C493.6 275.494 491.918 272.404 490.928 268.969C489.815 265.113 489.667 261.232 490.532 258.069C491.299 255.226 492.783 253.348 494.713 252.779C495.109 252.656 495.529 252.606 495.95 252.606V250.876ZM495.925 250.876C495.331 250.876 494.762 250.95 494.193 251.123C488.949 252.631 486.723 260.862 489.221 269.488C491.448 277.175 496.692 282.613 501.516 282.613C502.109 282.613 502.678 282.538 503.247 282.365C508.491 280.858 510.718 272.627 508.219 264.001C505.993 256.289 500.773 250.876 495.925 250.876Z" fill="black"/>
<path d="M507.106 264.297C509.11 271.243 507.329 277.867 503.099 279.078C503.099 279.078 504.187 271.416 502.159 264.47C500.155 257.525 495.826 253.941 495.826 253.941C500.056 252.73 505.103 257.377 507.106 264.297Z" fill="#FFA748"/>
<path d="M495.158 255.597C493.748 255.449 490.186 258.909 490.359 262.641C490.557 266.373 492.215 269.933 493.229 267.856C494.243 265.78 494.466 262.345 495.01 260.17C495.529 258.019 496.593 255.77 495.158 255.597Z" fill="#FFEAB0"/>
<path d="M485.857 251.989C484.942 251.84 482.765 254.213 482.963 256.833C483.161 259.453 483.581 261.06 484.175 259.626C484.769 258.192 484.843 256.339 485.14 254.806C485.461 253.299 486.797 252.137 485.857 251.989Z" fill="#FFEAB0"/>
</svg>
