<svg width="33" height="23" viewBox="0 0 33 23" fill="none" xmlns="http://www.w3.org/2000/svg">
<path d="M32.6182 15.7123C32.1195 11.3516 30.7826 7.22426 28.7986 3.31975C28.6182 2.95901 28.2574 2.61948 27.8967 2.43911C25.9126 1.48421 23.7906 0.964312 21.658 0.518689C21.4246 0.476249 21.1381 0.677841 20.8834 0.762721C21.223 1.00675 21.52 1.07041 21.7959 1.18712C23.1646 1.74946 24.5333 2.30118 25.8808 2.90596C26.2203 3.0545 26.4643 3.40463 26.7508 3.65927C19.8861 0.868822 13.1275 0.879432 6.33703 3.71232C7.90732 2.01471 10.1354 1.65397 12.1832 0.730891C11.9391 0.64601 11.6739 0.465639 11.4511 0.508079C9.23358 0.964313 7.03729 1.50543 4.98955 2.52399C4.7243 2.65131 4.46966 2.91657 4.34233 3.18182C3.73756 4.44442 3.13279 5.71763 2.6235 7.02266C1.20175 10.715 0.289286 14.524 0.299896 18.5028C0.299896 18.7998 0.459047 19.1818 0.681859 19.3622C1.54127 20.0731 2.42191 20.7839 3.36621 21.3887C4.74552 22.2693 6.26276 22.8741 7.93915 22.8423C8.22562 22.8423 8.60758 22.7998 8.77735 22.6195C9.32907 22.0041 9.80652 21.3144 10.3476 20.6036C10.093 20.4975 9.91262 20.4338 9.73225 20.3489C8.72429 19.8184 7.70573 19.3197 6.7296 18.7362C6.4113 18.5558 6.22032 18.1632 5.97629 17.8662C6.01873 17.8131 6.07178 17.7707 6.11422 17.7176C13.0638 21.516 20.024 21.5054 27.0267 17.7813C26.0612 19.4364 24.3105 19.8609 22.7402 20.6248C22.9842 20.9537 23.2601 21.2083 23.4086 21.5266C24.0983 22.959 25.2548 23.0333 26.5917 22.715C28.9471 22.142 30.8569 20.8158 32.5863 19.203C32.7137 19.0863 32.7773 18.8529 32.7667 18.6725C32.7349 17.6752 32.7243 16.6884 32.6182 15.7123ZM11.5466 15.8821C10.0824 15.8821 8.90467 14.6619 8.92589 13.1659C8.94711 11.6911 10.1142 10.5664 11.589 10.577C13.0426 10.5983 14.2097 11.7972 14.1991 13.2402C14.1779 14.6937 12.9789 15.8821 11.5466 15.8821ZM21.4882 15.8821C20.0559 15.8821 18.8569 14.6725 18.8569 13.2189C18.8569 11.7654 20.0346 10.577 21.4776 10.577C22.9524 10.577 24.1089 11.7123 24.1301 13.1871C24.1513 14.6831 22.963 15.8821 21.4882 15.8821Z" fill="#8B95AD"/>
</svg>
