<svg width="25" height="25" viewBox="0 0 25 25" fill="none" xmlns="http://www.w3.org/2000/svg">
<path d="M19.3991 0.782715H5.39861C2.72019 0.782715 0.776855 2.7176 0.776855 5.39602V19.388C0.776855 22.0665 2.71174 24.0098 5.39016 24.0098H19.3822C22.0606 24.0098 24.0039 22.0665 24.0039 19.3965V5.40447C24.0124 2.7176 22.0775 0.782715 19.3991 0.782715ZM12.4284 17.7996C9.43737 17.8165 7.00397 15.3831 7.00397 12.392C7.00397 9.41788 9.42892 6.98449 12.4031 6.98449C15.3772 6.98449 17.8106 9.40098 17.8191 12.3751C17.8191 15.3577 15.3941 17.7911 12.4284 17.7996ZM18.664 7.93081C17.6754 7.93926 16.8643 7.12812 16.8643 6.13111C16.8727 5.15099 17.6754 4.35676 18.6555 4.35676C19.6356 4.35676 20.4383 5.15944 20.4383 6.13956C20.4383 7.11968 19.6441 7.92236 18.664 7.93081Z" fill="#8B95AD"/>
</svg>
