<svg width="175" height="58" viewBox="0 0 175 58" fill="none" xmlns="http://www.w3.org/2000/svg">
<path d="M5.60034 38.7996L0 19.8401H3.7919L7.52545 33.7826H7.70046L11.434 19.8401H15.2259L18.9595 33.7243H19.1345L22.8097 19.8401H26.6016L21.1179 38.7996H17.326L13.4758 25.0904H13.1841L9.3339 38.7996H5.60034Z" fill="black"/>
<path d="M31.9102 39.2079C30.6851 39.2079 29.6351 38.9745 28.6434 38.5078C27.6516 38.0411 26.8932 37.3994 26.3682 36.5244C25.7848 35.6493 25.4932 34.5992 25.4932 33.3742C25.4932 32.3241 25.7265 31.4491 26.1349 30.749C26.5432 30.049 27.1266 29.5239 27.8266 29.1156C28.5267 28.7072 29.2851 28.4155 30.1601 28.1822C31.0352 27.9488 31.9102 27.8322 32.7853 27.7155C33.8937 27.5988 34.8271 27.4822 35.5271 27.3655C36.2271 27.3071 36.7522 27.1321 37.0439 26.9571C37.3939 26.7821 37.5106 26.4321 37.5106 25.9654C37.5106 24.9153 37.2189 24.0403 36.5772 23.4569C35.9938 22.8735 35.0604 22.5819 33.8937 22.5819C32.6686 22.5819 31.6769 22.8735 30.9768 23.3986C30.2768 23.9236 29.7518 24.5653 29.5184 25.207L26.0182 24.3903C26.4266 23.2236 27.0099 22.2902 27.8266 21.5901C28.6434 20.8901 29.5184 20.3651 30.5685 20.015C31.6185 19.665 32.6686 19.5483 33.8353 19.5483C34.5937 19.5483 35.4104 19.665 36.2271 19.84C37.1022 20.015 37.8606 20.3651 38.619 20.8317C39.3773 21.2984 39.9607 21.9985 40.4274 22.8152C40.8941 23.6903 41.1274 24.7987 41.1274 26.1987V38.7995H37.5106V36.2327H37.3355C37.1022 36.6994 36.7522 37.1661 36.2855 37.6328C35.8188 38.0995 35.1771 38.4495 34.4187 38.7995C33.8937 39.0912 32.9603 39.2079 31.9102 39.2079ZM32.7269 36.2327C33.777 36.2327 34.652 36.0577 35.3521 35.6493C36.0521 35.241 36.6355 34.7159 37.0439 34.0742C37.4522 33.4325 37.6272 32.7325 37.6272 31.9741V29.5239C37.5106 29.6406 37.2189 29.7573 36.8689 29.874C36.5188 29.9906 36.0521 30.1073 35.5854 30.1656C35.1187 30.224 34.652 30.3407 34.1854 30.399C33.7187 30.4573 33.3686 30.5157 33.077 30.574C32.3769 30.6907 31.7352 30.8074 31.0935 31.0407C30.5101 31.274 30.0434 31.5657 29.6934 31.9741C29.3434 32.3824 29.1684 32.9075 29.1684 33.5492C29.1684 34.4826 29.5184 35.1243 30.1601 35.591C30.8018 35.9993 31.6769 36.2327 32.7269 36.2327Z" fill="black"/>
<path d="M57.9868 19.8401L51.1031 38.7996H47.1362L40.2524 19.8401H44.2193L49.003 34.4243H49.178L53.9616 19.8401H57.9868Z" fill="black"/>
<path d="M65.2204 39.2076C63.3537 39.2076 61.7202 38.7993 60.3785 37.9826C59.0367 37.1658 57.9867 36.0574 57.2866 34.599C56.5866 33.1406 56.1782 31.4488 56.1782 29.4654C56.1782 27.5403 56.5282 25.7902 57.2866 24.3317C57.9867 22.8733 59.0367 21.7066 60.3785 20.8315C61.7202 20.0148 63.237 19.6064 64.9871 19.6064C66.0372 19.6064 67.0872 19.7815 68.0789 20.1315C69.0707 20.4815 70.0041 21.0649 70.7624 21.8232C71.5792 22.5816 72.1625 23.5734 72.6292 24.7984C73.0959 26.0235 73.3293 27.4819 73.3293 29.1737V30.4571H58.2783V27.7153H69.7707C69.7707 26.7235 69.5957 25.9068 69.1873 25.1484C68.779 24.3901 68.254 23.8067 67.5539 23.34C66.8539 22.9316 65.9788 22.6983 65.0454 22.6983C63.9954 22.6983 63.1203 22.9316 62.3619 23.4567C61.6035 23.9817 61.0202 24.6234 60.6118 25.4401C60.2035 26.2568 59.9701 27.1319 59.9701 28.0653V30.2238C59.9701 31.5072 60.2035 32.5572 60.6702 33.4323C61.1369 34.3073 61.7202 35.0074 62.5369 35.4741C63.3537 35.9408 64.287 36.1741 65.3371 36.1741C66.0371 36.1741 66.6789 36.0574 67.2622 35.8824C67.8456 35.7074 68.3123 35.3574 68.779 34.949C69.1873 34.5407 69.5374 34.074 69.7707 33.4323L73.2709 34.074C72.9792 35.124 72.5125 35.9991 71.7542 36.7575C71.0541 37.5159 70.1207 38.0992 69.0707 38.5659C67.8456 38.9743 66.6205 39.2076 65.2204 39.2076Z" fill="black"/>
<path d="M87.9135 24.4484L84.5883 25.0318C84.4716 24.6234 84.2382 24.2151 83.9466 23.8067C83.6549 23.3983 83.2465 23.1067 82.7215 22.8733C82.1965 22.64 81.5548 22.5233 80.7964 22.5233C79.7463 22.5233 78.8713 22.7566 78.1712 23.2233C77.4712 23.69 77.1211 24.2734 77.1211 25.0318C77.1211 25.6735 77.3545 26.1985 77.8212 26.5485C78.2879 26.9569 79.0463 27.2486 80.0963 27.4819L83.1298 28.182C84.88 28.5903 86.1634 29.232 87.0384 30.0487C87.9135 30.8655 88.3218 31.9739 88.3218 33.3156C88.3218 34.424 87.9718 35.4741 87.3301 36.3491C86.6884 37.2242 85.755 37.9242 84.5883 38.4492C83.4215 38.9743 82.0798 39.2076 80.563 39.2076C78.4629 39.2076 76.7128 38.7409 75.371 37.8659C74.0293 36.9325 73.2126 35.6491 72.9209 33.9573L76.4794 33.4323C76.7128 34.3657 77.1795 35.0657 77.8795 35.5324C78.5796 35.9991 79.4546 36.2325 80.563 36.2325C81.7881 36.2325 82.7215 35.9991 83.4799 35.4741C84.1799 34.949 84.5883 34.3657 84.5883 33.6073C84.5883 33.0239 84.3549 32.4989 83.9466 32.0905C83.4799 31.6822 82.8382 31.3905 81.9048 31.1571L78.6962 30.4571C76.9461 30.0487 75.6044 29.407 74.7877 28.532C73.971 27.6569 73.5043 26.5485 73.5043 25.2068C73.5043 24.0984 73.796 23.1067 74.4377 22.2899C75.0794 21.4732 75.9544 20.7732 77.0045 20.3065C78.1129 19.8398 79.3963 19.6064 80.7964 19.6064C82.8382 19.6064 84.4716 20.0731 85.6383 20.9482C86.8051 21.7649 87.5634 22.99 87.9135 24.4484Z" fill="black"/>
<path d="M140.598 25.5691C140.884 25.8792 141.266 25.8792 141.6 25.8792C141.647 25.8792 141.695 25.8792 141.767 25.8792C141.79 25.8792 141.79 25.8792 141.814 25.8792C142.267 25.8792 142.434 25.7361 142.53 25.2352L142.745 23.0885L143.031 21.4189C143.055 21.2042 143.102 20.918 143.15 20.5841C143.269 19.7493 143.46 18.6282 143.412 17.6503C143.412 17.4356 143.46 17.3164 143.579 17.1971C144.128 17.9842 145.821 20.1786 146.895 21.562C147.324 22.1345 147.706 22.6115 147.73 22.6592C148.04 23.1362 149.018 22.8739 149.447 22.5876C149.852 22.3253 149.852 22.0391 149.733 21.8482C149.709 21.8244 149.685 21.729 149.662 21.6574C149.638 21.6097 149.638 21.5382 149.614 21.4905C149.518 21.2519 148.851 20.2979 147.801 18.7713C146.942 17.531 145.988 16.1715 145.631 15.5275C145.917 15.2412 146.775 13.7863 149.399 9.11127C150.234 7.63245 151.069 6.10592 151.212 5.9151C151.713 5.48577 151.188 4.41243 150.854 3.93539C150.473 3.41064 150.21 3.41064 150.019 3.5299C149.757 3.72072 148.66 5.50962 146.37 9.27824C145.368 10.924 144.271 12.7368 143.651 13.6909C143.675 13.2615 143.722 12.7606 143.746 12.2359C143.818 11.0671 143.913 9.73142 144.009 9.25438L144.128 8.10949V8.08564C144.128 7.94252 144.08 7.82326 143.961 7.75171C143.579 7.51319 142.554 7.72786 141.934 8.06178C141.409 8.34801 141.29 8.65808 141.29 8.87275C141.29 9.80298 141.242 10.7809 141.146 11.9735C141.123 12.3313 141.051 12.6891 140.979 13.0707C140.932 13.3569 140.884 13.6432 140.836 13.9532C140.789 14.3826 140.765 14.788 140.765 15.2174C140.765 15.5036 140.741 15.7898 140.717 16.0522C140.646 16.6962 140.55 17.3879 140.502 18.0558C140.455 19.1291 140.431 20.3217 140.455 21.7051C140.455 22.1106 140.431 22.5161 140.407 22.9693C140.383 23.2794 140.383 23.5894 140.383 23.8757C140.359 24.2573 140.335 24.6628 140.335 25.0683V25.0921V25.116C140.359 25.2591 140.455 25.4499 140.598 25.5691Z" fill="#0055FF"/>
<path d="M150.64 15.4083L150.616 15.7184C150.568 16.1954 150.545 16.6725 150.521 17.1257V17.3403C150.354 20.5365 150.401 20.7989 150.521 20.9181C150.568 20.9897 150.664 21.0851 150.95 21.0851C151.26 21.0851 151.761 20.9897 152.62 20.6558L152.739 20.6081L152.763 20.4888C152.763 20.465 152.763 20.4649 152.763 20.4411C152.954 20.3695 153.144 20.2741 153.335 20.2026C153.526 20.131 153.717 20.0356 153.908 19.9641C154.098 19.8925 154.265 19.7971 154.456 19.7255C154.814 19.5586 155.196 19.3916 155.577 19.2724C155.911 19.1769 156.245 19.1054 156.579 19.0577C156.77 19.0338 156.937 19.01 157.128 18.9623C157.175 18.9384 157.223 18.9384 157.271 18.9146C157.295 18.8907 157.342 18.8907 157.39 18.8669L158.773 18.3421C159.394 18.1513 159.203 16.6725 159.084 16.1954C158.964 15.7184 158.773 15.5276 158.511 15.5753C158.273 15.623 158.034 15.6707 157.843 15.6707C157.414 15.6468 157.032 15.7184 156.722 15.8854C156.674 15.9092 156.579 15.9331 156.484 15.9569C156.436 15.9808 156.388 15.9808 156.341 15.9808L156.245 16.0046C155.911 16.0762 155.601 16.1477 155.267 16.2431L152.715 16.9349C152.739 16.6725 152.787 16.4578 152.834 16.2431C152.906 15.9808 152.954 15.6946 152.977 15.3368C153.073 14.3111 153.359 12.069 153.454 11.4727L153.478 11.4489H153.502C153.788 11.2819 154.075 11.1627 154.385 11.0196L154.409 10.9957C154.576 10.9003 155.339 10.5902 155.935 10.3517C156.412 10.1609 156.818 9.99392 156.985 9.92237C157.318 9.77925 157.366 9.30221 157.152 8.65821C156.985 8.20502 156.794 7.99035 156.579 8.06191L153.669 8.92058C153.741 7.75183 153.931 5.17582 154.051 4.15018C154.051 4.12633 154.098 4.10248 154.098 4.07863C154.242 3.98322 154.409 3.95937 154.599 3.88781C154.886 3.7924 155.172 3.72085 155.458 3.64929C155.744 3.57773 156.054 3.48233 156.317 3.41077C156.364 3.38692 156.412 3.38692 156.46 3.38692C156.674 3.33921 156.889 3.29151 157.08 3.1484C157.724 2.69521 158.463 2.45669 159.107 2.28973C159.322 2.24202 159.489 1.97965 159.584 1.50261C159.584 1.50261 159.847 0.333863 159.561 0.0714908C159.489 -6.51982e-05 159.394 -6.52019e-05 159.298 0.0237868C159.131 0.0714908 158.964 0.143047 158.821 0.214603C158.75 0.238455 158.678 0.262307 158.606 0.286159C158.511 0.310011 158.44 0.357715 158.344 0.357715C158.201 0.381567 158.082 0.381567 157.939 0.405419C157.748 0.405419 157.557 0.429271 157.366 0.476975C156.46 0.715495 155.601 0.954015 154.695 1.21639L154.003 1.4072C153.979 1.4072 153.932 1.4072 153.884 1.4072C153.86 1.4072 151.928 1.74113 151.856 2.48054C151.809 2.76677 151.594 4.84189 151.594 5.05656C151.594 5.24737 151.57 5.34278 151.57 5.48589C151.546 5.65286 151.522 5.86753 151.522 6.24916L151.499 7.13168C151.332 8.5628 150.783 13.7148 150.735 14.1203C150.688 14.5258 150.664 14.979 150.64 15.4083Z" fill="#0055FF"/>
<path d="M166.907 2.93379C167.193 2.81454 168.052 2.74298 168.815 2.67142C169.602 2.59987 170.342 2.52831 170.676 2.4329C170.771 2.40905 170.843 2.3852 170.89 2.3852H170.914H170.938C171.081 2.3852 171.534 2.3375 171.654 1.8366V1.7889L171.63 1.64579C171.63 1.57423 171.606 1.47882 171.558 1.43112L171.415 0.524744C171.367 0.286224 171.177 0.166964 171.033 0.095408L170.914 0L170.342 0.047704V0.11926C168.624 0.5963 159.203 3.17231 158.654 3.50624L158.63 3.53009C158.535 3.60165 158.463 3.64935 158.368 3.67321C157.605 3.86402 157.509 5.55751 157.605 5.98685C157.676 6.32078 157.939 6.27307 157.963 6.24922L159.704 5.84374C159.799 5.81989 161.54 5.22359 161.803 5.10433L162.995 4.74655L163.043 4.72269C162.924 5.03277 162.9 5.31899 162.9 5.62907C162.9 5.72448 162.924 5.84374 162.9 5.93915V5.963C162.876 6.27307 162.852 6.58315 162.828 6.91708C162.781 7.39412 162.733 7.87116 162.733 8.3482C162.685 9.20687 162.542 9.89858 162.327 10.5664C162.256 10.805 162.208 11.0912 162.208 11.3535C162.16 12.2122 161.994 14.2396 161.874 15.4561V15.4799C161.779 16.1478 161.707 16.8395 161.636 17.5074C161.612 17.6505 161.707 17.8413 161.97 17.889C161.994 17.889 162.017 17.889 162.065 17.889C162.494 17.889 163.52 17.5789 163.615 17.1734C163.687 16.7441 163.759 16.3386 163.83 15.9331C163.926 15.3845 164.021 14.8598 164.116 14.3112C164.188 13.9773 164.283 13.5956 164.379 13.1902C164.522 12.6654 164.641 12.1168 164.736 11.6159C164.784 11.3535 164.832 11.0912 164.903 10.8288C164.999 10.3756 165.094 9.89858 165.166 9.39769C165.261 8.77753 165.333 8.06197 165.38 7.39412C165.38 7.25101 165.404 7.10789 165.404 6.96478C165.428 6.48774 165.452 6.03455 165.524 5.58137C165.595 5.10433 165.667 4.60343 165.714 4.12639C165.738 3.91173 165.762 3.67321 165.786 3.45854V3.43469C166.144 3.26772 166.502 3.07691 166.907 2.93379Z" fill="#0055FF"/>
<path d="M135.518 30.9124C135.136 30.8408 134.73 30.7454 134.325 30.7693C133.633 30.7931 133.037 30.9124 132.465 31.0794C132.536 30.9124 132.584 30.7693 132.608 30.6023C132.727 30.1253 132.822 29.6721 132.942 29.1951C133.085 28.5511 133.252 27.8832 133.395 27.2392C133.609 26.309 133.705 25.3787 133.8 24.4724C133.848 23.9476 133.92 23.399 133.991 22.8504C134.063 22.3257 134.182 21.8009 134.325 21.2285C134.349 21.1808 134.349 21.1092 134.373 21.0615C134.373 21.0615 134.397 21.0615 134.397 21.0854C134.54 21.1808 134.683 21.3 134.778 21.3955L134.802 21.4193C134.969 21.5386 135.136 21.7055 135.303 21.8486C135.374 21.8963 135.422 21.9679 135.494 22.0395C135.947 22.4211 137.068 24.2577 137.736 25.3549C138.213 26.142 138.332 26.3328 138.428 26.4044C138.499 26.4521 138.642 26.4998 138.857 26.4282C139.239 26.2613 139.93 25.5457 139.978 25.1879V25.1641V24.9017L139.954 24.854C139.906 24.7824 139.883 24.687 139.835 24.5916C139.763 24.4008 139.668 24.21 139.549 24.0192C139.477 23.8999 139.405 23.8045 139.334 23.6852C139.119 23.3752 138.928 23.0889 138.809 22.755C138.761 22.6358 138.714 22.5165 138.69 22.3972C138.595 22.1349 138.499 21.8486 138.356 21.5624C138.237 21.3955 138.141 21.2046 138.022 21.0138C137.784 20.5845 137.545 20.1552 137.14 19.7974C137.116 19.7735 137.068 19.6781 137.044 19.6066C136.877 19.2726 136.686 18.9387 136.352 18.6525C136.305 18.6048 136.233 18.5571 136.185 18.4855C136.305 18.3901 136.424 18.2708 136.519 18.1754C136.734 17.9846 136.925 17.7938 137.14 17.6268L137.33 17.4599C137.76 17.1021 138.189 16.7205 138.499 16.1957C138.571 16.0765 138.666 15.9333 138.738 15.8141C139.095 15.2655 139.453 14.693 139.596 14.0013C139.644 13.7867 139.692 13.5959 139.739 13.405C139.787 13.2619 139.835 13.095 139.859 12.9518C140.026 12.2601 140.097 11.64 140.049 10.996C140.026 10.4235 139.716 10.0419 139.167 9.85109C138.714 9.66027 138.237 9.61257 137.855 9.61257C137.068 9.58872 136.305 9.68412 135.637 9.92264H135.613C135.518 9.82724 135.422 9.75568 135.279 9.68412L135.208 9.63642L135.112 9.66027C134.969 9.70798 134.826 9.73183 134.683 9.77953C134.54 9.82724 134.42 9.87494 134.301 9.89879C133.824 9.97035 133.633 10.3043 133.514 10.6144C133.49 10.6382 133.466 10.6621 133.419 10.6859C133.347 10.7336 133.276 10.7575 133.18 10.7813C133.085 10.829 132.989 10.8529 132.894 10.9006C132.632 11.0675 132.345 11.2107 132.083 11.3538C131.797 11.4969 131.534 11.6638 131.272 11.807C130.986 11.9739 130.676 12.1647 130.413 12.3794C130.246 12.4748 130.127 12.5941 129.984 12.7133C129.912 12.7849 129.817 12.8564 129.745 12.9041C129.698 12.928 129.65 12.9518 129.626 12.9996C129.507 13.0711 129.388 13.1665 129.292 13.2858C128.982 13.6436 129.078 13.9059 129.173 14.0252C129.388 14.3591 129.698 14.2399 129.841 14.1922L129.912 14.1683C130.079 14.0967 130.246 14.0013 130.413 13.9775C131.32 13.7867 132.059 13.6197 132.727 13.2858C132.846 13.2381 132.989 13.1904 133.132 13.1665C133.013 13.9059 132.87 14.5738 132.751 15.2178C132.703 15.4325 132.632 15.6471 132.56 15.8618C132.512 16.0288 132.441 16.2196 132.393 16.4104C132.321 16.7205 132.274 17.0544 132.226 17.3645C132.178 17.603 132.154 17.8415 132.107 18.08C132.011 18.6525 132.011 19.2726 132.107 20.012C132.202 20.656 132.083 21.2762 131.988 21.9679C131.964 22.1587 131.94 22.3495 131.892 22.5404C131.821 23.0412 131.701 23.5421 131.582 24.0192C131.487 24.4008 131.391 24.8063 131.32 25.2118C131.153 26.2136 131.01 27.1915 130.89 28.1694V28.2171C130.819 29.0281 130.771 29.8391 130.723 30.65C130.509 30.1968 130.27 29.7437 130.056 29.3143L129.292 27.8355C129.245 27.7401 129.173 27.5731 129.125 27.4539L128.457 24.9733C128.41 24.7824 128.338 24.6155 128.267 24.4247C128.147 24.0669 128.004 23.733 127.933 23.3752C127.813 22.8027 127.718 22.2303 127.646 21.6578C127.599 21.3955 127.575 21.1569 127.527 20.9184C127.527 20.7753 127.503 20.656 127.527 20.5368C127.623 20.1074 127.503 19.7258 127.408 19.3442C127.265 18.8433 127.146 18.2947 127.05 17.7461C127.026 17.5791 126.979 17.4122 126.955 17.2214C126.835 16.5535 126.692 15.8379 126.406 15.1462C126.358 15.0508 126.358 14.9077 126.335 14.7646C126.335 14.6692 126.311 14.5738 126.311 14.4784C126.239 14.1444 126.168 13.8105 126.072 13.4766L126.001 13.2858C125.953 13.1427 125.81 12.9041 125.285 12.928C124.927 12.928 124.116 13.095 124.045 13.5481C124.045 13.6436 123.997 13.739 123.949 13.8344C123.902 13.9298 123.878 14.049 123.83 14.1922L123.782 14.3591C123.687 14.6692 123.592 15.0031 123.52 15.337C123.425 16.0526 123.353 16.8159 123.258 17.5314C123.21 18.0562 123.138 18.5809 123.091 19.1057C123.019 19.4634 122.948 19.8451 122.733 20.2029C122.59 20.4652 122.518 20.6799 122.494 20.8469C122.423 21.5147 122.351 22.1826 122.304 22.8266C122.28 23.1367 122.184 23.4229 122.089 23.6614C121.898 23.9953 121.85 24.3531 121.922 24.687C121.946 24.854 121.922 25.021 121.922 25.1641C121.898 25.3787 121.85 25.5934 121.827 25.7842C121.779 26.142 121.707 26.4998 121.683 26.8576V26.8814C121.683 27.0245 121.588 27.8355 121.516 28.5272C121.421 29.3382 121.373 29.8629 121.373 29.9345C121.302 30.817 121.278 31.5803 121.326 32.3674C121.326 32.4389 121.326 32.5343 121.302 32.6297C121.302 32.6775 121.278 32.7252 121.278 32.7729C121.159 32.4866 121.063 32.2243 120.944 31.938C120.777 31.5564 120.61 31.1032 120.539 30.6977C120.3 29.6721 120.109 28.6465 119.895 27.6924C119.608 26.4282 119.298 25.1641 119.012 23.8761C118.607 22.1587 118.463 20.4175 118.32 18.6763V17.9846C118.44 17.2691 118.32 16.6012 118.201 15.8618C117.915 14.5976 117.772 13.2858 117.533 11.9978C117.366 10.9006 117.175 9.82724 116.961 8.70619L116.651 7.0127C116.579 6.44025 113.765 5.65314 113.645 6.20173C113.455 6.89344 113.24 7.58515 113.144 8.253C112.858 10.5189 112.667 12.761 112.405 15.0747C112.31 15.7902 112.143 16.5296 111.833 17.1259C111.666 17.436 111.522 17.7938 111.499 18.1754C111.356 19.2726 111.26 20.4175 111.189 21.634C111.117 22.2303 110.974 22.8027 110.783 23.399C110.64 23.8045 110.473 24.2815 110.545 24.687C110.735 25.975 110.211 27.1199 110.306 28.3841L110.187 28.4079C110.163 28.3125 110.115 28.2648 110.091 28.1694C109.924 27.5016 109.757 26.8576 109.638 26.1897C109.257 24.6155 109.137 22.9935 108.994 21.3478C108.946 21.0854 108.923 20.7753 108.97 20.4891C109.137 19.7497 108.923 19.058 108.78 18.3424C108.541 17.0544 108.398 15.8141 108.159 14.5261C107.992 13.4289 107.802 12.3078 107.587 11.1868C107.492 10.6144 107.372 10.0658 107.325 9.49331C107.229 9.04012 104.415 8.22915 104.271 8.8016C104.105 9.49331 103.914 10.1612 103.842 10.9483C103.556 12.8803 103.341 14.86 103.15 16.8397C103.055 17.9846 102.864 19.058 102.339 19.9643C102.244 20.2029 102.173 20.4414 102.173 20.656C102.053 21.8725 101.91 23.0174 101.815 24.1623C101.791 24.7586 101.672 25.3072 101.433 25.8558C101.218 26.3328 101.123 26.8337 101.195 27.4062C101.266 27.7639 101.242 28.1933 101.195 28.5272C101.195 28.9565 101.075 29.362 101.028 29.7437C100.932 30.6262 100.861 31.4848 100.598 32.3674C100.455 32.8206 100.431 33.3692 100.407 33.9178C100.36 34.204 100.384 34.5141 100.36 34.848C100.36 35.2773 100.264 35.7305 100.264 36.1598C100.264 36.8038 100.288 37.4479 100.264 38.0442C100.264 38.4735 100.193 38.8551 100.169 39.2368L100.193 41.5265C100.169 42.1228 100.169 42.7668 100.193 43.3393L100.288 44.508C100.336 44.7704 100.384 45.0805 100.527 45.319C100.813 45.9392 102.602 45.486 102.745 45.1759C102.793 45.0089 102.817 44.842 102.817 44.675C102.864 43.7448 102.864 42.8384 102.936 41.9797C102.96 41.2165 103.055 40.5009 103.103 39.8092C103.127 38.9982 103.007 38.1157 103.341 37.2809C103.365 37.1616 103.341 37.0662 103.365 36.947L103.437 34.9434C103.461 34.6095 103.413 34.2994 103.532 34.0609C103.818 33.2976 103.842 32.4389 104.009 31.6518C104.081 31.1032 104.081 30.6262 103.938 30.1253C103.866 29.9345 103.914 29.7675 103.938 29.6005C104.033 28.6703 104.152 27.6685 104.271 26.7383C104.295 26.4044 104.415 26.1182 104.534 25.8081C104.605 25.5219 104.749 25.331 104.796 25.0448C105.106 23.8522 105.393 22.6596 105.559 21.3955L105.703 20.7276C105.726 20.6083 105.75 20.5606 105.774 20.4414C105.917 20.7276 105.965 20.99 105.965 21.2523C106.037 22.1349 106.204 23.0174 106.514 23.9238C106.585 24.1146 106.681 24.377 106.728 24.6155C106.895 25.8081 107.086 27.0007 107.325 28.2171C107.492 29.0997 107.706 30.006 107.921 30.9124C108.04 31.3656 108.326 31.7234 108.469 32.1766C108.851 33.3215 109.686 38.5212 109.924 41.2403C110.163 43.9594 112.644 41.1211 112.548 40.1193C112.453 39.1175 112.763 34.1324 112.811 33.4407C112.858 32.9398 112.858 32.4628 112.93 32.0096C113.073 31.3417 113.216 30.7216 113.264 30.006C113.264 29.362 113.311 28.6465 113.359 27.9548C113.383 27.8355 113.359 27.7401 113.383 27.6208C113.288 26.8337 113.407 26.0704 113.526 25.2833L113.669 24.6155C113.765 24.1623 113.86 23.7091 113.955 23.3275C114.003 23.1128 114.122 22.8504 114.218 22.5642C114.528 21.3716 114.814 20.179 114.981 18.9148L115.124 18.247C115.148 18.1277 115.22 18.0562 115.243 17.9608L115.458 19.1295C115.601 19.8928 115.792 20.656 115.935 21.4193C116.15 22.3734 116.484 23.3752 116.579 24.377C116.675 25.331 116.841 26.2374 117.008 27.1676C117.08 27.5731 117.199 27.9786 117.366 28.3602C117.557 28.9088 117.772 29.3859 117.963 29.9345C118.368 31.2225 118.726 32.6059 119.251 33.8223C119.704 34.8957 120.014 36.0644 120.467 37.1139C120.706 37.7102 120.872 38.3065 121.063 38.9028C121.421 39.9523 121.898 40.8587 122.661 41.5742C123.019 41.8605 124.474 40.4532 124.379 40.2147L122.876 36.3268C122.757 36.0167 122.638 35.7067 122.518 35.3966C122.542 35.3966 122.542 35.3966 122.566 35.3966C122.638 35.4204 122.733 35.4204 122.804 35.4204C123.258 35.4204 123.592 35.1581 123.711 34.681C123.782 34.3471 123.806 33.9893 123.806 33.6554L123.926 31.6995C123.949 31.3417 123.949 30.984 123.926 30.65C123.926 30.6023 123.926 30.5546 123.926 30.5069C123.926 30.4592 123.926 30.4354 123.926 30.4354C124.14 29.9583 124.14 29.4574 124.14 28.9804V28.7657C124.14 28.5034 124.236 28.3364 124.474 28.1933L124.975 27.7878C125.237 27.597 125.5 27.4062 125.738 27.1915C125.977 27.0007 126.239 26.786 126.502 26.619C126.549 26.5713 126.621 26.5475 126.692 26.5236C126.74 26.6429 126.812 26.7622 126.859 26.8814C126.931 27.0245 127.002 27.1915 127.074 27.3108L127.169 27.5731C127.456 28.3125 127.742 29.0758 128.195 29.7437C128.219 29.7914 128.219 29.8391 128.267 29.8868C128.362 30.1253 128.457 30.3638 128.577 30.6023C128.791 31.1032 129.006 31.628 129.245 32.1289C129.316 32.272 129.411 32.4389 129.531 32.6059C129.507 32.6775 129.459 32.7252 129.316 32.7729C129.197 32.7967 129.125 32.8683 129.03 32.9398C128.982 32.9875 128.934 33.0114 128.887 33.0352L128.863 33.0591C128.601 33.2738 128.314 33.4646 128.052 33.6792C127.766 33.8939 127.503 34.0847 127.217 34.3232C127.169 34.3471 127.122 34.3709 127.074 34.4186C126.979 34.4664 126.859 34.5379 126.764 34.6572L126.597 34.8241L126.764 34.9911C126.907 35.1342 128.1 36.2791 128.982 35.7305C129.101 35.6351 129.268 35.5635 129.435 35.492C129.411 36.1121 129.411 36.7561 129.34 37.3763C129.316 37.8295 129.268 38.2588 129.197 38.712L129.101 39.9762C129.078 40.0716 129.078 40.167 129.078 40.2385C129.078 40.2624 129.078 40.2862 129.078 40.3101C129.078 40.4771 129.054 40.644 129.054 40.811C129.03 41.2165 129.006 41.6697 129.078 42.099C129.149 42.6237 129.125 42.8861 128.791 43.1962C128.481 43.4824 128.243 43.8163 128.004 44.1264C127.885 44.2934 127.742 44.4842 127.599 44.6512L127.384 45.0089C127.241 45.2952 127.313 45.8915 127.551 46.0823C127.79 46.2969 128.29 46.2254 128.553 46.0107L128.648 45.8915C128.815 45.7245 128.982 45.5575 129.149 45.3906C129.245 45.2713 129.364 45.1759 129.459 45.0566C129.483 45.5098 129.483 45.9392 129.459 46.3685C129.435 46.8932 129.388 47.4418 129.34 47.9666C129.268 48.8968 129.173 49.8509 129.221 50.805C129.221 51.2582 129.245 51.8783 129.268 52.5223C129.292 53.1663 129.292 53.7865 129.316 54.2397C129.34 54.5736 129.364 54.9075 129.411 55.2653C129.435 55.5992 129.483 55.9331 129.507 56.2671L129.555 56.6964V56.7203C129.602 56.9826 129.722 57.1735 129.912 57.2689C130.008 57.3166 130.127 57.3643 130.246 57.3643C130.318 57.3643 130.413 57.3404 130.509 57.3166C130.986 57.1973 131.32 56.8634 131.463 56.3386C131.558 55.9093 131.606 55.48 131.654 55.1222C131.749 54.1681 131.868 53.0709 131.94 52.0214C131.964 51.449 131.964 50.5903 131.964 49.827C131.964 49.35 131.964 48.8968 131.964 48.539C131.964 48.1574 131.94 47.7758 131.916 47.3941C131.868 46.4878 131.821 45.6291 132.011 44.7466C132.035 44.6273 132.011 44.508 132.011 44.4126C132.011 44.3888 132.011 44.3411 132.011 44.3172C132.011 44.2457 132.011 44.1503 132.011 44.0787C132.011 43.864 132.011 43.6732 132.059 43.5301C132.154 43.22 132.321 42.91 132.465 42.6237C132.536 42.5045 132.584 42.3614 132.655 42.266C132.965 41.6935 133.442 41.288 133.943 40.8348L134.134 40.6679C134.707 40.1193 135.184 39.523 135.565 38.8551C135.828 38.3781 136.018 37.8533 136.233 37.3763L136.352 37.0424C136.519 36.6369 136.662 36.1837 136.758 35.6351C136.829 35.2296 136.925 34.7287 136.949 34.204C136.949 33.56 136.949 32.916 136.901 32.272C136.519 31.5564 136.162 31.1032 135.518 30.9124ZM131.677 36.0167C131.701 35.8021 131.701 35.5874 131.701 35.3966C131.701 35.3012 131.701 35.2058 131.701 35.1104L131.749 34.2755V34.2517C131.749 34.204 131.725 34.1086 131.892 34.0132L132.083 33.9178C132.655 33.6077 133.228 33.2738 133.872 33.1068C133.943 33.0829 134.015 33.0829 134.086 33.0829C134.206 33.0829 134.301 33.1068 134.373 33.1545C134.492 33.226 134.54 33.3453 134.564 33.5123C134.587 33.7508 134.611 33.9893 134.611 34.2517C134.611 34.3709 134.611 34.5141 134.635 34.6333C134.635 34.7526 134.635 34.848 134.635 34.9672C134.635 35.1819 134.659 35.3727 134.635 35.5874C134.611 36.2791 134.23 36.8038 133.872 37.257C133.466 37.7579 133.037 38.235 132.584 38.6882C132.369 38.9267 132.131 39.1652 131.916 39.4037C131.797 39.523 131.677 39.6661 131.534 39.8092C131.463 38.4258 131.487 37.1855 131.677 36.0167ZM137.736 11.5923C137.807 11.5923 137.879 11.6161 137.927 11.6638C138.022 11.7354 138.07 11.8547 138.07 11.9739C138.07 12.1647 138.046 12.3794 138.022 12.5941C137.998 12.7372 137.998 12.8803 137.974 13.0234L137.855 13.8821C137.784 14.3353 137.521 14.7407 137.092 15.1701C136.496 15.6948 135.875 16.1957 135.231 16.7205C135.041 16.8636 134.85 17.0305 134.659 17.1737C134.778 16.148 134.945 15.0031 135.279 13.8821C135.327 13.7151 135.351 13.5481 135.351 13.405C135.374 13.2619 135.374 13.1427 135.422 12.9996V12.9518C135.446 12.7372 135.47 12.5225 135.518 12.284C135.518 12.2601 135.565 12.2363 135.589 12.2124C136.352 11.8308 137.02 11.64 137.664 11.5684C137.712 11.5923 137.736 11.5923 137.736 11.5923ZM125.81 24.0192C125.81 24.043 125.786 24.0907 125.738 24.1384L124.212 25.2356C124.236 25.1402 124.236 25.021 124.259 24.9256C124.283 24.8301 124.283 24.7347 124.307 24.6393C124.331 24.5439 124.331 24.4247 124.355 24.3531V24.3293C124.379 24.2815 124.379 24.2338 124.403 24.1623C124.45 23.9953 124.474 23.8284 124.546 23.6614L124.736 23.0889C124.88 22.6119 125.023 22.1349 125.118 21.6578C125.214 22.0156 125.309 22.3734 125.476 22.7073C125.595 22.9935 125.667 23.2798 125.738 23.5898C125.738 23.7091 125.762 23.8522 125.81 24.0192Z" fill="#0055FF"/>
<path d="M146.275 44.5316C146.108 44.4362 145.965 44.4839 145.893 44.5078C145.559 44.6986 145.225 44.8656 144.915 45.0802L144.796 45.1518C144.104 45.5811 143.46 45.9627 142.697 45.8912H142.554L142.53 45.915C142.315 45.9389 142.077 45.9627 141.862 45.9866C141.481 46.0343 141.123 46.0582 140.765 46.1059C140.741 46.1059 140.694 46.1059 140.646 46.1059C140.264 46.1059 139.954 46.1059 139.739 46.1536C139.716 45.9866 139.692 45.8435 139.692 45.6765C139.644 45.271 139.596 44.8656 139.525 44.4601C139.31 43.4344 139.334 42.3134 139.573 41.0731C139.692 40.5006 139.739 39.9282 139.739 39.475C139.739 38.831 139.763 38.2824 139.835 37.7815C139.883 37.4476 139.883 37.1137 139.883 36.7797C139.883 36.6128 139.883 36.4696 139.883 36.3027C139.883 36.1119 139.883 35.9449 139.883 35.7779C139.883 35.611 139.883 35.444 139.883 35.277C139.883 34.967 139.906 34.633 139.93 34.2991C139.954 33.9652 139.978 33.6313 139.978 33.2973C139.978 32.3433 140.073 31.413 140.264 30.4828C140.336 30.1489 140.407 29.8149 140.431 29.4333C140.431 29.314 140.383 29.1948 140.288 29.1471C140.121 29.0517 139.883 29.0755 139.501 29.2902C138.928 29.5764 137.879 30.3635 137.855 30.8883C137.807 31.6992 137.784 32.3194 137.784 32.8918C137.784 33.1781 137.784 33.4404 137.784 33.7028C137.784 34.0367 137.807 34.3945 137.784 34.7523C137.712 35.7302 137.593 36.732 137.497 37.71L137.45 38.0916C137.33 39.1888 137.187 40.3098 137.235 41.407C137.235 42.0749 137.235 42.7666 137.402 43.506L137.45 43.673C137.521 43.9592 137.617 44.2692 137.593 44.5793C137.569 45.5096 137.664 46.3682 137.76 47.203C137.736 47.2746 137.736 47.3939 137.736 47.4893C137.712 47.8471 137.736 48.181 137.784 48.5388L137.807 48.8011C137.831 48.9919 137.974 49.1589 138.094 49.2305C138.261 49.3259 138.428 49.4213 138.642 49.469C138.69 49.469 138.738 49.4928 138.809 49.4928C139.024 49.5405 139.215 49.5882 139.429 49.5882C139.477 49.5882 139.549 49.5882 139.596 49.5882C140.717 49.4928 141.791 49.0397 142.673 48.6103L142.912 48.4911C143.413 48.2525 143.89 48.014 144.414 47.8709C144.891 47.7278 145.392 47.5608 145.893 47.3939C146.251 47.2507 146.585 47.1076 146.967 46.9407C147.062 46.893 147.181 46.7737 147.205 46.4875C147.181 45.9866 146.704 44.794 146.275 44.5316Z" fill="#0055FF"/>
<path d="M157.247 43.6489C156.865 42.8379 156.483 42.027 156.078 41.2876L155.315 39.8087C155.267 39.7133 155.195 39.5464 155.148 39.4271L154.48 36.9465C154.432 36.7557 154.36 36.5887 154.289 36.3979C154.17 36.0401 154.027 35.7062 153.955 35.3484C153.836 34.776 153.74 34.2035 153.669 33.6311C153.621 33.3687 153.597 33.1302 153.549 32.8917C153.549 32.7486 153.526 32.6293 153.549 32.51C153.645 32.0807 153.526 31.6991 153.43 31.3174C153.287 30.8165 153.168 30.2679 153.072 29.7193C153.049 29.5524 153.001 29.3854 152.977 29.1946C152.858 28.5267 152.715 27.8112 152.428 27.1195C152.381 27.0241 152.381 26.881 152.357 26.714C152.357 26.6186 152.333 26.5232 152.333 26.4278C152.261 26.0938 152.166 25.7599 152.095 25.426L152.023 25.2352C151.975 25.0921 151.856 24.8535 151.307 24.8774C150.95 24.8774 150.139 25.0444 150.067 25.4975C150.067 25.593 150.019 25.6884 149.972 25.7838C149.924 25.8792 149.9 25.9984 149.852 26.1415L149.805 26.3085C149.709 26.6186 149.614 26.9525 149.542 27.2864C149.447 28.002 149.375 28.7414 149.28 29.4808C149.232 30.0056 149.161 30.5303 149.113 31.0551C149.041 31.4128 148.97 31.7945 148.755 32.1523C148.612 32.4146 148.541 32.6293 148.517 32.7963C148.445 33.4641 148.374 34.132 148.326 34.776C148.302 35.086 148.207 35.3723 148.111 35.6108C147.92 35.9447 147.873 36.3025 147.944 36.6364C147.968 36.8034 147.944 36.9704 147.944 37.1135C147.92 37.3281 147.873 37.5428 147.849 37.7336C147.801 38.0914 147.73 38.4492 147.706 38.807V38.8308C147.706 38.9739 147.61 39.7849 147.539 40.4766C147.443 41.2876 147.396 41.8123 147.396 41.8839C147.324 42.7664 147.3 43.5297 147.348 44.3168C147.348 44.3883 147.348 44.4837 147.324 44.5791C147.3 44.6746 147.276 44.77 147.276 44.8654C147.229 45.1993 147.157 45.5332 147.181 45.9149C147.181 46.535 147.777 47.2506 148.374 47.346C148.445 47.3698 148.541 47.3698 148.612 47.3698C149.065 47.3698 149.399 47.1075 149.519 46.6304C149.59 46.2965 149.614 45.9387 149.614 45.6048L149.733 43.6489C149.757 43.2911 149.757 42.9334 149.733 42.5994C149.733 42.5517 149.733 42.504 149.733 42.4563C149.733 42.4086 149.733 42.3848 149.733 42.3848C149.948 41.9077 149.948 41.4068 149.948 40.9059V40.6913C149.948 40.4289 150.043 40.2619 150.282 40.1188L150.783 39.7133C151.045 39.5225 151.307 39.3317 151.546 39.117C151.784 38.9262 152.047 38.7116 152.309 38.5446C152.357 38.4969 152.428 38.473 152.5 38.4492C152.548 38.5684 152.619 38.6877 152.667 38.807C152.739 38.9501 152.81 39.117 152.882 39.2363L152.977 39.4987C153.263 40.2381 153.549 41.0013 154.003 41.6692C154.027 41.7169 154.027 41.7646 154.074 41.8123C154.17 42.0508 154.265 42.2894 154.384 42.5279C154.599 43.0288 154.814 43.5535 155.052 44.0544C155.267 44.4837 155.577 45.0085 156.126 45.3663C156.436 45.6286 156.77 45.7002 157.127 45.5571C157.199 45.5332 157.27 45.5332 157.342 45.5094C157.437 45.4855 157.533 45.4855 157.628 45.4378C157.843 45.3901 157.986 45.2709 158.034 45.1039C158.081 44.9369 158.034 44.7223 157.867 44.5791C157.604 44.3645 157.414 44.0067 157.247 43.6489ZM151.832 36.0401C151.832 36.064 151.808 36.1117 151.761 36.1594L150.234 37.2566C150.258 37.1612 150.258 37.0419 150.282 36.9465C150.306 36.8511 150.306 36.7557 150.329 36.6603C150.353 36.5649 150.353 36.4456 150.377 36.3741V36.3502C150.401 36.3025 150.401 36.2548 150.425 36.1832C150.473 36.0163 150.496 35.8493 150.568 35.6824L150.759 35.1099C150.902 34.6329 151.045 34.1558 151.14 33.6788C151.236 34.0366 151.331 34.3943 151.498 34.7283C151.617 35.0145 151.689 35.3007 151.761 35.6108C151.761 35.7301 151.808 35.8732 151.832 36.0401Z" fill="#0055FF"/>
<path d="M165.166 33.2022C164.76 32.9875 164.426 32.9637 164.092 33.1307C163.997 33.1784 163.925 33.2261 163.878 33.2738C163.83 33.2976 163.806 33.3215 163.782 33.3453L163.758 33.3692C163.711 33.4169 163.639 33.4646 163.568 33.5123C163.401 33.6315 163.234 33.7747 163.138 33.9416C162.924 34.2517 162.757 34.6333 162.661 34.9673C162.447 35.5636 162.16 36.0406 161.826 36.4222C161.493 36.8039 161.278 37.1616 161.159 37.5671C161.087 37.8295 160.968 38.0442 160.849 38.2827C160.801 38.3781 160.753 38.4735 160.705 38.5928L160.658 38.6405C160.658 38.6643 160.634 38.6882 160.61 38.712C160.586 38.7597 160.538 38.8313 160.515 38.9028C160.3 39.3322 159.966 39.69 159.465 40.0239C159.394 40.0716 159.37 40.0716 159.346 40.0716C159.346 40.0716 159.298 40.0477 159.274 40C159.227 39.9046 159.179 39.7615 159.155 39.6184V39.5468C159.107 39.2368 159.06 38.9028 159.06 38.5689C159.06 38.2827 159.107 37.9726 159.131 37.6864C159.155 37.3763 159.179 37.0662 159.203 36.78C159.25 36.136 159.25 35.492 159.274 34.8719C159.274 34.5618 159.298 34.2517 159.298 33.8939C159.298 33.8462 159.298 33.7985 159.298 33.7508C159.298 33.7031 159.298 33.6315 159.298 33.5838C159.322 33.4169 159.346 33.2261 159.394 33.0591C159.561 32.1527 159.727 31.1986 159.751 30.2207C159.775 29.529 159.871 28.8373 159.966 28.1456L159.99 27.8832C160.085 27.1915 160.205 26.4998 160.371 25.7127C160.419 25.4503 160.467 25.1879 160.515 24.9494C160.562 24.687 160.61 24.4247 160.658 24.1623C160.682 24.0669 160.682 23.9715 160.705 23.8761C160.777 23.2798 160.872 22.7073 161.23 22.2303C161.397 22.0156 161.516 21.8248 161.612 21.634C161.731 21.4432 161.874 21.3716 162.16 21.3716C162.375 21.3716 162.518 21.4432 162.59 21.6578C162.661 21.8487 162.757 22.0156 162.852 22.1826C162.948 22.3496 163.019 22.4927 163.091 22.6596C163.281 23.1128 163.496 23.5899 163.663 24.0192C163.687 24.0669 163.711 24.1146 163.735 24.1385C163.902 24.4247 164.188 24.5201 164.498 24.377C164.784 24.2816 164.999 24.0669 165.094 23.733C165.213 23.3513 165.333 22.8743 165.237 22.3257C165.07 21.7055 164.927 21.1331 164.76 20.5607C164.736 20.4652 164.665 20.3698 164.617 20.2744C164.593 20.2267 164.569 20.2029 164.546 20.1552L164.522 20.1313C164.45 20.0359 164.379 19.9166 164.307 19.7974C164.236 19.6781 164.164 19.5589 164.069 19.4396C163.949 19.2726 163.782 19.1057 163.615 18.9864C163.234 18.724 162.804 18.7002 162.375 18.7002L162.017 18.724L161.373 18.9149C161.254 18.9626 161.159 19.0103 161.087 19.058L161.063 19.0818C160.968 19.1295 160.849 19.1772 160.729 19.2249C160.515 19.2965 160.3 19.3919 160.109 19.535C159.417 20.1313 158.869 20.9661 158.559 21.9202C158.439 22.2303 158.344 22.5642 158.249 22.8981C158.129 23.3036 158.01 23.733 157.843 24.1385C157.652 24.6393 157.485 25.2356 157.509 25.8796C157.509 25.9751 157.509 26.0943 157.509 26.1897L157.199 28.9327C157.151 29.3859 157.08 29.8391 157.032 30.2684C156.937 30.9124 156.818 31.6041 156.818 32.2958C156.818 33.2022 156.746 34.1324 156.674 34.9434L156.436 37.6387C156.436 37.7818 156.412 37.9011 156.412 38.0442C156.412 38.3065 156.388 38.5689 156.34 38.8074C156.245 39.5707 156.15 40.3578 156.245 41.1449C156.317 41.6935 156.531 42.1229 156.937 42.4329C157.08 42.5522 157.247 42.6715 157.462 42.6953H157.485H157.509C157.605 42.6953 157.7 42.7192 157.795 42.7192C157.891 42.743 158.01 42.7669 158.106 42.7669C158.177 42.7669 158.273 42.7669 158.392 42.7669C158.463 42.7669 158.535 42.7669 158.63 42.7669L159.584 42.4806C159.68 42.4568 159.775 42.4329 159.894 42.3375C160.061 42.2421 160.228 42.1229 160.395 42.0275C160.801 41.7889 161.206 41.5266 161.588 41.2642C161.993 40.978 162.351 40.6202 162.685 40.2863C162.781 40.1908 162.9 40.0954 162.995 39.9762C163.138 39.8331 163.21 39.6661 163.281 39.4991C163.305 39.4514 163.329 39.3799 163.377 39.3322C163.448 39.2129 163.496 39.0937 163.544 38.9505L163.568 38.8551C163.687 38.5212 163.83 38.1873 163.949 37.9011C163.997 37.8295 164.021 37.7341 164.069 37.6625C164.116 37.5671 164.14 37.4717 164.188 37.4002L164.212 37.3763C164.259 37.3048 164.307 37.2332 164.379 37.1616C164.474 37.0424 164.569 36.947 164.641 36.8039C164.832 36.303 164.999 35.8021 165.142 35.3489L165.476 34.2756C165.667 33.8939 165.571 33.4169 165.166 33.2022Z" fill="#0055FF"/>
<path d="M174.73 33.5837C174.587 33.0828 174.301 33.0828 174.182 33.1066C173.943 33.1543 173.705 33.202 173.514 33.202C173.084 33.202 172.703 33.2736 172.393 33.4167C172.345 33.4405 172.25 33.4644 172.154 33.4882C172.107 33.5121 172.059 33.5121 172.011 33.5121L171.94 33.536C171.606 33.6075 171.296 33.6791 170.962 33.7745L168.409 34.5616C168.409 34.2277 168.433 33.8699 168.433 33.5121C168.433 33.202 168.433 32.9158 168.433 32.6057C168.457 32.2718 168.457 31.9617 168.481 31.6516C168.505 30.9122 168.553 30.1728 168.6 29.4096C168.6 28.9802 168.672 28.527 168.72 28.0738L168.743 27.8353L168.767 27.8115H168.791C169.077 27.6445 169.34 27.5014 169.65 27.3344L169.674 27.3106C169.817 27.2152 170.842 26.9767 171.606 26.8097C172.631 26.5712 173.251 26.4281 173.442 26.3326C173.943 26.0703 173.943 24.9015 173.8 24.5199C173.705 24.3052 173.538 24.2575 173.418 24.3052C173.323 24.3291 173.251 24.3768 173.156 24.4006C173.084 24.4245 173.013 24.4483 172.941 24.4722L168.815 25.2593C168.815 24.7346 168.839 24.186 168.863 23.6374C168.886 23.0888 168.886 22.5402 168.91 21.9916C168.958 20.9421 169.006 19.8688 169.101 18.7716C169.101 18.7477 169.125 18.7 169.149 18.7C169.292 18.6046 169.459 18.5569 169.65 18.4853C169.912 18.3899 170.508 18.2468 171.081 18.1037C171.701 17.9606 172.273 17.8175 172.56 17.6982C172.607 17.6744 172.655 17.6744 172.703 17.6505C172.917 17.6028 173.132 17.5313 173.323 17.3881C173.919 16.9111 174.039 15.647 173.824 15.2415C173.728 15.0507 173.538 15.0029 173.418 15.0507C173.156 15.1222 172.44 15.2653 171.629 15.4323C167.527 16.2671 166.859 16.5295 166.835 16.935C166.811 17.245 166.644 19.8688 166.644 20.0834C166.644 20.2027 166.644 20.2981 166.668 20.4174C166.692 20.7513 166.716 21.0852 166.668 21.4191C166.573 22.087 166.549 22.7787 166.573 23.4704L166.597 24.3529C166.573 24.7584 166.549 25.14 166.525 25.5455C166.454 26.5235 166.382 27.5491 166.334 28.527C166.31 28.8133 166.31 29.0756 166.287 29.338C166.287 29.6004 166.263 29.8627 166.239 30.1251C166.239 30.3398 166.215 30.5306 166.191 30.7453C166.167 30.9599 166.167 31.1746 166.144 31.3654C166.12 31.7948 166.096 32.2479 166.096 32.7011V33.0112C166.072 33.4882 166.072 33.9653 166.072 34.4185V34.6331C166.048 37.877 166.12 38.0917 166.239 38.2109C166.263 38.2586 166.31 38.2825 166.358 38.3064C166.406 38.3302 166.454 38.3302 166.501 38.3302C166.883 38.3302 167.622 38.0201 169.268 37.233C169.411 37.1615 169.507 37.1138 169.554 37.0899C169.721 37.0183 169.912 36.9229 170.079 36.8275C170.437 36.6367 170.818 36.4697 171.176 36.3266C171.486 36.2074 171.82 36.1358 172.178 36.0643C172.345 36.0166 172.536 35.9927 172.727 35.945C172.774 35.9212 172.822 35.8973 172.87 35.8734C172.894 35.8496 172.941 35.8496 172.989 35.8257L174.349 35.2294C174.897 35.1579 174.873 34.1084 174.73 33.5837Z" fill="#0055FF"/>
</svg>
