<svg width="111" height="43" viewBox="0 0 111 43" fill="none" xmlns="http://www.w3.org/2000/svg">
<path d="M35.0586 30.9609H38.4768C38.7651 30.9609 38.971 30.9609 39.1769 31.0021C39.3828 31.0433 39.5064 31.0433 39.6299 31.1257C39.7535 31.1669 39.8358 31.2492 39.9182 31.2904C40.0006 31.3316 40.0417 31.4551 40.0829 31.5375C40.1241 31.6199 40.1241 31.7434 40.1241 31.867C40.1241 31.9905 40.1241 32.1141 40.1241 32.2788C40.1241 32.4435 40.1241 32.5671 40.1241 32.6906C40.1241 32.8142 40.0829 32.9377 40.0417 33.0201C40.0006 33.1436 39.9594 33.226 39.877 33.3084C39.7946 33.3907 39.6711 33.4319 39.5475 33.5143C39.3828 33.5555 39.2181 33.5967 38.971 33.6378C38.7239 33.679 38.4356 33.679 38.065 33.679H35.594V35.4911H35.0586V30.9609ZM35.6352 33.1848H38.1061C38.3532 33.1848 38.5591 33.1848 38.7239 33.1848C38.8886 33.1848 39.0122 33.1436 39.1357 33.1436C39.2593 33.1025 39.3416 33.1025 39.3828 33.0613C39.424 33.0201 39.5064 32.9789 39.5064 32.8965C39.5064 32.8142 39.5475 32.7318 39.5475 32.6494C39.5475 32.5671 39.5475 32.4435 39.5475 32.32C39.5475 32.1964 39.5475 32.0729 39.5475 31.9905C39.5475 31.9081 39.5064 31.8258 39.5064 31.7434C39.4652 31.661 39.424 31.6199 39.3828 31.5787C39.3416 31.5375 39.2181 31.4963 39.1357 31.4963C39.0122 31.4963 38.8886 31.4551 38.7239 31.4551C38.5591 31.4551 38.3532 31.4551 38.1061 31.4551H35.6352V33.1848Z" fill="#8B95AD"/>
<path d="M40.7827 30.9609H41.3181V35.4911H40.7827V30.9609Z" fill="#8B95AD"/>
<path d="M47.0424 32.3612C47.0424 32.1141 47.0012 31.9493 46.96 31.8258C46.9188 31.7022 46.8365 31.5787 46.7129 31.5375C46.5894 31.4551 46.4658 31.414 46.2599 31.414C46.054 31.414 45.8481 31.3728 45.5598 31.3728H44.2419C43.9948 31.3728 43.7889 31.3728 43.6242 31.414C43.4595 31.414 43.3359 31.4551 43.2124 31.4963C43.0888 31.5375 43.0064 31.6199 42.9653 31.7022C42.9241 31.7846 42.8829 31.9082 42.8417 32.0317C42.8005 32.1553 42.8005 32.32 42.8005 32.5259C42.8005 32.7318 42.8005 32.9789 42.8005 33.226C42.8005 33.4731 42.8005 33.7614 42.8005 33.9261C42.8005 34.132 42.8417 34.2968 42.8417 34.4203C42.8417 34.5439 42.9241 34.6674 42.9653 34.7498C43.0064 34.8322 43.0888 34.9145 43.2124 34.9557C43.3359 34.9969 43.4595 35.0381 43.6242 35.0381C43.7889 35.0381 43.9948 35.0793 44.2419 35.0793H45.5598C45.7657 35.0793 45.9716 35.0793 46.1364 35.0793C46.3011 35.0793 46.4246 35.0381 46.5482 34.9969C46.6717 34.9557 46.7541 34.9145 46.7953 34.8733C46.8365 34.8322 46.9188 34.7498 46.96 34.6674C47.0012 34.5851 47.0424 34.5027 47.0424 34.3791C47.0424 34.2556 47.0424 34.132 47.0424 33.9673H47.5778C47.5778 34.132 47.5778 34.338 47.5366 34.4615C47.4954 34.6262 47.4542 34.7498 47.413 34.8733C47.3718 34.9969 47.2895 35.0793 47.1659 35.1616C47.0836 35.244 46.96 35.3264 46.7953 35.3675C46.6306 35.4087 46.4658 35.4499 46.2599 35.4911C46.054 35.5323 45.8069 35.5323 45.5186 35.5323H44.2008C43.8713 35.5323 43.583 35.4911 43.2947 35.4499C43.0476 35.4087 42.8829 35.3264 42.7182 35.244C42.5534 35.1616 42.4711 35.0381 42.3887 34.9145C42.3063 34.791 42.2651 34.6262 42.224 34.4615C42.1828 34.2968 42.1828 34.0909 42.1416 33.8849C42.1416 33.679 42.1416 33.4319 42.1416 33.1848C42.1416 32.9377 42.1416 32.6906 42.1416 32.4847C42.1416 32.2788 42.1828 32.0729 42.224 31.9082C42.2651 31.7434 42.3063 31.5787 42.3887 31.4551C42.4711 31.3316 42.5946 31.208 42.7182 31.1257C42.8417 31.0433 43.0476 30.961 43.2947 30.9198C43.5418 30.8786 43.8301 30.8374 44.2008 30.8374H45.5186C45.8069 30.8374 46.054 30.8374 46.2599 30.8786C46.4658 30.9198 46.6306 30.961 46.7953 31.0021C46.96 31.0433 47.0836 31.1257 47.1659 31.2081C47.2483 31.2904 47.3307 31.3728 47.413 31.4963C47.4954 31.6199 47.4954 31.7434 47.5366 31.867C47.5778 31.9905 47.5778 32.1553 47.5778 32.32H47.0424V32.3612Z" fill="#8B95AD"/>
<path d="M53.2613 30.9609V31.414H50.9962V35.4087H50.4609V31.414H48.1958V30.9609H53.2613Z" fill="#8B95AD"/>
<path d="M59.3977 30.9609V33.226C59.3977 33.4731 59.3977 33.7202 59.3977 33.9261C59.3977 34.132 59.3566 34.3379 59.3154 34.5027C59.2742 34.6674 59.233 34.8321 59.1507 34.9557C59.0683 35.0792 58.9447 35.2028 58.8212 35.2852C58.6565 35.3675 58.4917 35.4499 58.2446 35.4911C57.9975 35.5323 57.7092 35.5734 57.3386 35.5734H55.9796C55.6501 35.5734 55.3618 35.5323 55.0735 35.4911C54.8264 35.4499 54.6617 35.3675 54.497 35.2852C54.3322 35.2028 54.2499 35.0792 54.1675 34.9557C54.0851 34.8321 54.044 34.6674 54.0028 34.5027C53.9616 34.3379 53.9616 34.132 53.9204 33.9261C53.9204 33.7202 53.9204 33.4731 53.9204 33.226V30.9609H54.4558V33.226C54.4558 33.5143 54.4558 33.7614 54.4558 33.9261C54.4558 34.132 54.4558 34.2968 54.497 34.4203C54.5382 34.5439 54.5793 34.6674 54.6205 34.7498C54.6617 34.8321 54.7441 34.9145 54.8676 34.9557C54.9912 34.9969 55.1147 35.0381 55.2794 35.0381C55.4442 35.0381 55.6501 35.0792 55.8972 35.0792H57.2562C57.5033 35.0792 57.7092 35.0792 57.874 35.0381C58.0387 35.0381 58.1623 34.9969 58.2858 34.9557C58.4094 34.9145 58.4917 34.8321 58.5329 34.7498C58.5741 34.6674 58.6565 34.5439 58.6565 34.4203C58.6976 34.2968 58.6976 34.132 58.6976 33.9261C58.6976 33.7202 58.6976 33.4731 58.6976 33.226V30.9609H59.3977Z" fill="#8B95AD"/>
<path d="M65.4102 35.4499H64.8749V34.6262C64.8749 34.5027 64.8749 34.3791 64.8749 34.2968C64.8749 34.2144 64.8337 34.132 64.8337 34.0497C64.7925 33.9673 64.7513 33.9261 64.7101 33.8849C64.6689 33.8438 64.5454 33.8026 64.463 33.8026C64.3395 33.7614 64.2159 33.7614 64.0512 33.7614C63.8865 33.7614 63.6806 33.7614 63.4335 33.7614H60.8801V35.5734H60.3447V30.9609H63.557C63.8865 30.9609 64.1747 30.9609 64.463 31.0021C64.7101 31.0433 64.8749 31.0433 65.0396 31.1257C65.2043 31.1669 65.2867 31.2492 65.3691 31.2904C65.4514 31.3316 65.4926 31.4551 65.5338 31.5375C65.575 31.6199 65.575 31.7434 65.6162 31.867C65.6162 31.9905 65.6162 32.1141 65.6162 32.2788C65.6162 32.4435 65.6162 32.6083 65.575 32.773C65.5338 32.9377 65.4926 33.0201 65.4514 33.1436C65.4102 33.226 65.3279 33.3084 65.2043 33.3907C65.122 33.4319 64.9572 33.4731 64.8337 33.5143C64.9984 33.5555 65.122 33.5967 65.2043 33.6378C65.2867 33.679 65.3691 33.7614 65.4102 33.8437C65.4514 33.9261 65.4926 34.0497 65.4926 34.1732C65.4926 34.2968 65.5338 34.4615 65.5338 34.6262V35.4087H65.4102V35.4499ZM60.7566 33.1848H63.4335C63.6806 33.1848 63.8865 33.1848 64.0512 33.1848C64.2159 33.1848 64.3395 33.1436 64.463 33.1436C64.5866 33.1025 64.6689 33.1025 64.7101 33.0613C64.7513 33.0201 64.8337 32.9789 64.8337 32.8965C64.8749 32.8142 64.8749 32.7318 64.8749 32.6494C64.8749 32.5671 64.8749 32.4435 64.8749 32.32C64.8749 32.1964 64.8749 32.0729 64.8749 31.9905C64.8749 31.9081 64.8337 31.8258 64.8337 31.7434C64.7925 31.661 64.7513 31.6199 64.7101 31.5787C64.6689 31.5375 64.5454 31.4963 64.463 31.4963C64.3395 31.4963 64.2159 31.4551 64.0512 31.4551C63.8865 31.4551 63.6806 31.4551 63.4335 31.4551H60.7566V33.1848Z" fill="#8B95AD"/>
<path d="M66.2749 35.4501V30.9199H70.8462V31.3729H66.8515V32.8967H70.6403V33.3497H66.8515V34.9559H70.8462V35.4089H66.2749V35.4501Z" fill="#8B95AD"/>
<path d="M81.5542 35.4501V30.9199H86.1255V31.3729H82.1308V32.8967H85.9196V33.3497H82.1308V34.9559H86.1255V35.4089H81.5542V35.4501Z" fill="#8B95AD"/>
<path d="M78.6711 32.8962C78.9594 32.8962 79.2476 32.8962 79.4947 32.9374C79.7007 32.9786 79.9066 33.0198 80.0301 33.061C80.1948 33.1021 80.3184 33.1845 80.4008 33.2257C80.4831 33.2669 80.5655 33.3904 80.6067 33.4728C80.6479 33.5552 80.689 33.6787 80.689 33.8023C80.689 33.9258 80.7302 34.0494 80.7302 34.1729C80.7302 34.2965 80.7302 34.42 80.689 34.5436C80.6479 34.6671 80.6067 34.7495 80.5655 34.873C80.5243 34.9966 80.4008 35.0378 80.3184 35.1201C80.1948 35.2025 80.0713 35.2437 79.9066 35.326C79.7418 35.3672 79.5359 35.4084 79.33 35.4496C79.0829 35.4908 78.8358 35.4908 78.4652 35.4908H77.7239C77.4356 35.4908 77.1885 35.4908 76.9826 35.4496C76.7767 35.4084 76.6119 35.4084 76.4472 35.3672C76.2825 35.326 76.1589 35.2848 76.0765 35.2025C75.9942 35.1201 75.9118 35.0377 75.8295 34.9554C75.7883 34.873 75.7471 34.7495 75.7059 34.6671C75.6647 34.5847 75.6647 34.42 75.6647 34.2965H76.2001C76.2001 34.4612 76.2413 34.6259 76.2825 34.7083C76.3236 34.7907 76.406 34.873 76.5296 34.9142C76.6531 34.9554 76.7767 34.9966 76.9826 34.9966C77.1885 34.9966 77.3944 34.9966 77.6827 34.9966H78.424C78.7534 34.9966 79.0005 34.9966 79.2888 34.9554C79.4947 34.9142 79.6595 34.873 79.783 34.7907C79.9066 34.7083 79.9889 34.6259 80.0713 34.5436C80.1125 34.42 80.1537 34.2965 80.1537 34.1317C80.1537 33.967 80.1537 33.8434 80.1125 33.7199C80.0713 33.5963 79.9889 33.514 79.9066 33.4728C79.783 33.3904 79.6595 33.3492 79.4536 33.3492C79.2476 33.3081 79.0005 33.3081 78.7123 33.3081H77.8886C77.5591 33.3081 77.2709 33.3081 76.9826 33.2669C76.7355 33.2257 76.5296 33.2257 76.3648 33.1433C76.2001 33.061 76.0765 33.0198 75.953 32.9786C75.8295 32.9374 75.7883 32.8139 75.7471 32.7315C75.7059 32.6491 75.6647 32.5256 75.6647 32.4432C75.6647 32.3609 75.6235 32.1961 75.6235 32.0726C75.6235 31.949 75.6235 31.8255 75.6647 31.7019C75.7059 31.5784 75.7471 31.496 75.7883 31.3725C75.8706 31.2901 75.953 31.2077 76.0765 31.1254C76.2001 31.043 76.3236 31.0018 76.5296 30.9606C76.7355 30.9194 76.9414 30.8783 77.1885 30.8371C77.4356 30.7959 77.7239 30.7959 78.0945 30.7959H78.6299C78.9182 30.7959 79.1653 30.7959 79.3712 30.8371C79.5771 30.8371 79.7418 30.8783 79.9066 30.9194C80.0713 30.9606 80.1949 31.0018 80.2772 31.0842C80.3596 31.1665 80.4419 31.2077 80.5243 31.3313C80.5655 31.4136 80.6067 31.5372 80.6479 31.6196C80.689 31.7019 80.689 31.8667 80.689 31.9902H80.1537C80.1537 31.8255 80.1125 31.6607 80.0713 31.5784C80.0301 31.496 79.9478 31.4136 79.8242 31.3725C79.7007 31.3313 79.5771 31.2901 79.3712 31.2901C79.1653 31.2901 78.9594 31.2901 78.6711 31.2901H78.0945C77.7239 31.2901 77.4356 31.2901 77.1473 31.3313C76.9002 31.3725 76.7355 31.4136 76.5707 31.4548C76.406 31.496 76.3236 31.6196 76.2825 31.7019C76.2413 31.8255 76.2001 31.949 76.2001 32.0726C76.2001 32.1549 76.2001 32.2373 76.2001 32.3197C76.2001 32.402 76.2413 32.4432 76.2825 32.5256C76.3236 32.608 76.3648 32.6491 76.4472 32.6491C76.5296 32.6903 76.6119 32.7315 76.7355 32.7315C76.859 32.7727 77.0238 32.7727 77.1885 32.7727C77.3532 32.7727 77.5591 32.7727 77.8062 32.7727H78.6711V32.8962Z" fill="#8B95AD"/>
<path d="M87.1965 35.4501V30.9199H87.7318V34.9147H91.3148V35.4089H87.1553V35.4501H87.1965Z" fill="#8B95AD"/>
<path d="M92.1379 35.4501V30.9199H92.6732V34.9147H96.2562V35.4089H92.0967V35.4501H92.1379Z" fill="#8B95AD"/>
<path d="M97.0386 30.9609H97.574V35.4911H97.0386V30.9609Z" fill="#8B95AD"/>
<path d="M99.2214 35.4501H98.686V30.9199H99.7156L103.916 34.8323V30.9199H104.452V35.4501H103.71L99.3038 31.4553V35.4501H99.2214Z" fill="#8B95AD"/>
<path d="M110.382 32.3612C110.382 32.1141 110.341 31.9493 110.3 31.8258C110.259 31.7022 110.176 31.5787 110.053 31.5375C109.929 31.4551 109.806 31.414 109.6 31.414C109.394 31.414 109.188 31.3728 108.9 31.3728H107.376C107.129 31.3728 106.923 31.3728 106.758 31.414C106.593 31.414 106.47 31.4551 106.346 31.4963C106.223 31.5375 106.14 31.6199 106.099 31.7022C106.058 31.7846 106.017 31.9082 105.976 32.0317C105.934 32.1553 105.934 32.32 105.934 32.5259C105.934 32.7318 105.934 32.9789 105.934 33.226C105.934 33.4731 105.934 33.7614 105.934 33.9261C105.934 34.132 105.976 34.2968 105.976 34.4203C105.976 34.5439 106.058 34.6674 106.099 34.7498C106.14 34.8322 106.223 34.9145 106.346 34.9557C106.47 34.9969 106.593 35.0381 106.758 35.0381C106.923 35.0381 107.129 35.0793 107.376 35.0793H108.9C109.106 35.0793 109.311 35.0793 109.476 35.0793C109.641 35.0793 109.764 35.0381 109.888 34.9969C110.012 34.9557 110.094 34.9145 110.135 34.8733C110.218 34.8322 110.259 34.7498 110.3 34.6674C110.341 34.5851 110.382 34.5027 110.382 34.3791C110.382 34.2556 110.382 34.132 110.382 33.9673V33.679H108.117V33.226H110.959V33.9673C110.959 34.132 110.959 34.338 110.918 34.4615C110.876 34.6262 110.835 34.7498 110.794 34.8733C110.753 34.9969 110.671 35.0793 110.547 35.1616C110.465 35.244 110.341 35.3264 110.176 35.3675C110.012 35.4087 109.847 35.4499 109.641 35.4911C109.435 35.5323 109.188 35.5323 108.9 35.5323H107.417C107.088 35.5323 106.799 35.4911 106.511 35.4499C106.264 35.4087 106.099 35.3264 105.934 35.244C105.77 35.1616 105.687 35.0381 105.605 34.9145C105.523 34.791 105.481 34.6262 105.44 34.4615C105.399 34.2968 105.399 34.0909 105.358 33.8849C105.358 33.679 105.358 33.4319 105.358 33.1848C105.358 32.9377 105.358 32.6906 105.358 32.4847C105.358 32.2788 105.399 32.0729 105.44 31.9082C105.481 31.7434 105.523 31.5787 105.605 31.4551C105.687 31.3316 105.811 31.208 105.934 31.1257C106.058 31.0433 106.264 30.961 106.511 30.9198C106.758 30.8786 107.046 30.8374 107.417 30.8374H108.941C109.229 30.8374 109.476 30.8374 109.682 30.8786C109.888 30.9198 110.053 30.961 110.218 31.0021C110.382 31.0433 110.506 31.1257 110.588 31.2081C110.671 31.2904 110.753 31.3728 110.835 31.4963C110.918 31.6199 110.918 31.7434 110.959 31.867C111 31.9905 111 32.1553 111 32.32H110.423V32.3612H110.382Z" fill="#8B95AD"/>
<path d="M39.7943 39.8153C39.7943 39.5682 39.7532 39.4034 39.712 39.2799C39.6708 39.1563 39.5884 39.0328 39.4649 38.9916C39.3413 38.9092 39.2178 38.8681 39.0119 38.8681C38.8059 38.8681 38.6 38.8269 38.3117 38.8269H36.9939C36.7468 38.8269 36.5409 38.8269 36.3761 38.8681C36.2114 38.8681 36.0879 38.9092 35.9643 38.9504C35.8408 38.9916 35.7584 39.074 35.7172 39.1563C35.676 39.2387 35.6348 39.3623 35.5937 39.4858C35.5525 39.6094 35.5525 39.7741 35.5525 39.98C35.5525 40.1859 35.5525 40.433 35.5525 40.6801C35.5525 40.9272 35.5525 41.2155 35.5525 41.3802C35.5525 41.5861 35.5937 41.7509 35.5937 41.8744C35.5937 41.998 35.676 42.1215 35.7172 42.2039C35.7584 42.2863 35.8408 42.3686 35.9643 42.4098C36.0879 42.451 36.2114 42.4922 36.3761 42.4922C36.5409 42.4922 36.7468 42.5334 36.9939 42.5334H38.3117C38.5177 42.5334 38.7236 42.5334 38.8883 42.5334C39.053 42.5334 39.1766 42.4922 39.3001 42.451C39.4237 42.4098 39.5061 42.3686 39.5472 42.3274C39.5884 42.2863 39.6708 42.2039 39.712 42.1215C39.7532 42.0392 39.7943 41.9568 39.7943 41.8332C39.7943 41.7097 39.7943 41.5861 39.7943 41.4214H40.3297C40.3297 41.5861 40.3297 41.7921 40.2885 41.9156C40.2473 42.0803 40.2062 42.2039 40.165 42.3274C40.1238 42.451 40.0414 42.5334 39.9179 42.6157C39.8355 42.6981 39.712 42.7805 39.5472 42.8216C39.3825 42.8628 39.2178 42.904 39.0119 42.9452C38.8059 42.9864 38.5588 42.9864 38.2706 42.9864H36.9527C36.6232 42.9864 36.335 42.9452 36.0467 42.904C35.7996 42.8628 35.6348 42.7805 35.4701 42.6981C35.3054 42.6157 35.223 42.4922 35.1407 42.3686C35.0583 42.2451 35.0171 42.0803 34.9759 41.9156C34.9347 41.7509 34.9347 41.545 34.8936 41.339C34.8936 41.1331 34.8936 40.886 34.8936 40.6389C34.8936 40.3918 34.8936 40.1447 34.8936 39.9388C34.8936 39.7329 34.9347 39.527 34.9759 39.3623C35.0171 39.1975 35.0583 39.0328 35.1407 38.9092C35.223 38.7857 35.3466 38.6621 35.4701 38.5798C35.5937 38.4974 35.7996 38.4151 36.0467 38.3739C36.2938 38.3327 36.5821 38.2915 36.9527 38.2915H38.2294C38.5177 38.2915 38.7648 38.2915 38.9707 38.3327C39.1766 38.3739 39.3413 38.4151 39.5061 38.4562C39.6708 38.4974 39.7943 38.5798 39.8767 38.6622C39.9591 38.7445 40.0414 38.8269 40.1238 38.9504C40.2062 39.074 40.2062 39.1975 40.2473 39.3211C40.2885 39.4446 40.2885 39.6094 40.2885 39.7741H39.7531V39.8153H39.7943Z" fill="#8B95AD"/>
<path d="M44.7776 38.2915C45.1071 38.2915 45.3954 38.3327 45.6836 38.3739C45.9307 38.4151 46.0955 38.4974 46.2602 38.5798C46.4249 38.6621 46.5073 38.7857 46.5897 38.9092C46.672 39.0328 46.7132 39.1975 46.7544 39.3623C46.7956 39.527 46.7956 39.7329 46.8368 39.9388C46.8368 40.1447 46.8368 40.3918 46.8368 40.6389C46.8368 40.886 46.8368 41.1331 46.8368 41.339C46.8368 41.545 46.7956 41.7509 46.7544 41.9156C46.7132 42.0803 46.672 42.2451 46.5897 42.3686C46.5073 42.4922 46.3837 42.6157 46.2602 42.6981C46.0955 42.7805 45.9307 42.8628 45.6836 42.904C45.4365 42.9452 45.1483 42.9864 44.7776 42.9864H43.0479C42.7185 42.9864 42.4302 42.9452 42.1419 42.904C41.8948 42.8628 41.7301 42.7805 41.5653 42.6981C41.4006 42.6157 41.3182 42.4922 41.2359 42.3686C41.1535 42.2451 41.1123 42.0803 41.0711 41.9156C41.03 41.7509 41.03 41.545 40.9888 41.339C40.9888 41.1331 40.9888 40.886 40.9888 40.6389C40.9888 40.3918 40.9888 40.1447 40.9888 39.9388C40.9888 39.7329 41.03 39.527 41.0711 39.3623C41.1123 39.1975 41.1535 39.0328 41.2359 38.9092C41.3182 38.7857 41.4418 38.6621 41.5653 38.5798C41.6889 38.4974 41.8948 38.4151 42.1419 38.3739C42.389 38.3327 42.6773 38.2915 43.0479 38.2915H44.7776ZM44.7776 42.5334C45.0247 42.5334 45.2306 42.5334 45.3954 42.4922C45.5601 42.4922 45.6836 42.451 45.8072 42.4098C45.9307 42.3686 46.0131 42.2863 46.0543 42.2039C46.0955 42.1215 46.1367 41.998 46.1778 41.8744C46.219 41.7509 46.219 41.5861 46.219 41.3802C46.219 41.1743 46.219 40.9272 46.219 40.6801C46.219 40.433 46.219 40.1447 46.219 39.98C46.219 39.7741 46.1778 39.6094 46.1778 39.4858C46.1367 39.3623 46.0955 39.2387 46.0543 39.1563C46.0131 39.074 45.9307 38.9916 45.8072 38.9504C45.6836 38.9092 45.5601 38.8681 45.3954 38.8681C45.2306 38.8681 45.0247 38.8269 44.7776 38.8269H43.0479C42.8008 38.8269 42.5949 38.8269 42.4302 38.8681C42.2654 38.8681 42.1419 38.9092 42.0183 38.9504C41.8948 38.9916 41.8124 39.074 41.7712 39.1563C41.7301 39.2387 41.6889 39.3623 41.6477 39.4858C41.6065 39.6094 41.6065 39.7741 41.6065 39.98C41.6065 40.1859 41.6065 40.433 41.6065 40.6801C41.6065 40.9272 41.6065 41.2155 41.6065 41.3802C41.6065 41.5861 41.6477 41.7509 41.6477 41.8744C41.6477 41.998 41.7301 42.1215 41.7712 42.2039C41.8124 42.2863 41.8948 42.3686 42.0183 42.4098C42.1419 42.451 42.2654 42.4922 42.4302 42.4922C42.5949 42.4922 42.8008 42.5334 43.0479 42.5334H44.7776Z" fill="#8B95AD"/>
<path d="M48.1955 38.7446V42.8629H47.6602V38.3328H48.6074L51.2843 42.2452L53.9612 38.3328H54.9084V42.8629H54.2906V38.827L51.5725 42.8629H50.996L48.1955 38.7446Z" fill="#8B95AD"/>
<path d="M55.6499 38.3738H59.0681C59.3564 38.3738 59.5623 38.3738 59.7682 38.415C59.9741 38.4561 60.0977 38.4561 60.2212 38.5385C60.3448 38.5797 60.4271 38.6621 60.5095 38.7032C60.5919 38.7444 60.633 38.868 60.6742 38.9503C60.7154 39.0327 60.7154 39.1563 60.7154 39.2798C60.7154 39.4034 60.7154 39.5269 60.7154 39.6916C60.7154 39.8564 60.7154 39.9799 60.7154 40.1035C60.7154 40.227 60.6742 40.3506 60.633 40.4329C60.5919 40.5565 60.5507 40.6388 60.4683 40.7212C60.3859 40.8036 60.2624 40.8448 60.1388 40.9271C59.9741 40.9683 59.8094 41.0095 59.5623 41.0507C59.3152 41.0919 59.0269 41.0919 58.6563 41.0919H56.1853V42.9039H55.6499V38.3738ZM56.2265 40.6388H58.6974C58.9445 40.6388 59.1505 40.6388 59.3152 40.6388C59.4799 40.6388 59.6035 40.5977 59.727 40.5977C59.8506 40.5565 59.9329 40.5565 59.9741 40.5153C60.0153 40.4741 60.0977 40.4329 60.0977 40.3506C60.0977 40.2682 60.1388 40.1858 60.1388 40.1035C60.1388 40.0211 60.1388 39.8976 60.1388 39.774C60.1388 39.6505 60.1388 39.5269 60.1388 39.4445C60.1388 39.3622 60.0977 39.2798 60.0977 39.1974C60.0565 39.1151 60.0153 39.0739 59.9741 39.0327C59.9329 38.9915 59.8094 38.9503 59.727 38.9503C59.6035 38.9503 59.4799 38.9092 59.3152 38.9092C59.1505 38.9092 58.9445 38.9092 58.6974 38.9092H56.2265V40.6388Z" fill="#8B95AD"/>
<path d="M65.328 41.8333H61.7863L61.2097 42.8629H60.5508L63.1453 38.3328H63.969L66.5635 42.8629H65.9869L65.328 41.8333ZM65.0809 41.3803L63.5571 38.7446L62.0334 41.3803H65.0809Z" fill="#8B95AD"/>
<path d="M67.7575 42.9039H67.2222V38.3738H68.2517L72.4524 42.2862V38.3738H72.9878V42.9039H72.2465L67.8399 38.9092V42.9039H67.7575Z" fill="#8B95AD"/>
<path d="M73.606 38.3738H74.3473L76.4064 40.5977L78.4656 38.3738H79.2069L76.6123 41.0095V42.9039H76.0769V41.0095L73.606 38.3738Z" fill="#8B95AD"/>
<path d="M54.497 9.79317C54.3734 9.34016 54.1263 8.96951 53.8381 8.64005C53.5086 8.31058 53.0968 8.0223 52.5202 7.81639C52.026 7.61047 51.3671 7.48692 50.6258 7.40456C49.9257 7.32219 49.0196 7.28101 47.9901 7.28101H35.0586V25.0721H38.5592V18.3592H46.5898C47.8665 18.3592 48.8961 18.3181 49.8021 18.1945C50.7081 18.1121 51.4494 17.9474 52.026 17.7415C52.6849 17.5356 53.2203 17.2473 53.591 16.8766C53.9616 16.506 54.2499 16.0942 54.4558 15.6412C54.6205 15.2293 54.7029 14.7351 54.7441 14.1586C54.7853 13.7056 54.7853 13.1702 54.7853 12.5936C54.7853 12.0582 54.7853 11.6052 54.7441 11.111C54.7029 10.658 54.6205 10.205 54.497 9.79317ZM46.5898 15.2293H38.5592V10.3285H46.5898C47.4959 10.3285 48.2372 10.3286 48.8137 10.3697C49.3903 10.3697 49.8845 10.4521 50.2139 10.4933C50.6258 10.5756 50.7905 10.658 50.8729 10.6992C50.9552 10.7404 51.0376 10.8227 51.0788 10.9051C51.1612 11.0287 51.1612 11.2346 51.2023 11.4405C51.2023 11.77 51.2435 12.1406 51.2435 12.5524C51.2435 13.0054 51.2435 13.4173 51.2023 13.7467C51.2023 13.9938 51.1612 14.2409 51.0788 14.4057C51.0376 14.5292 50.9552 14.6116 50.8729 14.694C50.7905 14.7763 50.5846 14.8587 50.2551 14.941C49.8845 15.0234 49.3903 15.0646 48.8549 15.1058C48.196 15.2293 47.4959 15.2293 46.5898 15.2293Z" fill="#8B95AD"/>
<path d="M80.9772 9.46371C80.7301 9.05188 80.3595 8.72241 79.8653 8.43413C79.4535 8.18703 78.9181 7.93993 78.3003 7.7752C77.7238 7.61047 76.9825 7.48692 76.2 7.40456C75.4587 7.32219 74.5115 7.28101 73.4407 7.28101H71.4228C70.1461 7.28101 69.0342 7.32219 68.1281 7.40456C67.1397 7.48692 66.3573 7.65165 65.6572 7.81639C64.957 8.0223 64.3393 8.2694 63.8451 8.55768C63.3509 8.88714 62.9391 9.21661 62.6508 9.62844C62.3625 10.0403 62.1566 10.4933 62.0742 10.9875C61.9919 11.4405 61.9507 11.9347 61.9507 12.5113C61.9507 13.0054 61.9919 13.4585 62.033 13.8703C62.1154 14.3645 62.239 14.8175 62.4861 15.1881C62.7332 15.6 63.0626 15.9706 63.5156 16.2589C63.9275 16.5472 64.504 16.7943 65.163 17.0002C65.7807 17.1649 66.6044 17.3297 67.5516 17.412C68.4576 17.4944 69.5284 17.5356 70.805 17.5356H73.6055C74.7174 17.5356 75.5823 17.5768 76.2412 17.6591C76.8178 17.7415 77.312 17.865 77.6002 18.0298C77.8061 18.1533 77.9709 18.3181 78.0532 18.524C78.1356 18.8123 78.218 19.2241 78.218 19.6771C78.218 20.1301 78.1356 20.5008 78.0121 20.789C77.8885 21.0361 77.6826 21.2421 77.3531 21.4068C76.9825 21.6127 76.4059 21.7774 75.747 21.8598C75.0057 21.9833 74.0585 22.0245 72.9054 22.0245H70.1873C69.1989 22.0245 68.3752 21.9833 67.6751 21.9422C67.0986 21.901 66.6044 21.8186 66.2337 21.6539C65.9866 21.5303 65.8219 21.4068 65.6983 21.2009C65.616 21.0361 65.4924 20.7067 65.4924 20.0477V19.3476H61.9919V20.0477C61.9919 20.5831 62.033 21.0773 62.1154 21.5715C62.1978 22.0657 62.4037 22.5187 62.6508 22.9306C62.8979 23.3424 63.2685 23.6719 63.7215 23.9601C64.1334 24.2484 64.6688 24.4543 65.2865 24.6602C65.8631 24.825 66.6044 24.9485 67.3457 25.0309C68.087 25.1133 69.0342 25.1544 70.1049 25.1544H72.823C73.9761 25.1544 74.9645 25.1133 75.8705 24.9897C76.7766 24.8662 77.5179 24.7426 78.1356 24.5367C78.7945 24.3308 79.3711 24.0425 79.8241 23.7542C80.2771 23.4248 80.689 23.0541 80.9361 22.6423C81.1832 22.2304 81.3891 21.7362 81.4714 21.2421C81.5538 20.789 81.595 20.2948 81.595 19.7183C81.595 19.2241 81.5538 18.7299 81.5126 18.2357C81.4714 17.7415 81.3067 17.2885 81.1008 16.8766C80.8949 16.4648 80.5654 16.0942 80.1536 15.7647C79.7829 15.4352 79.2064 15.1881 78.6298 14.9822C78.0532 14.7763 77.3119 14.6528 76.4883 14.5704C75.6646 14.488 74.6762 14.4469 73.5231 14.4469H70.7638C69.8578 14.4469 69.1165 14.4469 68.4988 14.4057C67.881 14.3645 67.3457 14.3233 66.9338 14.2409C66.5632 14.1586 66.2749 14.0762 66.0278 13.9527C65.8631 13.8703 65.7395 13.7879 65.6572 13.6644C65.5748 13.5408 65.5336 13.4173 65.4924 13.2525C65.4512 13.0466 65.4512 12.7583 65.4512 12.4701C65.4512 12.0171 65.5336 11.6876 65.6572 11.3993C65.7807 11.1934 65.9866 10.9875 66.3573 10.8227C66.7691 10.6168 67.428 10.4933 68.2105 10.4109C69.0753 10.3285 70.1461 10.2874 71.464 10.2874H73.4819C74.4703 10.2874 75.294 10.3286 75.9941 10.3697C76.5707 10.4109 77.106 10.4933 77.4355 10.658C77.6826 10.7816 77.8473 10.9051 77.9709 11.111C78.0532 11.2758 78.1768 11.6052 78.1768 12.223V12.9231H81.6774V12.223C81.6774 11.6876 81.6362 11.1934 81.5538 10.6992C81.3891 10.3285 81.2243 9.87554 80.9772 9.46371Z" fill="#8B95AD"/>
<path d="M110.382 13.7054V13.0052C110.382 12.3463 110.341 11.7698 110.259 11.1932C110.176 10.6166 110.011 10.1224 109.764 9.58705C109.517 9.13404 109.188 8.68103 108.694 8.35156C108.282 8.0221 107.705 7.73382 107.129 7.5279C106.552 7.32199 105.811 7.15725 105.028 7.07489C104.205 6.99252 103.34 6.91016 102.269 6.91016H97.533C96.2563 6.91016 95.1444 6.99252 94.2795 7.15725C93.3323 7.32199 92.591 7.56908 91.9733 7.89855C91.3555 8.2692 90.779 8.72221 90.4495 9.25759C90.12 9.79297 89.8729 10.4107 89.7082 11.1108C89.5847 11.7698 89.5023 12.5522 89.4611 13.3347C89.4611 14.1172 89.4199 15.0232 89.4199 15.9292C89.4199 16.8764 89.4199 17.7825 89.4611 18.5238C89.5023 19.3474 89.5847 20.1299 89.7082 20.7477C89.8729 21.4478 90.12 22.0655 90.4495 22.6009C90.8201 23.1363 91.3555 23.5893 91.9733 23.9599C92.591 24.2894 93.3735 24.5365 94.2795 24.7012C95.1855 24.866 96.2563 24.9483 97.533 24.9483H102.269C103.34 24.9483 104.205 24.9071 105.028 24.7836C105.852 24.7012 106.552 24.5365 107.129 24.3306C107.746 24.1247 108.323 23.7952 108.735 23.4657C109.147 23.0951 109.476 22.6833 109.764 22.1891C110.011 21.6949 110.176 21.1595 110.259 20.5006C110.341 19.924 110.382 19.3062 110.382 18.565V17.8648H106.882V18.5238C106.882 19.0591 106.84 19.5122 106.799 19.8828C106.758 20.2123 106.676 20.5006 106.593 20.7065C106.511 20.9124 106.387 21.0359 106.223 21.1595C106.058 21.283 105.811 21.4066 105.522 21.4889C105.193 21.5713 104.699 21.6537 104.205 21.6949C103.669 21.736 102.969 21.736 102.228 21.736H97.4918C96.5858 21.736 95.8857 21.6949 95.3091 21.6537C94.7737 21.6125 94.3207 21.5301 93.9912 21.4066C93.7441 21.283 93.5382 21.1595 93.4147 20.9948C93.2499 20.7888 93.1676 20.5006 93.0852 20.0887C93.0028 19.6357 92.9617 19.1003 92.9205 18.359C92.9205 17.6589 92.8793 16.7529 92.8793 15.8057C92.8793 14.8173 92.8793 13.9525 92.8793 13.2523C92.8793 12.5934 92.9617 12.0169 93.044 11.5638C93.1264 11.1932 93.2499 10.8637 93.3735 10.6578C93.497 10.4931 93.703 10.3283 93.9501 10.246C94.2795 10.1224 94.6913 10.0401 95.2679 9.99888C95.8445 9.9577 96.627 9.91652 97.4506 9.91652H102.187C103.175 9.91652 103.999 9.9577 104.658 9.99888C105.234 10.0401 105.687 10.1636 106.017 10.3695C106.305 10.5343 106.47 10.7814 106.593 11.1108C106.758 11.5227 106.799 12.0992 106.799 12.8405V13.5818H110.423V13.7054H110.382Z" fill="#8B95AD"/>
<path d="M54.7852 21.2004V24.701H57.9562V21.2416H54.7852V21.2004Z" fill="#8B95AD"/>
<path d="M83.4893 21.2004V24.701H86.6604V21.2416H83.4893V21.2004Z" fill="#8B95AD"/>
<path d="M18.9971 15.1878L16.1143 12.3462L20.5208 8.02197L16.1143 3.65657L18.9971 0.814941L23.4037 5.18034L27.7279 0.814941L30.6107 3.65657L26.2453 8.02197L30.6519 12.3462L27.7691 15.1878L23.3213 10.8636L18.9971 15.1878ZM23.3213 9.71048L27.7279 14.0759L29.4576 12.3462L25.1333 8.02197L29.4987 3.65657L27.7691 1.92688L23.3213 6.29228L18.9971 1.92688L17.2262 3.65657L21.6328 8.02197L17.185 12.3462L18.9147 14.0759L23.3213 9.71048Z" fill="#8B95AD"/>
<path d="M12.7784 30.2195H0.75293V17.6587H12.7784V30.2195ZM1.94724 29.0664H11.5841V18.8118H1.94724V29.0664Z" fill="#8B95AD"/>
<path d="M22.9506 8.68097V23.4245H8.0423V8.68097H22.9506ZM24.2684 7.4043H6.76562V24.7012H24.2684V7.4043Z" fill="#8B95AD"/>
</svg>
