<svg width="30" height="23" viewBox="0 0 30 23" fill="none" xmlns="http://www.w3.org/2000/svg">
<path d="M28.1086 0.509144C27.8065 0.477313 27.472 0.551584 27.1807 0.657685C18.3977 3.76644 9.61474 6.87519 0.831755 9.98394C0.389368 10.1431 0.0764611 10.3871 0.0764611 10.8752C0.0656712 11.3102 0.356999 11.6073 0.907284 11.7558C2.95737 12.3075 5.00745 12.8593 7.06832 13.4004C7.42439 13.4959 7.61861 13.655 7.74808 14.0158C8.49259 16.2439 9.26946 18.4614 10.0463 20.6895C10.3916 21.6762 11.3519 21.9203 12.1396 21.22C12.5172 20.8911 12.8733 20.541 13.2401 20.2014C14.017 19.48 14.7939 18.7691 15.5708 18.0476C15.711 18.1325 15.8297 18.2067 15.9484 18.281C18.074 19.7028 20.2212 21.1033 22.3252 22.5569C23.3395 23.2571 24.5588 22.7372 24.8177 21.602C26.2636 15.098 27.7849 8.61524 29.2739 2.12188C29.4358 1.28368 28.9718 0.604634 28.1086 0.509144ZM23.9869 5.03965C23.1453 5.73991 22.2929 6.40835 21.4513 7.098C18.2467 9.67625 15.0421 12.2545 11.8375 14.8221C11.5569 15.0449 11.4274 15.3102 11.3951 15.6603C11.2872 16.7426 11.1469 17.8354 11.0066 18.9176C10.9851 19.0556 10.9527 19.1935 10.9203 19.342L10.78 19.3632C10.7261 19.2359 10.6506 19.1086 10.6074 18.9813C10.014 17.2412 9.42052 15.5012 8.82708 13.7505C8.62207 13.1351 8.67602 12.9866 9.24788 12.6577C13.9523 10.0052 18.6675 7.35264 23.3719 4.68951C23.469 4.63646 23.5553 4.54097 23.6524 4.54097C23.8143 4.54097 23.9761 4.59402 24.138 4.62585C24.0948 4.76378 24.084 4.95476 23.9869 5.03965Z" fill="#8B95AD"/>
</svg>
