<svg width="127" height="22" viewBox="0 0 127 22" fill="none" xmlns="http://www.w3.org/2000/svg">
<path d="M13.9384 6.78315L7.18457 0.0561523L0.430748 6.78315L7.18457 13.5102L13.9384 6.78315Z" fill="#8B95AD"/>
<path d="M20.6889 13.5063L13.9351 6.7793L7.18124 13.5063L13.9351 20.2333L20.6889 13.5063Z" fill="#8B95AD"/>
<path d="M27.4389 6.78266L20.6851 0.0556641L13.9312 6.78266L20.6851 13.5097L27.4389 6.78266Z" fill="#8B95AD"/>
<path d="M34.1894 13.5063L27.4355 6.7793L20.6817 13.5063L27.4355 20.2333L34.1894 13.5063Z" fill="#8B95AD"/>
<path d="M40.9394 6.78169L34.1855 0.0546875L27.4317 6.78169L34.1855 13.5087L40.9394 6.78169Z" fill="#8B95AD"/>
<path d="M47.6903 13.5046L40.9365 6.77759L34.1827 13.5046L40.9365 20.2316L47.6903 13.5046Z" fill="#B9C3DC"/>
<path d="M69.7834 1.53857L66.9627 10.1608H64.3366L62.6831 4.90996L60.9517 10.1608H58.3256L55.5049 1.53857H58.0338L59.7846 7.06067L61.6131 1.53857H63.8697L65.6205 7.09942L67.449 1.53857H69.7834Z" fill="#8B95AD"/>
<path d="M75.7949 6.46014V10.1803H73.5967V9.30838C73.266 9.94778 72.5851 10.2772 71.6125 10.2772C69.9979 10.2772 69.103 9.38589 69.103 8.22334C69.103 6.98329 70.0173 6.22763 72.0793 6.22763H73.4216C73.3827 5.54948 72.9353 5.16197 72.0015 5.16197C71.3596 5.16197 70.6398 5.3751 70.1729 5.74324L69.3754 4.15443C70.134 3.65066 71.2818 3.37939 72.3322 3.37939C74.5499 3.37939 75.7949 4.32881 75.7949 6.46014ZM73.4411 8.02958V7.44831H72.4295C71.6708 7.44831 71.3985 7.71957 71.3985 8.12646C71.3985 8.51398 71.7292 8.80461 72.2739 8.80461C72.7991 8.80461 73.266 8.55273 73.4411 8.02958Z" fill="#8B95AD"/>
<path d="M83.6925 3.47632L80.9108 10.161H78.4791L75.7168 3.47632H78.129L79.7436 7.56461L81.436 3.47632H83.6925Z" fill="#8B95AD"/>
<path d="M90.404 7.40925H85.5213C85.7158 8.0874 86.2994 8.47491 87.1748 8.47491C87.8362 8.47491 88.2642 8.28116 88.731 7.89364L89.976 9.17244C89.3341 9.88935 88.3809 10.2575 87.1164 10.2575C84.7237 10.2575 83.1675 8.78493 83.1675 6.78922C83.1675 4.77414 84.7432 3.34033 86.8636 3.34033C88.8478 3.34033 90.4624 4.59976 90.4624 6.8086C90.4429 7.00235 90.404 7.23486 90.404 7.40925ZM85.4824 6.18857H88.2253C88.1086 5.49104 87.5833 5.0454 86.8441 5.0454C86.1049 5.0454 85.6186 5.47167 85.4824 6.18857Z" fill="#8B95AD"/>
<path d="M90.4429 9.59886L91.1432 7.99067C91.7657 8.37819 92.6605 8.6107 93.4775 8.6107C94.2751 8.6107 94.528 8.43632 94.528 8.14568C94.528 7.2544 90.5596 8.26194 90.5596 5.58808C90.5596 4.32865 91.7268 3.35986 93.8277 3.35986C94.7614 3.35986 95.8119 3.55362 96.4733 3.92176L95.773 5.51058C95.1116 5.14244 94.4307 5.02618 93.8471 5.02618C93.0496 5.02618 92.7772 5.23931 92.7772 5.4912C92.7772 6.42124 96.7262 5.4137 96.7262 8.06818C96.7262 9.30823 95.5785 10.2576 93.3997 10.2576C92.2715 10.277 91.1043 10.0058 90.4429 9.59886Z" fill="#8B95AD"/>
<path d="M61.9831 19.2672H58.3065L57.6257 20.9529H55.1162L58.9485 12.3113H61.3606L65.1929 20.9529H62.6445L61.9831 19.2672ZM61.2634 17.4652L60.1545 14.6945L59.0457 17.4652H61.2634Z" fill="#8B95AD"/>
<path d="M64.668 20.3721L65.3683 18.7639C65.9908 19.1514 66.8856 19.3839 67.7026 19.3839C68.5002 19.3839 68.7531 19.2095 68.7531 18.9189C68.7531 18.0276 64.7847 19.0351 64.7847 16.3613C64.7847 15.1018 65.9519 14.1331 68.0528 14.1331C68.9865 14.1331 70.037 14.3268 70.6984 14.695L69.9981 16.2838C69.3367 15.9156 68.6558 15.7994 68.0722 15.7994C67.2747 15.7994 67.0023 16.0125 67.0023 16.2644C67.0023 17.1944 70.9513 16.1869 70.9513 18.8414C70.9513 20.0814 69.8036 21.0308 67.6248 21.0308C66.4965 21.0502 65.3099 20.7789 64.668 20.3721Z" fill="#8B95AD"/>
<path d="M70.8926 20.3721L71.5929 18.7639C72.2154 19.1514 73.1102 19.3839 73.9272 19.3839C74.7248 19.3839 74.9777 19.2095 74.9777 18.9189C74.9777 18.0276 71.0093 19.0351 71.0093 16.3613C71.0093 15.1018 72.1765 14.1331 74.2774 14.1331C75.2111 14.1331 76.2616 14.3268 76.923 14.695L76.2227 16.2838C75.5613 15.9156 74.8804 15.7994 74.2969 15.7994C73.4993 15.7994 73.2269 16.0125 73.2269 16.2644C73.2269 17.1944 77.1759 16.1869 77.1759 18.8414C77.1759 20.0814 76.0282 21.0308 73.8494 21.0308C72.7212 21.0502 71.554 20.7789 70.8926 20.3721Z" fill="#8B95AD"/>
<path d="M77.2344 17.5819C77.2344 15.5669 78.8295 14.1331 81.0277 14.1331C83.2454 14.1331 84.8211 15.5669 84.8211 17.5819C84.8211 19.597 83.2454 21.0502 81.0277 21.0502C78.8295 21.0502 77.2344 19.6164 77.2344 17.5819ZM82.4478 17.5819C82.4478 16.5744 81.8447 15.9931 81.0277 15.9931C80.2301 15.9931 79.6076 16.555 79.6076 17.5819C79.6076 18.6089 80.2301 19.1901 81.0277 19.1901C81.8447 19.1901 82.4478 18.6089 82.4478 17.5819Z" fill="#8B95AD"/>
<path d="M84.9375 17.5819C84.9375 15.5669 86.5327 14.1331 88.7892 14.1331C90.3065 14.1331 91.4737 14.8112 91.9406 15.9738L90.112 16.9038C89.7813 16.2838 89.3144 16.0125 88.7698 16.0125C87.9527 16.0125 87.3108 16.5744 87.3108 17.6013C87.3108 18.6282 87.9527 19.2095 88.7698 19.2095C89.3144 19.2095 89.7813 18.9382 90.112 18.3182L91.9406 19.2483C91.4737 20.4108 90.326 21.089 88.7892 21.089C86.5521 21.0502 84.9375 19.6164 84.9375 17.5819Z" fill="#8B95AD"/>
<path d="M92.0381 12.2728C92.0381 11.5752 92.6022 11.0327 93.4776 11.0327C94.353 11.0327 94.9171 11.5365 94.9171 12.234C94.9171 12.9703 94.353 13.5128 93.4776 13.5128C92.6022 13.5128 92.0381 12.9703 92.0381 12.2728ZM92.291 14.2491H94.6448V20.9337H92.291V14.2491Z" fill="#8B95AD"/>
<path d="M101.92 17.2333V20.9535H99.7222V20.0816C99.3915 20.721 98.7106 21.0504 97.738 21.0504C96.1234 21.0504 95.2285 20.1591 95.2285 18.9965C95.2285 17.7565 96.1428 17.0008 98.2048 17.0008H99.5471C99.5082 16.3227 99.0608 15.9352 98.127 15.9352C97.4851 15.9352 96.7653 16.1483 96.2984 16.5164L95.5009 14.9276C96.2595 14.4238 97.4073 14.1526 98.4577 14.1526C100.675 14.1526 101.92 15.102 101.92 17.2333ZM99.5665 18.8028V18.2215H98.555C97.7963 18.2215 97.524 18.4928 97.524 18.8997C97.524 19.2872 97.8547 19.5778 98.3994 19.5778C98.9246 19.5778 99.372 19.3259 99.5665 18.8028Z" fill="#8B95AD"/>
<path d="M107.503 20.6817C107.094 20.9336 106.491 21.0692 105.869 21.0692C104.138 21.0692 103.146 20.236 103.146 18.5116V16.264H102.173V14.5202H103.146V12.7764H105.48V14.5202H107.017V16.264H105.48V18.4922C105.48 18.9766 105.772 19.2479 106.18 19.2479C106.433 19.2479 106.705 19.1704 106.9 19.0347L107.503 20.6817Z" fill="#8B95AD"/>
<path d="M107.601 12.2728C107.601 11.5752 108.165 11.0327 109.04 11.0327C109.915 11.0327 110.48 11.5365 110.48 12.234C110.48 12.9703 109.915 13.5128 109.04 13.5128C108.165 13.5128 107.601 12.9703 107.601 12.2728ZM107.853 14.2491H110.207V20.9337H107.853V14.2491Z" fill="#8B95AD"/>
<path d="M110.771 17.5819C110.771 15.5669 112.367 14.1331 114.565 14.1331C116.782 14.1331 118.358 15.5669 118.358 17.5819C118.358 19.597 116.782 21.0502 114.565 21.0502C112.367 21.0502 110.771 19.6164 110.771 17.5819ZM115.965 17.5819C115.965 16.5744 115.362 15.9931 114.545 15.9931C113.748 15.9931 113.125 16.555 113.125 17.5819C113.125 18.6089 113.748 19.1901 114.545 19.1901C115.362 19.1901 115.965 18.6089 115.965 17.5819Z" fill="#8B95AD"/>
<path d="M126.042 17.1171V20.9341H123.688V17.5046C123.688 16.5358 123.26 16.1289 122.579 16.1289C121.821 16.1289 121.237 16.5939 121.237 17.7177V20.9535H118.903V14.2495H121.14V14.9857C121.665 14.4238 122.424 14.1526 123.28 14.1526C124.836 14.1526 126.042 15.0439 126.042 17.1171Z" fill="#8B95AD"/>
</svg>
