<svg width="188" height="62" viewBox="0 0 188 62" fill="none" xmlns="http://www.w3.org/2000/svg">
<path d="M6.01625 41.6809L0 21.3134H4.0735L8.08433 36.2913H8.27234L12.2832 21.3134H16.3567L20.3675 36.2286H20.5555L24.5037 21.3134H28.5772L22.6863 41.6809H18.6128L14.4766 26.9536H14.1632L10.0271 41.6809H6.01625Z" fill="black"/>
<path d="M34.2801 42.1195C32.964 42.1195 31.836 41.8688 30.7706 41.3675C29.7052 40.8661 28.8905 40.1768 28.3265 39.2367C27.6998 38.2967 27.3865 37.1687 27.3865 35.8526C27.3865 34.7246 27.6372 33.7845 28.0758 33.0325C28.5145 32.2805 29.1412 31.7164 29.8932 31.2777C30.6453 30.8391 31.46 30.5257 32.4 30.275C33.3401 30.0244 34.2801 29.899 35.2201 29.7737C36.4108 29.6484 37.4136 29.523 38.1656 29.3977C38.9176 29.335 39.4816 29.147 39.795 28.959C40.171 28.771 40.2963 28.395 40.2963 27.8936C40.2963 26.7656 39.983 25.8255 39.2936 25.1988C38.6669 24.5721 37.6642 24.2588 36.4108 24.2588C35.0948 24.2588 34.0294 24.5721 33.2774 25.1362C32.5253 25.7002 31.9613 26.3896 31.7106 27.0789L27.9505 26.2015C28.3892 24.9482 29.0159 23.9455 29.8932 23.1934C30.7706 22.4414 31.7107 21.8774 32.8387 21.5014C33.9667 21.1253 35.0948 21 36.3482 21C37.1629 21 38.0402 21.1253 38.9176 21.3133C39.8576 21.5014 40.6723 21.8774 41.487 22.3787C42.3017 22.8801 42.9284 23.6321 43.4298 24.5095C43.9312 25.4495 44.1818 26.6402 44.1818 28.1443V41.6808H40.2963V38.9234H40.1083C39.8576 39.4248 39.4816 39.9261 38.9803 40.4275C38.4789 40.9288 37.7896 41.3048 36.9749 41.6808C36.4108 41.9942 35.4081 42.1195 34.2801 42.1195ZM35.1575 38.9234C36.2855 38.9234 37.2255 38.7354 37.9776 38.2967C38.7296 37.858 39.3563 37.294 39.795 36.6046C40.2337 35.9153 40.4217 35.1632 40.4217 34.3485V31.7164C40.2963 31.8418 39.983 31.9671 39.607 32.0924C39.231 32.2178 38.7296 32.3431 38.2282 32.4058C37.7269 32.4685 37.2255 32.5938 36.7242 32.6565C36.2228 32.7191 35.8468 32.7818 35.5335 32.8445C34.7814 32.9698 34.0921 33.0952 33.4027 33.3458C32.776 33.5965 32.2747 33.9099 31.8987 34.3485C31.5226 34.7872 31.3346 35.3513 31.3346 36.0406C31.3346 37.0433 31.7107 37.7327 32.4 38.234C33.0894 38.6727 34.0294 38.9234 35.1575 38.9234Z" fill="black"/>
<path d="M62.2931 21.3134L54.8982 41.6809H50.6367L43.2417 21.3134H47.5032L52.6421 36.9807H52.8301L57.969 21.3134H62.2931Z" fill="black"/>
<path d="M70.0642 42.1195C68.0588 42.1195 66.304 41.6809 64.8626 40.8035C63.4213 39.9261 62.2932 38.7354 61.5412 37.1687C60.7891 35.6019 60.3505 33.7845 60.3505 31.6538C60.3505 29.5857 60.7265 27.7056 61.5412 26.1389C62.2932 24.5722 63.4213 23.3188 64.8626 22.3787C66.304 21.5014 67.9334 21.0627 69.8135 21.0627C70.9416 21.0627 72.0696 21.2507 73.135 21.6267C74.2004 22.0027 75.2031 22.6294 76.0178 23.4441C76.8951 24.2588 77.5218 25.3242 78.0232 26.6402C78.5245 27.9563 78.7752 29.523 78.7752 31.3404V32.7192H62.6066V29.7737H74.9524C74.9524 28.7083 74.7644 27.831 74.3257 27.0163C73.887 26.2016 73.323 25.5749 72.571 25.0735C71.8189 24.6348 70.8789 24.3842 69.8762 24.3842C68.7481 24.3842 67.8081 24.6348 66.9934 25.1989C66.1787 25.7629 65.552 26.4522 65.1133 27.3296C64.6746 28.207 64.424 29.147 64.424 30.1497V32.4685C64.424 33.8472 64.6746 34.9753 65.176 35.9153C65.6773 36.8553 66.304 37.6074 67.1814 38.1087C68.0588 38.6101 69.0615 38.8607 70.1895 38.8607C70.9416 38.8607 71.6309 38.7354 72.2576 38.5474C72.8843 38.3594 73.3857 37.9834 73.887 37.5447C74.3257 37.106 74.7017 36.6047 74.9524 35.9153L78.7125 36.6046C78.3992 37.7327 77.8978 38.6727 77.0831 39.4874C76.3311 40.3021 75.3284 40.9288 74.2004 41.4302C72.8843 41.8689 71.5683 42.1195 70.0642 42.1195Z" fill="black"/>
<path d="M94.4425 26.2642L90.8704 26.8909C90.7451 26.4522 90.4944 26.0136 90.181 25.5749C89.8677 25.1362 89.429 24.8228 88.865 24.5722C88.301 24.3215 87.6116 24.1961 86.7969 24.1961C85.6688 24.1961 84.7288 24.4468 83.9768 24.9482C83.2247 25.4495 82.8487 26.0762 82.8487 26.8909C82.8487 27.5803 83.0994 28.1443 83.6008 28.5203C84.1021 28.959 84.9168 29.2723 86.0449 29.523L89.3037 30.2751C91.1837 30.7137 92.5625 31.4031 93.5025 32.2805C94.4425 33.1578 94.8812 34.3486 94.8812 35.79C94.8812 36.9807 94.5052 38.1087 93.8158 39.0487C93.1265 39.9888 92.1238 40.7408 90.8704 41.3048C89.617 41.8689 88.1756 42.1195 86.5462 42.1195C84.2901 42.1195 82.41 41.6182 80.9687 40.6781C79.5273 39.6754 78.6499 38.2967 78.3365 36.4793L82.1594 35.9153C82.4101 36.918 82.9114 37.67 83.6634 38.1714C84.4155 38.6727 85.3555 38.9234 86.5462 38.9234C87.8623 38.9234 88.865 38.6727 89.6797 38.1087C90.4317 37.5447 90.8704 36.918 90.8704 36.1033C90.8704 35.4766 90.6197 34.9126 90.181 34.4739C89.6797 34.0352 88.9903 33.7219 87.9876 33.4712L84.5408 32.7192C82.6607 32.2805 81.2193 31.5911 80.342 30.6511C79.4646 29.711 78.9632 28.5203 78.9632 27.0789C78.9632 25.8882 79.2766 24.8228 79.9659 23.9455C80.6553 23.0681 81.5953 22.3161 82.7234 21.8147C83.9141 21.3134 85.2928 21.0627 86.7969 21.0627C88.9903 21.0627 90.7451 21.564 91.9984 22.5041C93.2518 23.3814 94.0665 24.6975 94.4425 26.2642Z" fill="black"/>
<path d="M151.039 27.4682C151.347 27.8013 151.757 27.8013 152.115 27.8013C152.167 27.8013 152.218 27.8013 152.295 27.8013C152.32 27.8013 152.32 27.8013 152.346 27.8013C152.833 27.8013 153.012 27.6476 153.115 27.1095L153.345 24.8034L153.653 23.0098C153.679 22.7791 153.73 22.4717 153.781 22.1129C153.909 21.2161 154.114 20.0118 154.063 18.9613C154.063 18.7307 154.114 18.6025 154.242 18.4744C154.832 19.32 156.651 21.6773 157.804 23.1635C158.265 23.7785 158.675 24.2909 158.701 24.3422C159.034 24.8546 160.084 24.5728 160.546 24.2653C160.981 23.9834 160.981 23.676 160.853 23.471C160.827 23.4454 160.802 23.3429 160.776 23.266C160.751 23.2147 160.751 23.1379 160.725 23.0866C160.622 22.8304 159.905 21.8055 158.778 20.1656C157.855 18.8331 156.83 17.3726 156.446 16.6808C156.753 16.3733 157.676 14.8103 160.494 9.7881C161.391 8.19946 162.288 6.55956 162.442 6.35457C162.98 5.89335 162.416 4.7403 162.057 4.22783C161.647 3.66412 161.366 3.66412 161.161 3.79224C160.879 3.99722 159.7 5.91898 157.24 9.96747C156.164 11.7355 154.985 13.6829 154.319 14.7078C154.345 14.2466 154.396 13.7085 154.422 13.1448C154.498 11.8892 154.601 10.4543 154.703 9.94184L154.832 8.71192V8.6863C154.832 8.53256 154.78 8.40444 154.652 8.32757C154.242 8.07134 153.14 8.30195 152.474 8.66068C151.911 8.96816 151.782 9.30126 151.782 9.53187C151.782 10.5312 151.731 11.5817 151.629 12.8629C151.603 13.2473 151.526 13.6316 151.449 14.0416C151.398 14.3491 151.347 14.6565 151.296 14.9896C151.244 15.4509 151.219 15.8865 151.219 16.3477C151.219 16.6552 151.193 16.9626 151.167 17.2445C151.091 17.9363 150.988 18.6794 150.937 19.3969C150.886 20.5499 150.86 21.8311 150.886 23.3172C150.886 23.7528 150.86 24.1884 150.834 24.6753C150.809 25.0084 150.809 25.3415 150.809 25.649C150.783 26.0589 150.757 26.4945 150.757 26.9301V26.9558V26.9814C150.783 27.1351 150.886 27.3401 151.039 27.4682Z" fill="#0055FF"/>
<path d="M161.827 16.5527L161.801 16.8858C161.75 17.3983 161.724 17.9107 161.699 18.3976V18.6282C161.519 22.0617 161.57 22.3436 161.699 22.4717C161.75 22.5486 161.852 22.6511 162.16 22.6511C162.493 22.6511 163.031 22.5486 163.953 22.1898L164.082 22.1386L164.107 22.0105C164.107 21.9849 164.107 21.9849 164.107 21.9592C164.312 21.8824 164.517 21.7799 164.722 21.703C164.927 21.6261 165.132 21.5236 165.337 21.4468C165.542 21.3699 165.721 21.2674 165.926 21.1905C166.311 21.0112 166.721 20.8318 167.131 20.7037C167.489 20.6012 167.848 20.5243 168.207 20.4731C168.412 20.4475 168.591 20.4218 168.796 20.3706C168.848 20.345 168.899 20.345 168.95 20.3193C168.976 20.2937 169.027 20.2937 169.078 20.2681L170.564 19.7044C171.231 19.4994 171.026 17.9107 170.897 17.3983C170.769 16.8858 170.564 16.6808 170.282 16.7321C170.026 16.7833 169.77 16.8346 169.565 16.8346C169.104 16.8089 168.694 16.8858 168.361 17.0652C168.309 17.0908 168.207 17.1164 168.104 17.142C168.053 17.1677 168.002 17.1677 167.951 17.1677L167.848 17.1933C167.489 17.2702 167.156 17.347 166.798 17.4495L164.056 18.1926C164.082 17.9107 164.133 17.6801 164.184 17.4495C164.261 17.1677 164.312 16.8602 164.338 16.4758C164.44 15.374 164.748 12.9654 164.85 12.3249L164.876 12.2992H164.902C165.209 12.1199 165.516 11.9917 165.85 11.838L165.875 11.8124C166.055 11.7099 166.875 11.3768 167.515 11.1206C168.028 10.9156 168.463 10.7362 168.643 10.6593C169.001 10.5056 169.053 9.99313 168.822 9.3013C168.643 8.81445 168.438 8.58384 168.207 8.66071L165.081 9.58315C165.158 8.32761 165.363 5.56029 165.491 4.45848C165.491 4.43286 165.542 4.40723 165.542 4.38161C165.696 4.27912 165.875 4.25349 166.08 4.17662C166.388 4.07413 166.695 3.99726 167.003 3.92039C167.31 3.84352 167.643 3.74103 167.925 3.66416C167.976 3.63853 168.028 3.63853 168.079 3.63853C168.309 3.58729 168.54 3.53604 168.745 3.3823C169.437 2.89546 170.231 2.63922 170.923 2.45986C171.154 2.40861 171.333 2.12676 171.435 1.61429C171.435 1.61429 171.717 0.358743 171.41 0.0768864C171.333 1.63065e-05 171.231 1.63028e-05 171.128 0.0256397C170.949 0.0768864 170.769 0.153756 170.616 0.230627C170.539 0.25625 170.462 0.281873 170.385 0.307497C170.282 0.33312 170.206 0.384367 170.103 0.384367C169.949 0.40999 169.821 0.40999 169.667 0.435613C169.462 0.435613 169.258 0.461237 169.053 0.512484C168.079 0.768717 167.156 1.02495 166.183 1.30681L165.44 1.51179C165.414 1.51179 165.363 1.51179 165.312 1.51179C165.286 1.51179 163.21 1.87052 163.134 2.66485C163.082 2.97233 162.852 5.20156 162.852 5.43217C162.852 5.63716 162.826 5.73965 162.826 5.89339C162.8 6.07275 162.775 6.30336 162.775 6.71334L162.749 7.6614C162.57 9.1988 161.98 14.7334 161.929 15.169C161.878 15.6046 161.852 16.0915 161.827 16.5527Z" fill="#0055FF"/>
<path d="M179.302 3.15167C179.609 3.02356 180.532 2.94669 181.352 2.86982C182.197 2.79295 182.992 2.71608 183.35 2.61358C183.453 2.58796 183.53 2.56234 183.581 2.56234H183.607H183.632C183.786 2.56234 184.273 2.51109 184.401 1.973V1.92175L184.375 1.76801C184.375 1.69114 184.35 1.58865 184.298 1.5374L184.145 0.563714C184.093 0.30748 183.888 0.179363 183.735 0.102493L183.607 0L182.992 0.0512467V0.128117C181.147 0.640584 171.025 3.40791 170.436 3.76663L170.41 3.79226C170.308 3.86913 170.231 3.92037 170.129 3.946C169.309 4.15098 169.206 5.97024 169.309 6.43146C169.386 6.79019 169.667 6.73894 169.693 6.71332L171.564 6.27772C171.666 6.2521 173.537 5.61151 173.818 5.4834L175.1 5.09905L175.151 5.07342C175.023 5.40653 174.997 5.71401 174.997 6.04711C174.997 6.14961 175.023 6.27772 174.997 6.38022V6.40584C174.971 6.73894 174.946 7.07205 174.92 7.43077C174.869 7.94324 174.818 8.45571 174.818 8.96817C174.766 9.89061 174.613 10.6337 174.382 11.3511C174.305 11.6074 174.254 11.9149 174.254 12.1967C174.203 13.1192 174.023 15.2971 173.895 16.6039V16.6296C173.793 17.347 173.716 18.0901 173.639 18.8075C173.613 18.9613 173.716 19.1663 173.998 19.2175C174.023 19.2175 174.049 19.2175 174.1 19.2175C174.561 19.2175 175.663 18.8844 175.766 18.4488C175.843 17.9876 175.919 17.552 175.996 17.1164C176.099 16.5271 176.201 15.9633 176.304 15.374C176.381 15.0153 176.483 14.6053 176.586 14.1697C176.739 13.606 176.868 13.0167 176.97 12.4786C177.021 12.1967 177.073 11.9149 177.149 11.633C177.252 11.1462 177.354 10.6337 177.431 10.0956C177.534 9.42939 177.611 8.66069 177.662 7.94324C177.662 7.7895 177.688 7.63576 177.688 7.48202C177.713 6.96955 177.739 6.48271 177.816 5.99586C177.892 5.4834 177.969 4.94531 178.021 4.43284C178.046 4.20223 178.072 3.946 178.097 3.71539V3.68976C178.482 3.5104 178.866 3.30541 179.302 3.15167Z" fill="#0055FF"/>
<path d="M145.581 33.2079C145.172 33.131 144.736 33.0285 144.3 33.0541C143.557 33.0797 142.917 33.2079 142.302 33.3872C142.379 33.2079 142.43 33.0541 142.455 32.8748C142.584 32.3623 142.686 31.8754 142.814 31.363C142.968 30.6711 143.147 29.9537 143.301 29.2619C143.532 28.2625 143.634 27.2632 143.737 26.2895C143.788 25.7258 143.865 25.1365 143.942 24.5472C144.018 23.9834 144.147 23.4197 144.3 22.8048C144.326 22.7535 144.326 22.6767 144.352 22.6254C144.352 22.6254 144.377 22.6254 144.377 22.651C144.531 22.7535 144.685 22.8816 144.787 22.9841L144.813 23.0098C144.992 23.1379 145.172 23.3172 145.351 23.471C145.428 23.5222 145.479 23.5991 145.556 23.676C146.043 24.0859 147.247 26.0589 147.964 27.2376C148.477 28.0832 148.605 28.2882 148.708 28.365C148.784 28.4163 148.938 28.4675 149.169 28.3907C149.579 28.2113 150.322 27.4426 150.373 27.0582V27.0326V26.7508L150.347 26.6995C150.296 26.6226 150.271 26.5202 150.219 26.4177C150.142 26.2127 150.04 26.0077 149.912 25.8027C149.835 25.6746 149.758 25.5721 149.681 25.444C149.451 25.1109 149.246 24.8034 149.118 24.4447C149.066 24.3165 149.015 24.1884 148.989 24.0603C148.887 23.7785 148.784 23.471 148.631 23.1635C148.503 22.9841 148.4 22.7791 148.272 22.5742C148.016 22.1129 147.759 21.6517 147.324 21.2674C147.298 21.2417 147.247 21.1392 147.221 21.0624C147.042 20.7037 146.837 20.3449 146.478 20.0374C146.427 19.9862 146.35 19.935 146.299 19.8581C146.427 19.7556 146.555 19.6275 146.658 19.525C146.888 19.32 147.093 19.115 147.324 18.9356L147.529 18.7563C147.99 18.3719 148.451 17.962 148.784 17.3982C148.861 17.2701 148.964 17.1164 149.041 16.9883C149.425 16.3989 149.809 15.784 149.963 15.0409C150.014 14.8103 150.066 14.6053 150.117 14.4003C150.168 14.2466 150.219 14.0672 150.245 13.9135C150.424 13.1704 150.501 12.5042 150.45 11.8123C150.424 11.1974 150.091 10.7874 149.502 10.5824C149.015 10.3774 148.503 10.3262 148.093 10.3262C147.247 10.3006 146.427 10.4031 145.71 10.6593H145.684C145.581 10.5568 145.479 10.4799 145.325 10.4031L145.248 10.3518L145.146 10.3774C144.992 10.4287 144.838 10.4543 144.685 10.5056C144.531 10.5568 144.403 10.608 144.275 10.6337C143.762 10.7105 143.557 11.0693 143.429 11.4024C143.403 11.428 143.378 11.4536 143.327 11.4792C143.25 11.5305 143.173 11.5561 143.07 11.5817C142.968 11.633 142.865 11.6586 142.763 11.7099C142.481 11.8892 142.174 12.043 141.892 12.1967C141.584 12.3504 141.302 12.5298 141.021 12.6835C140.713 12.8629 140.38 13.0679 140.098 13.2985C139.919 13.401 139.791 13.5291 139.637 13.6572C139.56 13.7341 139.457 13.811 139.381 13.8622C139.329 13.8878 139.278 13.9135 139.253 13.9647C139.124 14.0416 138.996 14.1441 138.894 14.2722C138.561 14.6565 138.663 14.9384 138.766 15.0665C138.996 15.4252 139.329 15.2971 139.483 15.2459L139.56 15.2203C139.739 15.1434 139.919 15.0409 140.098 15.0153C141.072 14.8103 141.866 14.6309 142.584 14.2722C142.712 14.2209 142.865 14.1697 143.019 14.1441C142.891 14.9384 142.737 15.6558 142.609 16.3477C142.558 16.5783 142.481 16.8089 142.404 17.0395C142.353 17.2189 142.276 17.4239 142.225 17.6288C142.148 17.962 142.097 18.3207 142.045 18.6538C141.994 18.91 141.969 19.1663 141.917 19.4225C141.815 20.0374 141.815 20.7037 141.917 21.498C142.02 22.1898 141.892 22.856 141.789 23.5991C141.764 23.8041 141.738 24.0091 141.687 24.2141C141.61 24.7521 141.482 25.2902 141.354 25.8027C141.251 26.2127 141.149 26.6483 141.072 27.0839C140.892 28.16 140.739 29.2106 140.611 30.2612V30.3124C140.534 31.1836 140.482 32.0548 140.431 32.926C140.201 32.4392 139.944 31.9523 139.714 31.4911L138.894 29.9024C138.843 29.7999 138.766 29.6206 138.714 29.4925L137.997 26.8276C137.946 26.6226 137.869 26.4433 137.792 26.2383C137.664 25.8539 137.51 25.4952 137.433 25.1109C137.305 24.4959 137.203 23.8809 137.126 23.266C137.075 22.9841 137.049 22.7279 136.998 22.4717C136.998 22.3179 136.972 22.1898 136.998 22.0617C137.1 21.6005 136.972 21.1905 136.87 20.7805C136.716 20.2424 136.588 19.6531 136.485 19.0638C136.46 18.8844 136.408 18.705 136.383 18.5C136.255 17.7826 136.101 17.0139 135.793 16.2708C135.742 16.1683 135.742 16.0146 135.716 15.8608C135.716 15.7583 135.691 15.6558 135.691 15.5534C135.614 15.1946 135.537 14.8359 135.435 14.4772L135.358 14.2722C135.307 14.1184 135.153 13.8622 134.589 13.8878C134.205 13.8878 133.334 14.0672 133.257 14.554C133.257 14.6565 133.205 14.759 133.154 14.8615C133.103 14.964 133.077 15.0921 133.026 15.2459L132.975 15.4252C132.872 15.7583 132.77 16.1171 132.693 16.4758C132.59 17.2445 132.514 18.0644 132.411 18.8331C132.36 19.3969 132.283 19.9606 132.232 20.5243C132.155 20.9086 132.078 21.3186 131.847 21.703C131.694 21.9848 131.617 22.2154 131.591 22.3948C131.514 23.1122 131.437 23.8297 131.386 24.5215C131.361 24.8546 131.258 25.1621 131.156 25.4184C130.951 25.7771 130.899 26.1614 130.976 26.5202C131.002 26.6995 130.976 26.8789 130.976 27.0326C130.951 27.2632 130.899 27.4938 130.874 27.6988C130.822 28.0832 130.746 28.4675 130.72 28.8519V28.8775C130.72 29.0312 130.617 29.9024 130.541 30.6455C130.438 31.5167 130.387 32.0804 130.387 32.1573C130.31 33.1054 130.284 33.9253 130.336 34.7709C130.336 34.8477 130.336 34.9502 130.31 35.0527C130.31 35.104 130.284 35.1552 130.284 35.2065C130.156 34.899 130.054 34.6171 129.926 34.3097C129.746 33.8997 129.567 33.4128 129.49 32.9772C129.234 31.8754 129.029 30.7736 128.798 29.7487C128.491 28.3907 128.158 27.0326 127.85 25.649C127.415 23.8041 127.261 21.9336 127.107 20.0631V19.32C127.235 18.5513 127.107 17.8338 126.979 17.0395C126.671 15.6815 126.518 14.2722 126.261 12.8885C126.082 11.7099 125.877 10.5568 125.647 9.3525L125.313 7.53324C125.237 6.91828 122.213 6.07271 122.085 6.66205C121.88 7.40513 121.649 8.1482 121.547 8.86566C121.239 11.2999 121.034 13.7085 120.752 16.1939C120.65 16.9626 120.471 17.757 120.137 18.3975C119.958 18.7307 119.804 19.115 119.779 19.525C119.625 20.7037 119.523 21.9336 119.446 23.2404C119.369 23.8809 119.215 24.4959 119.01 25.1365C118.856 25.5721 118.677 26.0846 118.754 26.5202C118.959 27.9038 118.395 29.1337 118.498 30.4918L118.369 30.5174C118.344 30.4149 118.293 30.3637 118.267 30.2612C118.088 29.5437 117.908 28.8519 117.78 28.1344C117.37 26.4433 117.242 24.7009 117.088 22.9329C117.037 22.651 117.011 22.3179 117.063 22.0104C117.242 21.2161 117.011 20.473 116.858 19.7043C116.601 18.3207 116.448 16.9883 116.191 15.6046C116.012 14.4259 115.807 13.2216 115.577 12.0173C115.474 11.4024 115.346 10.813 115.295 10.1981C115.192 9.71123 112.169 8.84004 112.015 9.455C111.836 10.1981 111.631 10.9155 111.554 11.7611C111.246 13.8366 111.016 15.9633 110.811 18.0901C110.708 19.32 110.503 20.473 109.939 21.4467C109.837 21.703 109.76 21.9592 109.76 22.1898C109.632 23.4966 109.478 24.7265 109.376 25.9564C109.35 26.597 109.222 27.1864 108.966 27.7757C108.735 28.2882 108.633 28.8263 108.709 29.4412C108.786 29.8256 108.761 30.2868 108.709 30.6455C108.709 31.1067 108.581 31.5423 108.53 31.9523C108.428 32.9004 108.351 33.8228 108.069 34.7709C107.915 35.2577 107.89 35.8471 107.864 36.4364C107.813 36.7439 107.838 37.077 107.813 37.4357C107.813 37.8969 107.71 38.3838 107.71 38.845C107.71 39.5368 107.736 40.2287 107.71 40.8692C107.71 41.3305 107.633 41.7404 107.608 42.1504L107.633 44.6102C107.608 45.2508 107.608 45.9427 107.633 46.5576L107.736 47.8132C107.787 48.095 107.838 48.4281 107.992 48.6844C108.299 49.3506 110.221 48.8637 110.375 48.5306C110.426 48.3513 110.452 48.1719 110.452 47.9925C110.503 46.9932 110.503 46.0195 110.58 45.0971C110.606 44.2771 110.708 43.5084 110.759 42.7654C110.785 41.8942 110.657 40.9461 111.016 40.0493C111.041 39.9212 111.016 39.8187 111.041 39.6906L111.118 37.5382C111.144 37.1795 111.092 36.8464 111.221 36.5901C111.528 35.7702 111.554 34.8477 111.733 34.0022C111.81 33.4128 111.81 32.9004 111.656 32.3623C111.579 32.1573 111.631 31.9779 111.656 31.7986C111.759 30.7993 111.887 29.7231 112.015 28.7238C112.041 28.365 112.169 28.0576 112.297 27.7245C112.374 27.417 112.527 27.212 112.579 26.9045C112.912 25.6233 113.219 24.3422 113.399 22.9841L113.552 22.2667C113.578 22.1386 113.604 22.0873 113.629 21.9592C113.783 22.2667 113.834 22.5485 113.834 22.8304C113.911 23.7785 114.09 24.7265 114.423 25.7002C114.5 25.9052 114.603 26.187 114.654 26.4433C114.833 27.7245 115.038 29.0056 115.295 30.3124C115.474 31.2605 115.705 32.2342 115.935 33.2079C116.063 33.6947 116.371 34.079 116.525 34.5659C116.935 35.7958 117.831 41.3817 118.088 44.3028C118.344 47.2238 121.009 44.1746 120.906 43.0985C120.804 42.0223 121.137 36.667 121.188 35.9239C121.239 35.3858 121.239 34.8734 121.316 34.3865C121.47 33.6691 121.624 33.0029 121.675 32.2342C121.675 31.5423 121.726 30.7736 121.777 30.0306C121.803 29.9024 121.777 29.7999 121.803 29.6718C121.701 28.8263 121.829 28.0063 121.957 27.1607L122.11 26.4433C122.213 25.9564 122.315 25.4696 122.418 25.0596C122.469 24.829 122.597 24.5472 122.7 24.2397C123.033 22.9585 123.34 21.6773 123.52 20.3193L123.674 19.6018C123.699 19.4737 123.776 19.3969 123.802 19.2944L124.032 20.5499C124.186 21.3699 124.391 22.1898 124.545 23.0098C124.775 24.0347 125.134 25.1109 125.237 26.187C125.339 27.212 125.518 28.1857 125.698 29.185C125.775 29.6206 125.903 30.0562 126.082 30.4662C126.287 31.0555 126.518 31.568 126.723 32.1573C127.158 33.541 127.543 35.0271 128.106 36.3339C128.593 37.487 128.926 38.7425 129.413 39.8699C129.669 40.5105 129.849 41.1511 130.054 41.7917C130.438 42.9191 130.951 43.8928 131.77 44.6615C132.155 44.969 133.718 43.4572 133.615 43.201L132.001 39.0244C131.873 38.6913 131.745 38.3581 131.617 38.025C131.642 38.025 131.642 38.025 131.668 38.025C131.745 38.0507 131.847 38.0507 131.924 38.0507C132.411 38.0507 132.77 37.7688 132.898 37.2563C132.975 36.8976 133 36.5133 133 36.1545L133.129 34.0534C133.154 33.6691 133.154 33.2847 133.129 32.926C133.129 32.8747 133.129 32.8235 133.129 32.7723C133.129 32.721 133.129 32.6954 133.129 32.6954C133.359 32.1829 133.359 31.6448 133.359 31.1324V30.9017C133.359 30.6199 133.462 30.4405 133.718 30.2868L134.256 29.8512C134.538 29.6462 134.82 29.4412 135.076 29.2106C135.332 29.0056 135.614 28.775 135.896 28.5956C135.947 28.5444 136.024 28.5188 136.101 28.4932C136.152 28.6213 136.229 28.7494 136.28 28.8775C136.357 29.0312 136.434 29.2106 136.511 29.3387L136.613 29.6206C136.921 30.4149 137.228 31.2349 137.715 31.9523C137.741 32.0036 137.741 32.0548 137.792 32.106C137.894 32.3623 137.997 32.6185 138.125 32.8748C138.356 33.4128 138.586 33.9766 138.843 34.5146C138.919 34.6684 139.022 34.8477 139.15 35.0271C139.124 35.104 139.073 35.1552 138.919 35.2065C138.791 35.2321 138.714 35.309 138.612 35.3858C138.561 35.4371 138.509 35.4627 138.458 35.4883L138.433 35.514C138.151 35.7446 137.843 35.9496 137.561 36.1802C137.254 36.4108 136.972 36.6158 136.665 36.872C136.613 36.8976 136.562 36.9232 136.511 36.9745C136.408 37.0257 136.28 37.1026 136.178 37.2307L135.998 37.4101L136.178 37.5894C136.331 37.7432 137.613 38.9731 138.561 38.3838C138.689 38.2813 138.868 38.2044 139.048 38.1275C139.022 38.7937 139.022 39.4856 138.945 40.1518C138.919 40.6386 138.868 41.0998 138.791 41.5867L138.689 42.9447C138.663 43.0472 138.663 43.1497 138.663 43.2266C138.663 43.2522 138.663 43.2778 138.663 43.3035C138.663 43.4828 138.638 43.6622 138.638 43.8415C138.612 44.2771 138.586 44.764 138.663 45.2252C138.74 45.7889 138.714 46.0708 138.356 46.4039C138.023 46.7114 137.766 47.0701 137.51 47.4032C137.382 47.5826 137.228 47.7875 137.075 47.9669L136.844 48.3513C136.69 48.6587 136.767 49.2993 137.023 49.5043C137.28 49.7349 137.818 49.658 138.099 49.4274L138.202 49.2993C138.381 49.12 138.561 48.9406 138.74 48.7612C138.843 48.6331 138.971 48.5306 139.073 48.4025C139.099 48.8893 139.099 49.3506 139.073 49.8118C139.048 50.3755 138.996 50.9648 138.945 51.5286C138.868 52.5279 138.766 53.5528 138.817 54.5777C138.817 55.0646 138.843 55.7308 138.868 56.4226C138.894 57.1144 138.894 57.7807 138.919 58.2675C138.945 58.6262 138.971 58.985 139.022 59.3693C139.048 59.728 139.099 60.0868 139.124 60.4455L139.176 60.9067V60.9323C139.227 61.2142 139.355 61.4192 139.56 61.5217C139.662 61.5729 139.791 61.6242 139.919 61.6242C139.996 61.6242 140.098 61.5985 140.201 61.5729C140.713 61.4448 141.072 61.0861 141.226 60.5224C141.328 60.0611 141.379 59.5999 141.43 59.2156C141.533 58.1906 141.661 57.012 141.738 55.8845C141.764 55.2696 141.764 54.3471 141.764 53.5272C141.764 53.0147 141.764 52.5279 141.764 52.1435C141.764 51.7335 141.738 51.3236 141.712 50.9136C141.661 49.9399 141.61 49.0175 141.815 48.0694C141.84 47.9413 141.815 47.8132 141.815 47.7107C141.815 47.6851 141.815 47.6338 141.815 47.6082C141.815 47.5313 141.815 47.4288 141.815 47.3519C141.815 47.1213 141.815 46.9164 141.866 46.7626C141.969 46.4295 142.148 46.0964 142.302 45.7889C142.379 45.6608 142.43 45.5071 142.507 45.4046C142.84 44.7896 143.352 44.354 143.89 43.8672L144.095 43.6878C144.71 43.0985 145.223 42.4579 145.633 41.7404C145.915 41.228 146.12 40.6642 146.35 40.1518L146.478 39.7931C146.658 39.3575 146.811 38.8706 146.914 38.2813C146.991 37.8457 147.093 37.3076 147.119 36.7439C147.119 36.052 147.119 35.3602 147.068 34.6684C146.658 33.8997 146.273 33.4128 145.581 33.2079ZM141.456 38.6912C141.482 38.4606 141.482 38.23 141.482 38.025C141.482 37.9225 141.482 37.8201 141.482 37.7176L141.533 36.8207V36.7951C141.533 36.7439 141.507 36.6414 141.687 36.5389L141.892 36.4364C142.507 36.1033 143.122 35.7446 143.813 35.5652C143.89 35.5396 143.967 35.5396 144.044 35.5396C144.172 35.5396 144.275 35.5652 144.352 35.6164C144.48 35.6933 144.531 35.8214 144.557 36.0008C144.582 36.257 144.608 36.5133 144.608 36.7951C144.608 36.9232 144.608 37.077 144.633 37.2051C144.633 37.3332 144.633 37.4357 144.633 37.5638C144.633 37.7944 144.659 37.9994 144.633 38.23C144.608 38.9731 144.198 39.5368 143.813 40.0237C143.378 40.5618 142.917 41.0742 142.43 41.5611C142.199 41.8173 141.943 42.0735 141.712 42.3298C141.584 42.4579 141.456 42.6116 141.302 42.7654C141.226 41.2792 141.251 39.9468 141.456 38.6912ZM147.964 12.4529C148.041 12.4529 148.118 12.4786 148.169 12.5298C148.272 12.6067 148.323 12.7348 148.323 12.8629C148.323 13.0679 148.298 13.2985 148.272 13.5291C148.246 13.6829 148.246 13.8366 148.221 13.9903L148.093 14.9128C148.016 15.3996 147.734 15.8352 147.273 16.2964C146.632 16.8601 145.966 17.3982 145.274 17.962C145.069 18.1157 144.864 18.2951 144.659 18.4488C144.787 17.347 144.967 16.1171 145.325 14.9128C145.376 14.7334 145.402 14.554 145.402 14.4003C145.428 14.2466 145.428 14.1184 145.479 13.9647V13.9135C145.505 13.6829 145.53 13.4522 145.581 13.196C145.581 13.1704 145.633 13.1448 145.658 13.1191C146.478 12.7092 147.196 12.5042 147.888 12.4273C147.939 12.4529 147.964 12.4529 147.964 12.4529ZM135.153 25.8027C135.153 25.8283 135.127 25.8796 135.076 25.9308L133.436 27.1095C133.462 27.007 133.462 26.8789 133.487 26.7764C133.513 26.6739 133.513 26.5714 133.539 26.4689C133.564 26.3664 133.564 26.2383 133.59 26.1614V26.1358C133.615 26.0846 133.615 26.0333 133.641 25.9564C133.692 25.7771 133.718 25.5977 133.795 25.4184L134 24.8034C134.153 24.2909 134.307 23.7785 134.41 23.266C134.512 23.6503 134.615 24.0347 134.794 24.3934C134.922 24.7009 134.999 25.0084 135.076 25.3415C135.076 25.4696 135.102 25.6233 135.153 25.8027Z" fill="#0055FF"/>
<path d="M157.138 47.8388C156.958 47.7363 156.805 47.7876 156.728 47.8132C156.369 48.0182 156.01 48.1975 155.677 48.4282L155.549 48.505C154.806 48.9662 154.114 49.3762 153.294 49.2993H153.14L153.115 49.325C152.884 49.3506 152.628 49.3762 152.397 49.4018C151.987 49.4531 151.603 49.4787 151.219 49.53C151.193 49.53 151.142 49.53 151.091 49.53C150.681 49.53 150.347 49.53 150.117 49.5812C150.091 49.4018 150.066 49.2481 150.066 49.0687C150.014 48.6331 149.963 48.1975 149.886 47.7619C149.656 46.6601 149.681 45.4558 149.937 44.1234C150.066 43.5085 150.117 42.8935 150.117 42.4067C150.117 41.7148 150.142 41.1255 150.219 40.5874C150.271 40.2287 150.271 39.87 150.271 39.5112C150.271 39.3319 150.271 39.1781 150.271 38.9988C150.271 38.7938 150.271 38.6144 150.271 38.435C150.271 38.2557 150.271 38.0763 150.271 37.897C150.271 37.5638 150.296 37.2051 150.322 36.8464C150.347 36.4877 150.373 36.1289 150.373 35.7702C150.373 34.7453 150.476 33.746 150.681 32.7467C150.757 32.3879 150.834 32.0292 150.86 31.6192C150.86 31.4911 150.809 31.363 150.706 31.3118C150.527 31.2093 150.271 31.2349 149.861 31.4655C149.246 31.773 148.118 32.6185 148.093 33.1823C148.041 34.0535 148.016 34.7197 148.016 35.3346C148.016 35.6421 148.016 35.924 148.016 36.2058C148.016 36.5645 148.041 36.9489 148.016 37.3332C147.939 38.3838 147.811 39.46 147.708 40.5105L147.657 40.9205C147.529 42.0992 147.375 43.3035 147.426 44.4822C147.426 45.1996 147.426 45.9427 147.606 46.737L147.657 46.9164C147.734 47.2239 147.836 47.557 147.811 47.8901C147.785 48.8894 147.888 49.8118 147.99 50.7086C147.964 50.7855 147.964 50.9136 147.964 51.0161C147.939 51.4005 147.964 51.7592 148.016 52.1435L148.041 52.4254C148.067 52.6304 148.221 52.8097 148.349 52.8866C148.528 52.9891 148.708 53.0916 148.938 53.1429C148.989 53.1429 149.041 53.1685 149.118 53.1685C149.348 53.2197 149.553 53.271 149.784 53.271C149.835 53.271 149.912 53.271 149.963 53.271C151.167 53.1685 152.32 52.6816 153.269 52.2204L153.525 52.0923C154.063 51.8361 154.575 51.5798 155.139 51.4261C155.651 51.2723 156.19 51.093 156.728 50.9136C157.112 50.7599 157.471 50.6061 157.881 50.4268C157.983 50.3755 158.111 50.2474 158.137 49.9399C158.111 49.4018 157.599 48.1207 157.138 47.8388Z" fill="#0055FF"/>
<path d="M168.924 46.8908C168.514 46.0196 168.104 45.1484 167.669 44.354L166.849 42.7654C166.798 42.6629 166.721 42.4835 166.669 42.3554L165.952 39.6906C165.901 39.4856 165.824 39.3062 165.747 39.1013C165.619 38.7169 165.465 38.3582 165.388 37.9738C165.26 37.3589 165.158 36.7439 165.081 36.1289C165.03 35.8471 165.004 35.5909 164.953 35.3346C164.953 35.1809 164.927 35.0528 164.953 34.9246C165.055 34.4634 164.927 34.0535 164.825 33.6435C164.671 33.1054 164.543 32.5161 164.44 31.9267C164.415 31.7474 164.363 31.568 164.338 31.363C164.21 30.6455 164.056 29.8768 163.748 29.1338C163.697 29.0313 163.697 28.8775 163.672 28.6982C163.672 28.5957 163.646 28.4932 163.646 28.3907C163.569 28.032 163.467 27.6732 163.39 27.3145L163.313 27.1095C163.262 26.9558 163.133 26.6996 162.544 26.7252C162.16 26.7252 161.289 26.9045 161.212 27.3914C161.212 27.4939 161.16 27.5964 161.109 27.6989C161.058 27.8014 161.032 27.9295 160.981 28.0832L160.93 28.2626C160.827 28.5957 160.725 28.9544 160.648 29.3131C160.546 30.0818 160.469 30.8762 160.366 31.6705C160.315 32.2342 160.238 32.7979 160.187 33.3616C160.11 33.746 160.033 34.1559 159.802 34.5403C159.649 34.8222 159.572 35.0528 159.546 35.2321C159.469 35.9496 159.392 36.667 159.341 37.3589C159.316 37.692 159.213 37.9995 159.111 38.2557C158.906 38.6144 158.854 38.9988 158.931 39.3575C158.957 39.5369 158.931 39.7162 158.931 39.87C158.906 40.1006 158.854 40.3312 158.829 40.5362C158.777 40.9205 158.701 41.3049 158.675 41.6892V41.7148C158.675 41.8686 158.573 42.7398 158.496 43.4828C158.393 44.354 158.342 44.9178 158.342 44.9946C158.265 45.9427 158.239 46.7626 158.291 47.6082C158.291 47.6851 158.291 47.7876 158.265 47.8901C158.239 47.9926 158.214 48.0951 158.214 48.1975C158.163 48.5563 158.086 48.915 158.111 49.325C158.111 49.9912 158.752 50.7599 159.392 50.8624C159.469 50.888 159.572 50.888 159.649 50.888C160.136 50.888 160.494 50.6061 160.622 50.0937C160.699 49.735 160.725 49.3506 160.725 48.9919L160.853 46.8908C160.879 46.5064 160.879 46.1221 160.853 45.7633C160.853 45.7121 160.853 45.6608 160.853 45.6096C160.853 45.5583 160.853 45.5327 160.853 45.5327C161.084 45.0203 161.084 44.4822 161.084 43.9441V43.7135C161.084 43.4316 161.186 43.2522 161.442 43.0985L161.98 42.6629C162.262 42.4579 162.544 42.2529 162.8 42.0223C163.057 41.8173 163.338 41.5867 163.62 41.4074C163.672 41.3561 163.748 41.3305 163.825 41.3049C163.877 41.433 163.953 41.5611 164.005 41.6892C164.082 41.843 164.158 42.0223 164.235 42.1504L164.338 42.4323C164.645 43.2266 164.953 44.0466 165.44 44.764C165.465 44.8153 165.465 44.8665 165.516 44.9178C165.619 45.174 165.721 45.4302 165.85 45.6865C166.08 46.2246 166.311 46.7883 166.567 47.3264C166.798 47.7876 167.131 48.3513 167.72 48.7356C168.053 49.0175 168.412 49.0944 168.796 48.9406C168.873 48.915 168.95 48.915 169.027 48.8894C169.129 48.8638 169.232 48.8638 169.334 48.8125C169.565 48.7613 169.719 48.6331 169.77 48.4538C169.821 48.2744 169.77 48.0438 169.591 47.8901C169.309 47.6595 169.104 47.2751 168.924 46.8908ZM163.108 38.7169C163.108 38.7425 163.082 38.7938 163.031 38.845L161.391 40.0237C161.417 39.9212 161.417 39.7931 161.442 39.6906C161.468 39.5881 161.468 39.4856 161.494 39.3831C161.519 39.2806 161.519 39.1525 161.545 39.0756V39.05C161.57 38.9988 161.57 38.9475 161.596 38.8706C161.647 38.6913 161.673 38.5119 161.75 38.3326L161.955 37.7176C162.109 37.2051 162.262 36.6927 162.365 36.1802C162.467 36.5645 162.57 36.9489 162.749 37.3076C162.877 37.6151 162.954 37.9226 163.031 38.2557C163.031 38.3838 163.082 38.5375 163.108 38.7169Z" fill="#0055FF"/>
<path d="M177.431 35.6677C176.996 35.4371 176.637 35.4115 176.278 35.5908C176.176 35.6421 176.099 35.6933 176.048 35.7446C175.996 35.7702 175.971 35.7958 175.945 35.8215L175.92 35.8471C175.868 35.8983 175.791 35.9496 175.715 36.0008C175.535 36.1289 175.356 36.2827 175.253 36.462C175.023 36.7951 174.843 37.2051 174.741 37.5639C174.51 38.2044 174.203 38.7169 173.844 39.1269C173.485 39.5368 173.255 39.9212 173.127 40.3568C173.05 40.6387 172.922 40.8693 172.794 41.1255C172.742 41.228 172.691 41.3305 172.64 41.4586L172.589 41.5098C172.589 41.5355 172.563 41.5611 172.537 41.5867C172.512 41.638 172.46 41.7148 172.435 41.7917C172.204 42.2529 171.845 42.6373 171.307 42.996C171.231 43.0472 171.205 43.0472 171.179 43.0472C171.179 43.0472 171.128 43.0216 171.102 42.9704C171.051 42.8679 171 42.7141 170.974 42.5604V42.4835C170.923 42.1504 170.872 41.7917 170.872 41.433C170.872 41.1255 170.923 40.7924 170.949 40.4849C170.974 40.1518 171 39.8187 171.026 39.5112C171.077 38.8194 171.077 38.1276 171.102 37.4614C171.102 37.1283 171.128 36.7951 171.128 36.4108C171.128 36.3596 171.128 36.3083 171.128 36.2571C171.128 36.2058 171.128 36.1289 171.128 36.0777C171.154 35.8983 171.179 35.6933 171.231 35.514C171.41 34.5403 171.589 33.5154 171.615 32.4648C171.641 31.7217 171.743 30.9786 171.845 30.2356L171.871 29.9537C171.974 29.2106 172.102 28.4676 172.281 27.622C172.332 27.3401 172.384 27.0583 172.435 26.802C172.486 26.5202 172.537 26.2383 172.589 25.9565C172.614 25.854 172.614 25.7515 172.64 25.649C172.717 25.0084 172.819 24.3934 173.204 23.881C173.383 23.6504 173.511 23.4454 173.613 23.2404C173.742 23.0354 173.895 22.9585 174.203 22.9585C174.433 22.9585 174.587 23.0354 174.664 23.266C174.741 23.471 174.843 23.6504 174.946 23.8297C175.048 24.0091 175.125 24.1628 175.202 24.3422C175.407 24.829 175.638 25.3415 175.817 25.8027C175.843 25.854 175.868 25.9052 175.894 25.9308C176.073 26.2383 176.381 26.3408 176.714 26.1871C177.021 26.0846 177.252 25.854 177.355 25.4952C177.483 25.0853 177.611 24.5728 177.508 23.9835C177.329 23.3173 177.175 22.7023 176.996 22.0873C176.97 21.9848 176.893 21.8823 176.842 21.7799C176.816 21.7286 176.791 21.703 176.765 21.6517L176.74 21.6261C176.663 21.5236 176.586 21.3955 176.509 21.2674C176.432 21.1393 176.355 21.0112 176.253 20.883C176.125 20.7037 175.945 20.5243 175.766 20.3962C175.356 20.1143 174.895 20.0887 174.433 20.0887L174.049 20.1143L173.357 20.3193C173.229 20.3706 173.127 20.4218 173.05 20.4731L173.024 20.4987C172.922 20.5499 172.794 20.6012 172.665 20.6524C172.435 20.7293 172.204 20.8318 171.999 20.9855C171.256 21.6261 170.667 22.5229 170.334 23.5479C170.206 23.881 170.103 24.2397 170.001 24.5984C169.872 25.034 169.744 25.4952 169.565 25.9308C169.36 26.4689 169.181 27.1095 169.206 27.8013C169.206 27.9038 169.206 28.032 169.206 28.1345L168.873 31.0811C168.822 31.568 168.745 32.0548 168.694 32.516C168.591 33.2079 168.463 33.951 168.463 34.694C168.463 35.6677 168.386 36.667 168.309 37.5382L168.053 40.4337C168.053 40.5874 168.028 40.7155 168.028 40.8693C168.028 41.1511 168.002 41.433 167.951 41.6892C167.848 42.5092 167.746 43.3547 167.848 44.2003C167.925 44.7896 168.156 45.2509 168.591 45.584C168.745 45.7121 168.924 45.8402 169.155 45.8658H169.181H169.206C169.309 45.8658 169.411 45.8914 169.514 45.8914C169.616 45.9171 169.744 45.9427 169.847 45.9427C169.924 45.9427 170.026 45.9427 170.154 45.9427C170.231 45.9427 170.308 45.9427 170.411 45.9427L171.436 45.6352C171.538 45.6096 171.64 45.584 171.769 45.4815C171.948 45.379 172.127 45.2509 172.307 45.1484C172.742 44.8921 173.178 44.6103 173.588 44.3284C174.023 44.0209 174.408 43.6366 174.767 43.2779C174.869 43.1754 174.997 43.0729 175.1 42.9448C175.253 42.791 175.33 42.6117 175.407 42.4323C175.433 42.381 175.458 42.3042 175.51 42.2529C175.586 42.1248 175.638 41.9967 175.689 41.843L175.715 41.7405C175.843 41.3817 175.996 41.023 176.125 40.7155C176.176 40.6387 176.201 40.5362 176.253 40.4593C176.304 40.3568 176.33 40.2543 176.381 40.1774L176.406 40.1518C176.458 40.0749 176.509 39.9981 176.586 39.9212C176.688 39.7931 176.791 39.6906 176.868 39.5368C177.073 38.9988 177.252 38.4607 177.406 37.9738L177.764 36.8208C177.969 36.4108 177.867 35.8983 177.431 35.6677Z" fill="#0055FF"/>
<path d="M187.706 36.0777C187.553 35.5396 187.245 35.5396 187.117 35.5652C186.861 35.6165 186.605 35.6677 186.4 35.6677C185.938 35.6677 185.528 35.7446 185.195 35.8983C185.144 35.924 185.042 35.9496 184.939 35.9752C184.888 36.0008 184.837 36.0008 184.785 36.0008L184.708 36.0265C184.35 36.1033 184.017 36.1802 183.658 36.2827L180.916 37.1283C180.916 36.7695 180.942 36.3852 180.942 36.0008C180.942 35.6677 180.942 35.3603 180.942 35.0271C180.967 34.6684 180.967 34.3353 180.993 34.0022C181.019 33.2079 181.07 32.4136 181.121 31.5936C181.121 31.1324 181.198 30.6456 181.249 30.1587L181.275 29.9025L181.3 29.8769H181.326C181.634 29.6975 181.915 29.5437 182.249 29.3644L182.274 29.3388C182.428 29.2363 183.53 28.98 184.35 28.8007C185.451 28.5444 186.118 28.3907 186.323 28.2882C186.861 28.0063 186.861 26.7508 186.707 26.3408C186.605 26.1102 186.425 26.059 186.297 26.1102C186.195 26.1358 186.118 26.1871 186.015 26.2127C185.938 26.2383 185.861 26.264 185.785 26.2896L181.352 27.1352C181.352 26.5714 181.377 25.9821 181.403 25.3928C181.429 24.8034 181.429 24.2141 181.454 23.6248C181.505 22.4973 181.557 21.3443 181.659 20.1656C181.659 20.14 181.685 20.0887 181.71 20.0887C181.864 19.9862 182.044 19.935 182.249 19.8581C182.53 19.7556 183.171 19.6019 183.786 19.4481C184.452 19.2944 185.067 19.1407 185.375 19.0125C185.426 18.9869 185.477 18.9869 185.528 18.9613C185.759 18.9101 185.99 18.8332 186.195 18.6794C186.835 18.167 186.963 16.8089 186.733 16.3733C186.63 16.1684 186.425 16.1171 186.297 16.1684C186.015 16.2452 185.246 16.399 184.375 16.5783C179.968 17.4751 179.251 17.757 179.225 18.1926C179.199 18.5257 179.02 21.3443 179.02 21.5749C179.02 21.703 179.02 21.8055 179.046 21.9336C179.071 22.2923 179.097 22.6511 179.046 23.0098C178.943 23.7272 178.918 24.4703 178.943 25.2134L178.969 26.1615C178.943 26.5971 178.918 27.007 178.892 27.4426C178.815 28.4932 178.738 29.595 178.687 30.6456C178.661 30.953 178.661 31.2349 178.636 31.5167C178.636 31.7986 178.61 32.0805 178.584 32.3623C178.584 32.5929 178.559 32.7979 178.533 33.0285C178.508 33.2591 178.508 33.4897 178.482 33.6947C178.456 34.156 178.431 34.6428 178.431 35.1296V35.4627C178.405 35.9752 178.405 36.4877 178.405 36.9745V37.2051C178.379 40.6899 178.456 40.9205 178.584 41.0486C178.61 41.0999 178.661 41.1255 178.713 41.1511C178.764 41.1768 178.815 41.1768 178.866 41.1768C179.276 41.1768 180.071 40.8437 181.839 39.9981C181.992 39.9212 182.095 39.87 182.146 39.8443C182.325 39.7675 182.53 39.665 182.71 39.5625C183.094 39.3575 183.504 39.1781 183.888 39.0244C184.222 38.8963 184.58 38.8194 184.965 38.7425C185.144 38.6913 185.349 38.6657 185.554 38.6144C185.605 38.5888 185.656 38.5632 185.708 38.5375C185.733 38.5119 185.785 38.5119 185.836 38.4863L187.296 37.8457C187.886 37.7688 187.86 36.6414 187.706 36.0777Z" fill="#0055FF"/>
</svg>
